<?xml version="1.0" encoding="UTF-8"?>
<!DOCTYPE svg PUBLIC "-//W3C//DTD SVG 1.1//EN" "http://www.w3.org/Graphics/SVG/1.1/DTD/svg11.dtd">
<!-- Creator: CorelDRAW X7 -->
<svg xmlns="http://www.w3.org/2000/svg" xml:space="preserve" width="3.6in" height="3.6in" version="1.1" style="shape-rendering:geometricPrecision; text-rendering:geometricPrecision; image-rendering:optimizeQuality; fill-rule:evenodd; clip-rule:evenodd"
viewBox="0 0 3600 3600"
 xmlns:xlink="http://www.w3.org/1999/xlink">
 <defs>
  <style type="text/css">
   <![CDATA[
    .fil0 {fill:none}
    .fil1 {fill:#BF1E2E}
   ]]>
  </style>
 </defs>
 <g id="Layer_x0020_1">
  <metadata id="CorelCorpID_0Corel-Layer"/>
  <rect class="fil0" x="495" y="1493" width="2553" height="780"/>
  <g id="_3010630192752">
   <path class="fil1" d="M1500 2053l-21 0c-30,0 -55,-41 -55,-71l0 -28c0,-30 26,-72 55,-72l24 0c83,0 83,171 -3,171zm-185 -95c0,61 11,100 44,140 36,45 76,58 134,58 46,0 53,-24 78,-41 5,52 106,66 106,-31l0 -243c0,-70 -91,-78 -106,-24 -33,-8 -6,-37 -109,-37 -64,0 -147,87 -147,178z"/>
   <path class="fil1" d="M1756 1677l0 424c0,56 70,66 95,33 9,-12 11,-22 11,-43 0,-36 0,-73 0,-109l109 137c24,29 26,34 65,34 20,0 69,-38 20,-99l-91 -113c10,-7 15,-15 24,-24 24,-22 100,-71 55,-121 -13,-14 -26,-13 -42,-13 -48,0 -85,83 -140,120 0,-25 2,-223 -1,-238 -13,-57 -105,-53 -105,12z"/>
   <path class="fil1" d="M2946 1879l31 0c24,0 49,28 51,51l-137 0c11,-20 26,-51 55,-51zm-168 86c0,109 82,191 175,191l37 0c52,0 141,-39 141,-85 0,-25 -18,-45 -48,-45 -46,0 -30,31 -120,31 -40,0 -56,-32 -68,-55 28,0 210,6 226,-6 50,-37 -17,-216 -141,-216 -66,0 -101,3 -153,59 -25,27 -49,74 -49,126z"/>
   <path class="fil1" d="M2546 1879l31 0c24,0 49,28 51,51l-137 0c11,-20 26,-51 55,-51zm-168 86c0,58 19,102 49,132 56,55 87,59 163,59 52,0 141,-39 141,-85 0,-25 -18,-45 -48,-45 -46,0 -30,31 -120,31 -40,0 -56,-32 -68,-55 28,0 210,6 226,-6 32,-24 19,-148 -79,-199 -38,-19 -59,-17 -99,-17 -82,0 -165,89 -165,185z"/>
   <path class="fil1" d="M720 1715c0,70 45,58 120,58l0 335c0,21 23,48 44,48 45,0 69,-13 69,-72l0 -311c43,0 116,12 116,-48 0,-26 -20,-51 -45,-51l-256 0c-27,0 -48,23 -48,41z"/>
   <path class="fil1" d="M481 2139l-257 0c-29,0 -55,-23 -55,-48l0 -260c0,-22 17,-38 37,-45 18,-6 18,3 18,-27l250 0c0,27 -1,21 16,25 23,6 45,20 45,47l0 253c0,31 -23,55 -54,55zm-301 -390c-26,7 -55,46 -55,79l0 266c0,25 16,51 30,63 15,13 39,26 66,26l266 0c23,0 53,-16 65,-28 14,-14 28,-40 28,-67l0 -253c0,-72 -62,-81 -62,-96l0 -24 -338 0 0 34z"/>
   <path class="fil1" d="M2173 1715l0 72c-45,0 -65,7 -65,54 0,39 39,41 65,41l0 223c0,21 22,48 45,48 29,0 61,-8 61,-52l0 -219c31,0 83,8 85,-48 1,-55 -59,-47 -85,-47 0,-74 12,-123 -61,-123 -25,0 -45,25 -45,51z"/>
   <path class="fil1" d="M3199 1828l0 277c0,21 22,48 45,48 91,0 52,-80 61,-202 6,-87 127,-46 127,-120 0,-37 -28,-51 -62,-51 -37,0 -43,27 -68,34 -14,-51 -103,-40 -103,14z"/>
   <path class="fil1" d="M1076 1828l0 277c0,21 21,48 44,48 23,0 39,1 54,-25 24,-40 -16,-189 27,-220 44,-32 107,-23 107,-77 0,-37 -27,-51 -61,-51 -37,0 -43,27 -69,34 -13,-51 -102,-40 -102,14z"/>
   <path class="fil1" d="M231 1923c0,39 30,63 50,83 18,18 53,56 70,68 17,-11 50,-49 67,-66 24,-24 52,-43 52,-85 0,-32 -28,-61 -68,-61 -28,0 -36,14 -51,24 -63,-55 -120,-6 -120,37z"/>
   <path class="fil1" d="M217 1705l267 0c40,0 56,-65 -14,-65l-239 0c-69,0 -51,65 -14,65z"/>
   <path class="fil1" d="M228 1517c0,53 37,88 82,88 15,0 7,-8 7,-17 0,-43 29,-81 71,-82 -3,-43 -39,-64 -75,-65l-4 0c-41,1 -81,27 -81,76z"/>
   <path class="fil1" d="M334 1582c0,49 4,44 51,44 27,0 55,0 82,0 6,-26 7,-10 7,-44 0,-34 -33,-65 -72,-65 -34,0 -68,31 -68,65z"/>
  </g>
 </g>
</svg>
