<svg viewBox="0 0 15 15"><path fill="#fd6542" fill-rule="evenodd" d="M7.5 12.948a5.448 5.448 0 100-10.896 5.448 5.448 0 000 10.896z" clip-rule="evenodd" style="stroke-width:.108953"/><path fill="#fff" d="M5.873 6.737l.053-.418h-.639l.027-.214a1.02 1.02 0 01.066-.28.555.555 0 01.119-.184.442.442 0 01.163-.103.603.603 0 01.203-.032h.077a.39.39 0 00.067-.005.107.107 0 00.05-.02.071.071 0 00.023-.046l.053-.303a.862.862 0 00-.307-.055 1.06 1.06 0 00-.386.07.961.961 0 00-.317.2c-.094.09-.171.197-.228.317-.06.124-.1.265-.119.423l-.029.233h-.37l-.03.235c-.005.046.003.08.025.102a.18.18 0 00.089.048l.236.038-.353 2.976h.228c.081 0 .144-.021.188-.064a.425.425 0 00.104-.18l.13-.531.26-2.207zm.691 2.31l.477-4.013h-.56l-.477 4.013zm1.013-2.766l-.324 2.766h.56l.326-2.766zm.7-.987a.402.402 0 00-.2-.207.33.33 0 00-.275 0 .386.386 0 00-.197.209.38.38 0 000 .3c.02.045.046.087.08.123a.376.376 0 00.114.084.32.32 0 00.274 0 .423.423 0 00.204-.207.378.378 0 00.002-.3zm.922 2.435c.043-.14.1-.276.167-.406a1.95 1.95 0 01.21-.326.993.993 0 01.23-.215.435.435 0 01.236-.077.33.33 0 01.29.153c.069.102.103.255.102.46a1.897 1.897 0 01-.103.618 1.58 1.58 0 01-.125.275 1.108 1.108 0 01-.166.223.736.736 0 01-.205.15.538.538 0 01-.238.054.717.717 0 01-.256-.05.516.516 0 01-.224-.17zm.095-1.258c0-.067-.016-.116-.049-.147-.032-.032-.08-.048-.142-.048h-.286l-.44 3.69h.554l.138-1.155a.79.79 0 00.612.277c.12 0 .24-.025.352-.072.115-.049.221-.116.316-.198.1-.088.19-.189.266-.3.082-.117.15-.243.206-.375a2.302 2.302 0 00.177-.882c0-.17-.017-.319-.052-.446a.945.945 0 00-.147-.32.605.605 0 00-.232-.193.718.718 0 00-.306-.064.806.806 0 00-.28.05 1.041 1.041 0 00-.261.144 1.59 1.59 0 00-.242.223c-.08.091-.15.19-.213.293l.03-.477z" style="stroke-width:.108953"/><rect width="11.717" height="11.717" x="-140.554" y="-290.74" fill="none" paint-order="fill markers stroke" rx=".567" ry=".567" transform="translate(179.932 372.195) scale(1.28016)"/></svg>