<svg viewBox="0 0 15 15"><g transform="translate(121.425 394.52) scale(1.28016)"><rect width="11.717" height="11.717" x="-94.851" y="-308.18" fill="none" paint-order="fill markers stroke" rx=".567" ry=".567"/><path fill="#5da4da" fill-rule="evenodd" d="M-92.684-304.497h6.949a.28.28 0 01.28.28v1.286h-2.927a.521.521 0 00-.52.52v1.847c0 .285.234.52.52.52h2.927v1.443a.28.28 0 01-.28.28h-6.754a.466.466 0 01-.475-.475v-5.42a.28.28 0 01.28-.28zm4.139-1.776l-2.19 1.198 2.996-.89-.441-.302a.352.352 0 00-.365-.007zm1.172.671l-1.758.61h2.537l-.302-.4c-.146-.192-.199-.297-.477-.21zm-.978 3.17h3.33v1.785h-3.33zm.885.568a.328.328 0 110 .657.328.328 0 010-.657z"/></g></svg>