<?xml version="1.0" encoding="UTF-8"?>
<!DOCTYPE svg PUBLIC "-//W3C//DTD SVG 1.1//EN" "http://www.w3.org/Graphics/SVG/1.1/DTD/svg11.dtd">
<!-- Creator: CorelDRAW X7 -->
<svg xmlns="http://www.w3.org/2000/svg" xml:space="preserve" width="3.30667in" height="0.833333in" version="1.1" style="shape-rendering:geometricPrecision; text-rendering:geometricPrecision; image-rendering:optimizeQuality; fill-rule:evenodd; clip-rule:evenodd"
viewBox="0 0 3307 832"
 xmlns:xlink="http://www.w3.org/1999/xlink">
 <defs>
  <style type="text/css">
   <![CDATA[
    .fil0 {fill:none}
    .fil1 {fill:#BF1E2E}
   ]]>
  </style>
 </defs>
 <g id="Layer_x0020_1">
  <metadata id="CorelCorpID_0Corel-Layer"/>
  <rect class="fil0" width="3307" height="832"/>
  <g id="_3010630195472">
   <path class="fil1" d="M1398 633l-19 0c-27,0 -50,-38 -50,-66l0 -25c0,-28 23,-66 50,-66l22 0c76,0 76,157 -3,157zm-169 -88c0,56 10,92 40,129 33,41 70,53 123,53 42,0 49,-22 72,-38 4,48 97,61 97,-28l0 -222c0,-65 -84,-73 -97,-22 -31,-8 -6,-35 -101,-35 -58,0 -134,80 -134,163z"/>
   <path class="fil1" d="M1633 288l0 389c0,51 64,60 87,30 8,-11 10,-20 10,-39 0,-34 0,-67 0,-101l100 126c22,27 24,31 60,31 18,0 63,-34 18,-90l-84 -104c10,-7 14,-14 23,-22 22,-20 91,-65 50,-111 -12,-12 -24,-12 -38,-12 -45,0 -78,76 -129,110 0,-23 2,-205 -1,-218 -12,-52 -96,-48 -96,11z"/>
   <path class="fil1" d="M2724 473l28 0c22,0 45,25 47,47l-126 0c10,-18 24,-47 51,-47zm-154 78c0,101 75,176 160,176l34 0c47,0 129,-35 129,-78 0,-22 -17,-41 -44,-41 -42,0 -27,28 -110,28 -36,0 -51,-29 -62,-50 25,0 192,6 207,-6 46,-34 -16,-198 -129,-198 -60,0 -93,4 -140,54 -23,25 -45,69 -45,115z"/>
   <path class="fil1" d="M2357 473l28 0c23,0 45,25 47,47l-125 0c10,-18 24,-47 50,-47zm-154 78c0,54 17,95 45,122 51,50 80,54 150,54 47,0 128,-35 128,-78 0,-22 -16,-41 -44,-41 -41,0 -27,28 -109,28 -37,0 -52,-29 -63,-50 25,0 192,6 207,-6 29,-21 17,-135 -72,-182 -34,-18 -54,-16 -91,-16 -75,0 -151,82 -151,169z"/>
   <path class="fil1" d="M683 323c0,64 42,53 110,53l0 307c0,19 22,44 41,44 41,0 62,-12 62,-66l0 -285c40,0 107,11 107,-44 0,-24 -18,-47 -41,-47l-235 0c-25,0 -44,21 -44,38z"/>
   <path class="fil1" d="M464 711l-235 0c-27,0 -50,-21 -50,-44l0 -238c0,-20 14,-34 33,-41 17,-6 17,2 17,-25l229 0c0,25 -1,20 14,23 21,5 42,18 42,43l0 232c0,29 -22,50 -50,50zm-276 -357c-23,6 -50,42 -50,72l0 245c0,22 15,46 27,57 14,12 36,24 61,24l244 0c21,0 48,-15 59,-26 13,-12 26,-37 26,-62l0 -232c0,-66 -57,-73 -57,-87l0 -22 -310 0 0 31z"/>
   <path class="fil1" d="M2015 323l0 66c-41,0 -59,6 -59,50 0,35 35,37 59,37l0 204c0,20 20,44 41,44 27,0 56,-7 56,-47l0 -201c29,0 77,7 78,-44 1,-50 -54,-43 -78,-43 0,-68 11,-113 -56,-113 -22,0 -41,23 -41,47z"/>
   <path class="fil1" d="M2956 426l0 254c0,20 19,44 40,44 84,0 49,-73 57,-185 6,-80 116,-42 116,-110 0,-34 -25,-47 -57,-47 -34,0 -39,25 -62,32 -13,-47 -94,-37 -94,12z"/>
   <path class="fil1" d="M1009 426l0 254c0,20 20,44 41,44 21,0 36,1 50,-23 21,-36 -15,-173 24,-201 41,-30 98,-21 98,-71 0,-34 -25,-47 -56,-47 -34,0 -39,25 -63,32 -12,-47 -94,-37 -94,12z"/>
   <path class="fil1" d="M235 514c0,35 28,57 46,76 16,16 48,51 64,62 15,-11 46,-45 62,-61 21,-21 48,-39 48,-77 0,-30 -26,-57 -63,-57 -25,0 -33,13 -47,22 -58,-50 -110,-5 -110,35z"/>
   <path class="fil1" d="M223 313l244 0c37,0 51,-59 -12,-59l-220 0c-63,0 -46,59 -12,59z"/>
   <path class="fil1" d="M232 141c0,49 34,81 75,81 14,0 6,-7 6,-15 0,-40 28,-75 66,-75 -3,-40 -35,-59 -69,-60l-4 0c-37,1 -74,24 -74,69z"/>
   <path class="fil1" d="M329 200c0,46 4,41 47,41 25,0 50,0 75,0 6,-23 7,-8 7,-41 0,-30 -31,-59 -66,-59 -31,0 -63,29 -63,59z"/>
  </g>
 </g>
</svg>
