<svg width="200.00000000000003" height="200.00000000000003" xmlns="http://www.w3.org/2000/svg" xml:space="preserve" version="1.1">
 <desc>Created with Fabric.js 5.2.4</desc>

 <g>
  <title>Layer 1</title>
  <g stroke="null" id="svg_25">
   <rect stroke="null" id="svg_1" fill="transparent" height="56.42713" width="56.02479" y="0" x="0"/>
   <g stroke="null" id="4b00f375-9d5c-41b7-85ce-2d427d634843" transform="matrix(0 0 0 0 0 0)"/>
   <g stroke="null" id="b8d1f5b7-92a9-4c99-8a23-a84b4b942f39" transform="matrix(0.280124 0 0 0.282136 98.0434 98.7475)">
    <rect stroke=" none" id="svg_2" fill-rule=" nonzero" fill=" rgb(255,255,255)" stroke-miterlimit="4" stroke-linejoin=" miter" stroke-dashoffset="0" stroke-linecap=" butt" stroke-dasharray=" none" height="700" width="700" y="-339.87317" x="-339.87317" vector-effect="non-scaling-stroke"/>
   </g>
   <g stroke="null" id="svg_3" transform="matrix(0.106447 0 0 0.107212 94.6119 75.7055)">
    <path stroke=" none" id="svg_4" fill-rule=" nonzero" fill=" rgb(234,95,0)" stroke-miterlimit="4" stroke-linejoin=" miter" stroke-dashoffset="0" stroke-dasharray=" none" stroke-linecap=" butt" d="m26.64955,-352.85045c-243,0 -440,197 -440,439c0,97 31,186 84,259c18,-9 38,-17 58,-23c-51,-65 -81,-146 -81,-235c0,-209 169,-379 378,-379c209,0 379,170 379,379c0,134 -70,252 -176,319c10,0 21,0 31,-1c35,-1 67,-17 95,-30c69,-77 112,-175 112,-288c0,-243 -197,-440 -440,-440z" vector-effect="non-scaling-stroke"/>
   </g>
   <g stroke="null" id="svg_5" transform="matrix(0.106447 0 0 0.107212 93.3793 127.661)">
    <path stroke=" none" id="svg_6" fill-rule=" nonzero" fill=" rgb(38,115,221)" stroke-miterlimit="4" stroke-linejoin=" miter" stroke-dashoffset="0" stroke-dasharray=" none" stroke-linecap=" butt" d="m316.28956,31.86952c-25,8 -49,13 -73,13c-98,4 -168,-25 -236,-54c-61,-26 -117,-50 -187,-46c-66,5 -112,41 -114,43c-13,11 -15,31 -4,44c10,14 30,16 44,5c1,0 33,-26 79,-29c53,-3 102,17 157,41c64,27 134,57 229,60c11,0 23,0 35,0c29,-1 60,-7 90,-18c17,-5 26,-23 20,-40c-6,-16 -24,-25 -40,-19z" vector-effect="non-scaling-stroke"/>
   </g>
   <g stroke="null" id="svg_7" transform="matrix(0.106447 0 0 0.107212 94.0712 117.518)">
    <path stroke=" none" id="svg_8" fill-rule=" nonzero" fill=" rgb(38,115,221)" stroke-miterlimit="4" stroke-linejoin=" miter" stroke-dashoffset="0" stroke-dasharray=" none" stroke-linecap=" butt" d="m411.76954,-14.57043c-30,21 -91,56 -160,59c-88,3 -146,-22 -207,-49c-64,-27 -131,-57 -231,-52c-93,3 -172,56 -211,87c-14,12 -16,32 -5,46c12,15 32,17 46,6c33,-27 98,-71 172,-74c85,-3 142,21 202,48c59,25 120,52 207,54c10,0 19,0 30,-1c85,-3 158,-46 194,-70c15,-11 18,-31 8,-46c-10,-15 -30,-18 -45,-8z" vector-effect="non-scaling-stroke"/>
   </g>
   <g stroke="null" id="svg_9" transform="matrix(0.106447 0 0 0.107212 94.5166 80.1124)">
    <path stroke=" none" id="svg_10" fill-rule=" nonzero" fill=" rgb(234,95,0)" stroke-miterlimit="4" stroke-linejoin=" miter" stroke-dashoffset="0" stroke-dasharray=" none" stroke-linecap=" butt" d="m51.64955,318.14955l0,0c39,16 75,31 118,39c120,-54 203,-175 203,-315c0,-190 -155,-346 -346,-346c-191,0 -346,156 -346,346c0,87 32,167 85,228c11,-2 22,-3 33,-4c110,-6 186,25 253,52zm24,-233c-6,-6 -13,-11 -22,-15c-8,-4 -18,-8 -28,-12c-10,-3 -20,-7 -29,-11c-21,-7 -37,-19 -51,-35c-14,-16 -21,-37 -20,-61c0,-16 3,-30 10,-42c6,-13 14,-22 25,-30c10,-8 22,-14 35,-18c13,-4 27,-6 42,-6l0,0c23,0 42,5 59,13c16,8 32,17 46,29l-34,49c-10,-7 -20,-13 -31,-18c-12,-5 -25,-8 -41,-9c-12,0 -23,2 -32,7c-10,6 -15,14 -15,24c0,7 2,12 5,17c3,5 8,10 14,13c6,4 12,6 19,9c6,3 13,5 19,7c12,5 25,10 37,16c13,7 24,14 34,23c10,9 18,20 24,32c6,12 9,26 8,43c0,16 -3,30 -10,42c-6,13 -15,23 -26,32c-10,8 -23,15 -38,19c-14,4 -30,6 -47,6c-16,0 -30,-3 -44,-7c-13,-4 -25,-9 -35,-15c-11,-6 -20,-12 -27,-18c-8,-5 -13,-10 -17,-13l36,-50c11,11 25,20 41,27c16,8 32,12 49,12c15,0 27,-3 37,-10c11,-6 16,-15 16,-28c1,-9 -3,-16 -9,-22z" vector-effect="non-scaling-stroke"/>
   </g>
   <g stroke="null" id="svg_11" transform="matrix(0.0616273 0 0 0.0620698 44.3576 151.239)">
    <path stroke=" none" id="svg_12" fill-rule=" nonzero" fill=" rgb(234,95,0)" stroke-miterlimit="4" stroke-linejoin=" miter" stroke-dashoffset="0" stroke-dasharray=" none" stroke-linecap=" butt" d="m136.03104,49.16104c-10,-9 -21,-17 -33,-23c-13,-7 -26,-12 -39,-17c-6,-2 -12,-4 -19,-7c-6,-2 -13,-5 -19,-9c-5,-4 -10,-8 -14,-13c-3,-5 -5,-10 -5,-17c1,-11 5,-19 15,-24c10,-6 20,-8 33,-7c16,1 30,4 41,9c11,5 22,11 31,18l35,-49c-14,-12 -30,-22 -47,-30c-16,-8 -36,-12 -59,-12l0,0c-15,-1 -29,1 -42,5c-14,5 -26,10 -36,18c-11,8 -19,18 -25,30c-7,12 -10,27 -10,43c-1,24 6,45 20,61c14,16 31,28 51,36c9,4 19,7 30,11c10,3 20,7 29,11c8,4 16,9 22,15c5,7 9,14 8,23c0,12 -5,22 -16,28c-10,7 -23,10 -37,10c-17,-1 -34,-4 -50,-12c-16,-7 -30,-17 -41,-28l-36,50c3,4 9,9 16,15c8,7 17,12 28,18c10,6 22,11 36,15c13,4 28,7 44,7c17,0 33,-2 47,-6c15,-4 28,-11 39,-19c11,-9 20,-20 26,-32c6,-13 10,-27 10,-43c0,-17 -3,-31 -8,-43c-6,-13 -14,-23 -25,-32z" vector-effect="non-scaling-stroke"/>
   </g>
   <g stroke="null" id="svg_13" transform="matrix(0.0616273 0 0 0.0620698 98.7521 151.278)">
    <path stroke=" none" id="svg_14" fill-rule=" nonzero" fill=" rgb(234,95,0)" stroke-miterlimit="4" stroke-linejoin=" miter" stroke-dashoffset="0" stroke-dasharray=" none" stroke-linecap=" butt" d="m127.03104,35.53104c3,-3 6,-7 9,-11c3,-3 6,-8 9,-14c3,-6 5,-12 7,-20c1,-7 2,-17 2,-28c0,-10 -2,-21 -6,-31c-3,-10 -9,-19 -16,-28c-7,-8 -15,-15 -26,-21c-10,-6 -21,-10 -34,-11c-8,-1 -17,-2 -27,-2c-10,0 -20,-1 -32,-1l-94,1l0,354l95,0c12,0 23,0 35,0c12,0 21,0 29,-1c13,-1 25,-4 37,-9c11,-5 21,-11 30,-20c8,-9 15,-19 20,-31c5,-12 8,-26 8,-41c0,-23 -5,-42 -14,-56c-9,-14 -20,-24 -32,-30zm-149,-105l30,0c10,0 19,0 27,0c8,0 15,1 21,2c12,1 21,5 29,11c8,6 11,14 11,25c1,14 -3,24 -11,30c-7,5 -17,9 -29,11c-6,1 -13,1 -21,1c-7,0 -16,0 -27,0l-30,0l0,-80zm122,216c-9,8 -23,13 -42,14c-6,0 -13,1 -22,1c-10,-1 -19,0 -29,0l-29,0l0,-92l29,0c10,0 18,0 26,0c9,-1 16,-1 22,0c19,1 33,5 43,13c10,7 16,18 16,32c-1,13 -5,24 -14,32z" vector-effect="non-scaling-stroke"/>
   </g>
   <g stroke="null" id="svg_15" transform="matrix(0.0616273 0 0 0.0620698 61.9074 153.674)">
    <path stroke=" none" id="svg_16" fill-rule=" nonzero" fill=" rgb(234,95,0)" stroke-miterlimit="4" stroke-linejoin=" miter" stroke-dashoffset="0" stroke-dasharray=" none" stroke-linecap=" butt" d="m171.94107,-5.46896c-7,-18 -16,-34 -29,-47c-12,-13 -26,-23 -43,-30c-16,-6 -33,-10 -51,-10c-22,0 -42,4 -59,11c-18,7 -32,17 -44,30c-11,13 -20,27 -26,44c-6,16 -9,34 -9,53c0,21 4,39 11,57c8,17 18,31 30,44c13,12 28,21 44,28c16,7 34,10 52,10c17,0 32,-1 45,-4l0,0c12,-3 24,-6 34,-10c9,-4 18,-9 26,-15l0,0c8,-5 15,-11 22,-16l-31,-44c-4,3 -9,7 -14,10l0,0l0,0c-6,4 -13,8 -21,11l0,0c-8,3 -17,5 -27,7l0,0c-10,2 -21,3 -33,2l0,0c-6,0 -13,-1 -20,-3l0,0l0,0c-7,-2 -14,-5 -20,-9l-1,0l0,0c-6,-4 -12,-9 -17,-15c-5,-7 -9,-15 -11,-24l-1,-2l202,0l0,-15c1,-24 -2,-45 -9,-63l0,0zm-195,25l0,-2c1,-8 3,-11 6,-17l0,0c1,0 1,-1 2,-3l0,0l0,0c4,-7 9,-13 16,-17c6,-5 13,-8 21,-10c8,-3 16,-4 25,-4l0,0c19,0 35,6 47,16c6,5 10,10 14,15c4,6 6,12 8,20l0,2l-139,0z" vector-effect="non-scaling-stroke"/>
   </g>
   <g stroke="null" id="svg_17" transform="matrix(0.0616273 0 0 0.0620698 79.9278 153.674)">
    <path stroke=" none" id="svg_18" fill-rule=" nonzero" fill=" rgb(234,95,0)" stroke-miterlimit="4" stroke-linejoin=" miter" stroke-dashoffset="0" stroke-dasharray=" none" stroke-linecap=" butt" d="m117.03104,-65.46896l-4,-3c-9,-7 -19,-13 -31,-17l0,0l0,0c-12,-5 -26,-7 -42,-7c-18,0 -35,4 -50,10l0,1c-16,6 -29,15 -40,28c-12,12 -21,27 -27,44l0,0c-7,17 -10,37 -10,58c0,19 3,37 10,53c6,17 15,31 27,43c11,12 25,22 40,30c15,7 32,10 50,10c16,0 30,-2 42,-6c12,-5 22,-11 31,-18l4,-4l0,28l62,0l0,-269l-62,0l0,19zm-6,145c-4,10 -9,18 -16,24c-6,6 -13,11 -22,15l0,0c-8,3 -16,4 -25,4c-20,0 -37,-7 -50,-20l0,0c-14,-14 -20,-32 -20,-55c0,-22 6,-41 20,-55c13,-15 30,-22 50,-22c9,0 17,1 25,5c9,3 16,8 23,15c6,6 11,14 15,24c4,10 6,21 6,33c0,12 -2,23 -6,32z" vector-effect="non-scaling-stroke"/>
   </g>
   <g stroke="null" id="svg_19" transform="matrix(0.0616273 0 0 0.0620698 115.831 153.674)">
    <path stroke=" none" id="svg_20" fill-rule=" nonzero" fill=" rgb(234,95,0)" stroke-miterlimit="4" stroke-linejoin=" miter" stroke-dashoffset="0" stroke-dasharray=" none" stroke-linecap=" butt" d="m116.53104,-65.46896l-4,-3c-8,-7 -19,-13 -31,-17l0,0l0,0c-12,-5 -25,-7 -41,-7c-18,0 -35,4 -51,10l0,1c-15,6 -28,15 -40,28c-11,12 -20,27 -27,44l0,0c-6,17 -10,37 -10,58c0,19 4,37 10,53c7,17 16,31 27,43c12,12 25,22 41,30c15,7 32,10 50,10c16,0 29,-2 41,-6c12,-5 23,-11 31,-18l4,-4l0,28l63,0l0,-268l-63,0l0,18zm-6,145c-3,10 -9,18 -15,24c-6,6 -13,11 -22,15l0,0c-8,3 -17,4 -26,4c-20,0 -36,-7 -50,-20l0,0c-13,-14 -20,-32 -20,-55c0,-22 7,-41 20,-55c14,-15 30,-22 50,-22c9,0 18,1 26,5c9,3 16,8 22,15c6,6 12,14 15,24c4,10 6,21 6,33c0,12 -2,23 -6,32z" vector-effect="non-scaling-stroke"/>
   </g>
   <g stroke="null" id="svg_21" transform="matrix(0.0616273 0 0 0.0620698 151.698 151.185)">
    <polygon stroke=" none" id="svg_22" fill-rule=" nonzero" fill=" rgb(234,95,0)" stroke-miterlimit="4" stroke-linejoin=" miter" stroke-dashoffset="0" stroke-linecap=" butt" stroke-dasharray=" none" points="50.531036376953125,73.03103637695312 163.5310287475586,-50.968963623046875 81.53103637695312,-50.968963623046875 -12.468963623046875,51.031036376953125 -12.468963623046875,-132.968994140625 -75.46896362304688,-132.968994140625 -75.46896362304688,225.03103637695312 -12.468963623046875,225.03103637695312 -12.468963623046875,144.03103637695312 8.531036376953125,120.03103637695312 89.53103637695312,225.03103637695312 167.5310287475586,225.03103637695312 " vector-effect="non-scaling-stroke"/>
   </g>
   <g stroke="null" id="svg_23" transform="matrix(0.0616273 0 0 0.0620698 134.129 153.736)">
    <path stroke=" none" id="svg_24" fill-rule=" nonzero" fill=" rgb(234,95,0)" stroke-miterlimit="4" stroke-linejoin=" miter" stroke-dashoffset="0" stroke-dasharray=" none" stroke-linecap=" butt" d="m155.03104,-30.46896l0,0c-6,-17 -17,-31 -33,-43c-16,-12 -36,-18 -60,-18c-13,0 -26,2 -39,6c-12,3 -22,9 -32,16l0,-15l-63,0l0,268l63,0l0,-143c1,-10 2,-19 3,-28l0,0c1,-9 4,-17 8,-24c4,-6 10,-12 17,-16l0,0l0,0c7,-4 16,-7 28,-7c14,0 25,3 33,11l0,0c9,7 15,17 18,29l0,1c1,5 2,13 3,23l0,0c1,9 1,22 1,40l0,114l62,0l0,-129c0,-18 0,-33 -2,-46c0,-13 -3,-26 -7,-39z" vector-effect="non-scaling-stroke"/>
   </g>
  </g>
 </g>
</svg>