<svg viewBox="0 0 196 196" style="fill-rule:evenodd;clip-rule:evenodd;stroke-linejoin:round;stroke-miterlimit:2"><path d="M195.267 97.632A97.631 97.631 0 0097.635 0h-.003a97.628 97.628 0 00-69.036 28.596A97.628 97.628 0 000 97.632v.13a97.628 97.628 0 0028.596 69.036 97.628 97.628 0 0069.036 28.596h.003a97.632 97.632 0 0097.632-97.632v-.13z" style="fill:url(#_Linear1)"/><text x="699.208" y="495.003" style="font-family:'GreycliffCF-Heavy','Greycliff CF';font-weight:900;font-size:53.402px;fill:#b5b5b5" transform="translate(-62.865 79.684) scale(.16332)">H<tspan x="749.086 790.472 829.883 889.265 917.889 968.407 1027.79 1056.41 1101.96 1150.13 1200.49 1229.12" y="495.003 495.003 495.003 495.003 495.003 495.003 495.003 495.003 495.003 495.003 495.003 495.003">ELMIAMIRUDIN</tspan></text><text x="748.184" y="537.725" style="font-family:'GreycliffCF-Bold','Greycliff CF';font-weight:700;font-size:41.619px;fill:#b5b5b5" transform="translate(-62.865 79.684) scale(.16332)">D<tspan x="792.882 830.922 870.585 897.929 945.957 990.989 1029.36 1068.9 1112.23 1156.92 1184.27" y="537.725 537.725 537.725 537.725 537.725 537.725 537.725 537.725 537.725 537.725 537.725">ESIGNSTUDIO</tspan></text><path d="M104.815 137.372c-2.333.42-4.732.639-7.181.639-4.085 0-8.029-.609-11.745-1.741.011-6.103.019-12.206.015-18.308 2.965-.216 6.559.136 9.596.14 1.609 0 3.177.023 4.786-.038 1.545-.06 3.045-.25 4.552-.318l-.023 19.626zm-1.83-79.636c19.723 2.62 34.962 19.525 34.962 39.961 0 17.955-11.764 33.185-27.998 38.395l.008-19.308c3.39-1.166 8.093-2.567 10.865-5.127 2.669-2.461 5.002-4.961 6.782-9.251 1.707-4.109 2.665-8.471 2.234-13.53-.394-4.635-1.943-9.137-4.234-11.932-2.253-2.749-6.131-5.415-11.36-3.264-4.052 1.666-5.703 4.377-7.384 8.789-2.496 6.547-1.988 14.639-2.011 22.039-.004 2.552.129 5.597-.049 8.092-3.548.417-15.302.462-18.888.186 0-2.273.147-17.662-.076-18.502l-4.995-.031-.015 18.877c-5.309.587-9.353 2.143-12.36 6.286-.861 1.186-1.488 2.498-1.943 3.909a40.139 40.139 0 01-9.203-25.628c0-3.242.384-6.395 1.108-9.416.363-.008.562-.007.562-.007s6.559.136 9.596.14c1.609 0 3.177.023 4.786-.038 1.545-.06 3.045-.25 4.552-.318l5.119-.962c3.39-1.166 8.093-2.567 10.865-5.127 2.669-2.461 5.002-4.96 6.782-9.251 1.208-2.906 2.111-7.747 2.295-14.982zm-32.269 69.961c.525-4.256 2.5-8.709 10.125-9.451-.004 5.365-.014 10.73-.024 16.095a40.382 40.382 0 01-10.101-6.644zm39.287-16.263c-.114-3.973.019-8.142.03-12.137.019-5.544-.254-15.855 4.427-19.785.92-.777 2.613-1.932 4.328-1.5 1.291.326 2.704 1.89 3.287 2.73 4.351 6.26 3.306 17.362-1.246 23.444-2.382 3.184-6.611 6.399-10.826 7.248zm-12.124-54.05c-.235 8.894-1.771 14.185-3.964 17.114-2.382 3.185-6.746 5.893-10.826 7.248-2.077.689-3.004.908-5.203 1.166-2.987.351-14.327.243-17.842.199 5.849-15.048 20.482-25.728 37.59-25.728l.245.001z" style="fill:#b5b5b5"/><defs><linearGradient id="_Linear1" x1="0" x2="1" y1="0" y2="0" gradientTransform="rotate(45.019) scale(276.239)" gradientUnits="userSpaceOnUse"><stop offset="0" style="stop-color:#fff;stop-opacity:1"/><stop offset="1" style="stop-color:#d8d8d8;stop-opacity:1"/></linearGradient></defs></svg>