<svg viewBox="0 0 15 15"><rect width="15" height="15" x=".001" fill="none" paint-order="fill markers stroke" rx=".726" ry=".726" style="stroke-width:1.28016"/><path d="M10.294 5.58l-.709 1.29c-.274-.216-.594-.376-1.017-.376-.994 0-1.394.731-1.394 1.257 0 .377.252.948 1.132.948.377 0 .902-.251 1.05-.366L8.66 9.83c-.343.069-.446.103-.732.115-1.576.045-2.216-.926-2.216-1.909 0-1.314 1.165-2.902 3.096-2.902.115 0 .263.034.377.08l.126-.16M4.763 5.1c.743 0 1.166.4 1.166.982 0 .537-.446 1.017-.937 1.269.503.182.548.628.548.948 0 .777-.777 1.497-1.782 1.497H1.564l.857-3.314h-.354l.72-1.382s1.37-.012 1.976 0M3.415 7.83l-.194.778h.514c.194 0 .468-.103.537-.355.068-.251-.126-.422-.32-.422m7.976-1.292l-.583 1.36h.594m-7.907-.903c.16 0 .423-.034.491-.33.08-.32-.171-.332-.297-.332h-.434l-.16.662zM13.231 5.1l.205 4.696H11.94v-.811h-1.028l-.332.811H8.946l1.702-3.36h-.377l.72-1.336zm-1.303 1.44" style="clip-rule:evenodd;fill:#0060af;fill-rule:nonzero;stroke-width:.0821714;stroke-linejoin:round;stroke-miterlimit:2"/></svg>