<svg viewBox="0 0 15 15"><g transform="translate(166.503 394.52) scale(1.28016)"><rect width="11.717" height="11.717" x="-130.064" y="-308.18" fill="none" paint-order="fill markers stroke" rx=".567" ry=".567"/><path fill="#003087" d="M-121.823-305.718c-.37-.422-1.04-.603-1.896-.603h-2.487a.356.356 0 00-.351.3l-1.035 6.566a.213.213 0 00.21.247h1.536l.385-2.445-.012.076a.355.355 0 01.35-.3h.73c1.432 0 2.554-.582 2.882-2.266.01-.05.018-.098.025-.145.098-.622 0-1.046-.337-1.43"/><path fill="#003087" d="M-121.823-305.718c-.37-.422-1.04-.603-1.896-.603h-2.487a.356.356 0 00-.351.3l-1.035 6.566a.213.213 0 00.21.247h1.536l.385-2.445-.012.076a.355.355 0 01.35-.3h.73c1.432 0 2.554-.582 2.882-2.266.01-.05.018-.098.025-.145.098-.622 0-1.046-.337-1.43"/><path fill="#003087" d="M-125.047-304.28a.312.312 0 01.307-.263h1.95c.23 0 .446.015.642.047a2.701 2.701 0 01.32.071 1.76 1.76 0 01.342.137c.098-.623 0-1.046-.337-1.43-.37-.422-1.04-.603-1.896-.603h-2.487a.356.356 0 00-.351.3l-1.035 6.566a.213.213 0 00.21.246h1.535l.386-2.445z"/><path fill="#009cde" d="M-121.485-304.288a4.048 4.048 0 01-.026.145c-.328 1.683-1.45 2.266-2.882 2.266h-.73a.355.355 0 00-.35.3l-.374 2.368-.106.672a.187.187 0 00.185.216h1.294a.311.311 0 00.307-.263l.013-.066.243-1.545.016-.086a.311.311 0 01.307-.262h.194c1.253 0 2.235-.51 2.522-1.982.12-.615.057-1.13-.26-1.49a1.236 1.236 0 00-.354-.274"/><path fill="#012169" d="M-121.829-304.425a2.238 2.238 0 00-.319-.07 4.016 4.016 0 00-.643-.048h-1.949a.31.31 0 00-.307.263l-.414 2.627-.013.076a.355.355 0 01.35-.3h.73c1.433 0 2.555-.582 2.883-2.266.01-.05.017-.098.025-.145a1.77 1.77 0 00-.27-.114l-.073-.023"/></g></svg>