<svg viewBox="0 0 56 56"><g stroke="null"><path fill="transparent" d="M0 0h16.908v17.03H0z"/><path fill="#FFF" stroke="none" d="M-.73-2.948h59.178v59.605H-.73z" vector-effect="non-scaling-stroke"/><path fill="#EA5F00" stroke="none" d="M27.823 7.621c-7.807 0-14.136 6.375-14.136 14.205 0 3.138.996 6.018 2.699 8.38.578-.291 1.22-.55 1.863-.744a12.284 12.284 0 01-2.602-7.604c0-6.762 5.43-12.263 12.143-12.263 6.715 0 12.176 5.5 12.176 12.263 0 4.336-2.249 8.154-5.654 10.322.321 0 .675 0 .996-.033 1.124-.032 2.152-.55 3.052-.97 2.216-2.492 3.598-5.663 3.598-9.319 0-7.862-6.329-14.237-14.135-14.237z" vector-effect="non-scaling-stroke"/><path fill="#2673DD" stroke="none" d="M36.755 35.75c-.803.258-1.574.42-2.345.42-3.148.13-5.397-.809-7.581-1.747-1.96-.841-3.76-1.618-6.008-1.489-2.12.162-3.598 1.327-3.662 1.392a1.025 1.025 0 00-.129 1.423c.322.453.964.518 1.414.162.032 0 1.06-.841 2.538-.938 1.702-.097 3.277.55 5.043 1.327 2.056.873 4.305 1.844 7.357 1.94h1.125a9.38 9.38 0 002.89-.582.99.99 0 00.643-1.294c-.192-.517-.77-.809-1.285-.615z" vector-effect="non-scaling-stroke"/><path fill="#2673DD" stroke="none" d="M40.032 31.186c-.964.68-2.924 1.812-5.14 1.909-2.828.097-4.69-.712-6.65-1.586-2.057-.873-4.209-1.844-7.422-1.682-2.987.097-5.525 1.812-6.778 2.815a1.078 1.078 0 00-.16 1.488c.385.485 1.027.55 1.477.194 1.06-.873 3.148-2.297 5.526-2.394 2.73-.097 4.562.68 6.49 1.553 1.894.809 3.854 1.683 6.65 1.747.32 0 .61 0 .963-.032 2.73-.097 5.076-1.488 6.232-2.265a1.087 1.087 0 00.257-1.488c-.321-.486-.964-.583-1.445-.26z" vector-effect="non-scaling-stroke"/><path fill="#EA5F00" stroke="none" d="M28.597 30.662c1.253.518 2.41 1.003 3.79 1.262 3.856-1.747 6.522-5.662 6.522-10.192 0-6.148-4.98-11.195-11.115-11.195-6.136 0-11.116 5.047-11.116 11.195 0 2.815 1.028 5.404 2.731 7.377.353-.064.707-.097 1.06-.13 3.534-.193 5.976.81 8.128 1.683zm.771-7.539a2.288 2.288 0 00-.707-.485c-.257-.13-.578-.259-.9-.388a7.959 7.959 0 01-.93-.356c-.676-.227-1.19-.615-1.64-1.133-.45-.517-.674-1.197-.642-1.973 0-.518.097-.971.321-1.36.193-.42.45-.711.804-.97a3.385 3.385 0 011.124-.582c.418-.13.867-.195 1.35-.195.738 0 1.348.162 1.895.421.514.259 1.028.55 1.477.938l-1.092 1.586a6.169 6.169 0 00-.996-.583 3.953 3.953 0 00-1.317-.29c-.385 0-.739.064-1.028.226-.321.194-.482.453-.482.776 0 .227.064.389.16.55.097.162.258.324.45.421.193.13.386.194.611.291.193.097.418.162.61.227.386.161.803.323 1.189.517.418.227.771.453 1.092.745.322.29.579.647.771 1.035.193.388.29.841.257 1.391 0 .518-.096.971-.321 1.36-.193.42-.482.743-.835 1.035a3.343 3.343 0 01-1.221.614 5.51 5.51 0 01-1.51.195c-.514 0-.964-.097-1.413-.227a5.133 5.133 0 01-1.125-.485 5.063 5.063 0 01-.867-.583c-.257-.161-.418-.323-.546-.42l1.156-1.618c.354.356.803.647 1.317.873a3.43 3.43 0 001.574.389c.482 0 .868-.097 1.19-.324.352-.194.513-.485.513-.906.032-.291-.096-.517-.289-.712zM14.33 42.755a2.795 2.795 0 00-.614-.43c-.242-.132-.484-.226-.725-.32a4.193 4.193 0 01-.354-.13 1.516 1.516 0 01-.353-.169 1.583 1.583 0 01-.26-.244.584.584 0 01-.093-.318c.018-.206.093-.356.279-.45a.964.964 0 01.613-.13c.298.018.558.074.763.168.204.094.41.206.576.337l.651-.918a3.88 3.88 0 00-.874-.562c-.297-.15-.67-.225-1.097-.225a2.135 2.135 0 00-.781.094c-.26.094-.484.187-.67.337-.204.15-.353.337-.465.562-.13.225-.186.506-.186.806-.018.45.112.843.372 1.142.26.3.577.525.949.675.167.075.353.13.558.206.186.056.372.131.54.206.148.075.297.168.408.28.093.132.168.263.15.432a.563.563 0 01-.299.524c-.186.131-.427.188-.688.188a2.339 2.339 0 01-.93-.225 2.515 2.515 0 01-.762-.525l-.67.937c.056.075.168.168.298.28.149.132.316.226.52.338.187.112.41.206.67.281.242.075.52.131.819.131.316 0 .613-.037.874-.112.279-.075.52-.206.725-.356.205-.169.372-.375.484-.6.111-.243.186-.505.186-.805 0-.319-.056-.58-.15-.806a1.629 1.629 0 00-.464-.599zm16.249-.243c.055-.057.111-.131.167-.206a1.06 1.06 0 00.167-.263c.056-.112.093-.224.13-.374.02-.131.038-.319.038-.525 0-.187-.037-.393-.112-.58-.056-.188-.167-.356-.297-.525a1.716 1.716 0 00-.484-.393 1.406 1.406 0 00-.632-.206 3.934 3.934 0 00-.503-.038c-.186 0-.372-.019-.595-.019l-1.748.019v6.631h2.417c.224 0 .391 0 .54-.018.242-.02.465-.075.688-.169a1.83 1.83 0 00.558-.375c.15-.168.28-.356.372-.58.093-.225.15-.487.15-.768 0-.431-.094-.787-.261-1.05a1.54 1.54 0 00-.595-.561zm-2.772-1.967h1.06c.15 0 .28.018.391.037.223.019.39.094.54.206.148.113.204.263.204.469.019.262-.056.45-.205.562-.13.093-.316.168-.539.206a2.479 2.479 0 01-.39.018h-1.061v-1.498zm2.27 4.046c-.168.15-.428.244-.782.262-.111 0-.242.019-.409.019-.186-.019-.353 0-.54 0h-.539v-1.723h1.023c.168-.02.298-.02.41 0 .353.018.613.093.8.243a.705.705 0 01.297.6c-.019.243-.093.45-.26.599zm-9.783-2.124c-.13-.338-.297-.637-.54-.88a2.217 2.217 0 00-.799-.563 2.674 2.674 0 00-.948-.187c-.41 0-.782.075-1.098.206a2.136 2.136 0 00-.818.562 2.599 2.599 0 00-.484.824 2.85 2.85 0 00-.167.993c0 .393.074.73.204 1.068.15.318.335.58.558.824.242.225.521.393.819.524.297.132.632.188.967.188.316 0 .595-.019.837-.075.223-.056.446-.113.632-.188.168-.074.335-.168.484-.28.149-.094.279-.207.409-.3l-.577-.824c-.074.056-.167.13-.26.187a1.92 1.92 0 01-.39.206 3.26 3.26 0 01-.503.131c-.186.037-.39.056-.613.037a1.38 1.38 0 01-.372-.056 1.338 1.338 0 01-.372-.168h-.019a1.485 1.485 0 01-.316-.281 1.239 1.239 0 01-.205-.45l-.018-.037h3.757v-.281c.018-.45-.038-.843-.168-1.18zm-3.627.468v-.038c.019-.15.056-.206.112-.318.019 0 .019-.019.037-.056a.815.815 0 01.298-.319.95.95 0 01.39-.187c.15-.056.298-.075.465-.075.354 0 .651.112.875.3.111.093.185.187.26.28.074.113.111.226.149.375v.038h-2.586zm8.044-1.592l-.074-.057a1.912 1.912 0 00-.577-.318c-.223-.094-.483-.131-.78-.131a2.5 2.5 0 00-.93.187v.019c-.298.112-.54.28-.745.524a2.19 2.19 0 00-.502.825c-.13.318-.186.693-.186 1.086 0 .356.056.693.186.993.112.318.28.58.502.805.205.225.465.413.744.562.28.132.596.188.93.188.298 0 .558-.038.781-.113.224-.093.41-.206.577-.337l.074-.075v.525h1.154v-5.04H24.71v.357zm-.111 2.716a1.117 1.117 0 01-.298.45 1.325 1.325 0 01-.409.28 1.276 1.276 0 01-.465.075 1.27 1.27 0 01-.93-.374c-.26-.263-.372-.6-.372-1.03 0-.413.112-.769.372-1.03a1.17 1.17 0 01.93-.413c.168 0 .316.019.465.094.167.056.298.15.428.28.111.113.204.263.279.45.074.188.111.394.111.618 0 .225-.037.431-.111.6zm10.938-2.716l-.075-.057a1.711 1.711 0 00-.576-.318 1.916 1.916 0 00-.763-.131c-.335 0-.65.075-.948.187v.019c-.28.112-.521.28-.744.524a2.784 2.784 0 00-.502.825 3.321 3.321 0 00-.186 1.086c0 .356.074.693.186.993.13.318.297.58.502.805.223.225.465.413.762.562.28.132.595.188.93.188.298 0 .54-.038.763-.113.223-.093.428-.206.576-.337l.075-.075v.525h1.171v-5.02h-1.171v.337zm-.112 2.716a1.087 1.087 0 01-.279.45 1.325 1.325 0 01-.409.28 1.378 1.378 0 01-.484.075 1.3 1.3 0 01-.93-.374c-.241-.263-.372-.6-.372-1.03 0-.413.13-.769.372-1.03.26-.282.558-.413.93-.413.168 0 .335.019.484.094a.91.91 0 01.41.28c.11.113.222.263.278.45.075.188.112.394.112.618 0 .225-.037.431-.112.6zm9.708-.873l2.102-2.323h-1.525l-1.748 1.91v-3.446H42.79v6.706h1.172v-1.517l.39-.45 1.507 1.967h1.45zm-3.358-1.169c-.112-.319-.316-.58-.614-.806-.297-.224-.67-.337-1.116-.337a2.44 2.44 0 00-.725.113c-.223.056-.41.168-.595.3v-.282h-1.172v5.02h1.172v-2.678c.018-.187.037-.356.056-.525.018-.168.074-.318.148-.45a.976.976 0 01.317-.299c.13-.075.297-.131.52-.131.26 0 .465.056.614.206a.968.968 0 01.335.543v.019c.018.094.037.244.056.43.018.17.018.413.018.75v2.136h1.153v-2.417c0-.337 0-.618-.037-.862a2.52 2.52 0 00-.13-.73z" vector-effect="non-scaling-stroke"/></g></svg>