<svg viewBox="0 0 15 15"><g transform="translate(144.691 394.52) scale(1.28016)"><path fill="red" fill-rule="evenodd" d="M-111.217-298.478c-.166-.086-.296-.161-.29-.167.022-.021.811-.19 1.363-.29a38.608 38.608 0 014.025-.497c.582-.043 2.687-.044 3.052-.002l.24.027-.27.005c-.48.008-1.578.084-2.439.17-1.629.164-3.44.465-4.75.79-.268.067-.52.121-.56.121-.039 0-.206-.07-.371-.156zm2.277-1.64c-.024-.067.078-.098.123-.117.2-.086.342-.226.39-.386.022-.077.09-.51.152-.962.062-.453.117-.803.123-.824.005-.015.016-.069.081-.075h.46c.093-.008.074.094.067.16-.008.083-.03.244-.056.44l-.105.792c-.06.443-.092.58-.194.808-.121.272-.307.43-.643.542-.068.022-.263.088-.284.03-.044-.142-.076-.264-.114-.408zm3.864-.148c-.224-.09-.214-.44.022-.584.148-.09.358-.075.465.032.265.265-.125.698-.487.552zm-1.695-.21c-.659-.112-.654-.898-.507-1.347.185-.52.636-.67 1.006-.684.313-.01.746.048.855.115.03.018.016.199-.068.867-.059.463-.122.862-.142.886-.104.126-.803.226-1.144.164zm.575-.621c.071-.263.101-.501.152-.779-.007-.096-.168-.096-.21-.096-.213 0-.34.12-.407.387-.092.366.005.57.268.57.084-.008.171-.002.197-.082zm-4.817.41c.18-.44.904-2.017 1.077-2.343.033-.081.12-.097.179-.103.17-.008.317-.006.467-.005.154.001.156.055.176.17.024.114.325 1.908.393 2.339.009.071.026.093-.067.094-.13 0-.44.017-.545.009-.034-.005-.056-.027-.061-.052a1.875 1.875 0 01-.028-.208l-.02-.214h-.772l-.085.206a2.76 2.76 0 01-.087.194c-.018.044-.043.064-.081.072-.095 0-.43.012-.557 0-.062-.028-.006-.12.01-.16zm1.504-.91a22.8 22.8 0 00-.102-.802c-.005-.01-.007-.007-.012 0a8.422 8.422 0 00-.335.815c-.005.02.008.027.026.025.063-.005.32-.009.397-.012.022 0 .025-.009.026-.026zm4.463.29c.01-.078.032-.29.048-.47l.06-.63.028-.31c.009-.056.078-.063.124-.064.151.001.294-.008.43.005.064.007.091.021.092.06-.062.315-.283 1.402-.3 1.47-.014.057-.02.074-.109.08-.108-.003-.199.004-.309.002-.063 0-.08-.019-.064-.143zm-3.057-1.615a.43.43 0 01.279-.4c.133-.047.283-.046.363.045.142.164.049.407-.117.534-.212.146-.521.06-.525-.179zm3.798-.405l-.33-.72c-.136-.295-.24-.554-.23-.576.009-.023.159-.21.334-.416l.286-.336c.019-.022.04-.05.066-.05.172 0 .35.011.515.009.122-.001.184-.01.093.083a9.706 9.706 0 01-.304.348 8.657 8.657 0 00-.344.392c0 .007.142.319.316.693.136.294.249.557.286.667.017.037.002.07-.032.078-.046.01-.129.015-.27.015h-.214c-.052.006-.09-.003-.11-.048zm-6.37-.219c-.192-.095-.283-.216-.3-.398-.01-.109.17-1.576.248-2.042.02-.11.028-.116.133-.116h.207c.108 0 .207-.002.27 0 .084.002.069.056.062.12-.014.143-.06.452-.117.851-.101.708-.127.958-.103.997.028.045.1.052.578.06l.427.006c.101-.006.122.02.112.11-.025.152-.038.272-.063.408-.017.084-.072.062-.157.067l-.499.007c-.64.008-.643.008-.799-.07zm4.922.055a2.666 2.666 0 01.04-.382c.028-.197.087-.622.13-.943a63.84 63.84 0 01.184-1.29c.018-.123.018-.116.138-.116h.368c.17.006.149-.009.106.256-.016.1-.07.54-.12.911-.127.933-.21 1.504-.225 1.549-.014.041-.6.055-.621.015zm-3.254-.071c.08-.667.155-1.17.244-1.79.007-.075.08-.084.164-.084l.288.001c.18 0 .226.025.208.145-.08.582-.178 1.101-.28 1.693-.02.1-.043.098-.139.098-.111 0-.31.005-.41 0-.06-.01-.073-.017-.075-.064zm1.263-1.492c.049-.258.083-.298.154-.345.088-.058.738-.118.962-.089.031.005.061.01.09.017.657.156.555.9.512 1.243-.045.327-.09.625-.098.662-.016.064-.03.067-.327.067-.1 0-.153-.003-.21-.009-.092-.007-.1-.027-.09-.093.033-.274.078-.51.111-.765.046-.348.034-.692-.399-.618-.074.019-.094.025-.104.099-.054.344-.101.7-.15 1.036-.012.08-.027.164-.042.239-.005.019-.007.035-.01.048-.005.015-.015.03-.025.015-.07-.126-.396-.105-.532-.012-.069.047-.083.073-.055-.072l.014-.092c.068-.445.114-.881.198-1.331zm-.933-.763c-.074-.249.144-.495.387-.504.33-.022.421.432.084.638-.196.09-.401.07-.471-.134z"/><rect width="11.717" height="11.717" x="-113.026" y="-308.18" fill="none" paint-order="fill markers stroke" rx=".567" ry=".567"/></g></svg>