<?xml version="1.0" encoding="UTF-8"?>
<!DOCTYPE svg PUBLIC "-//W3C//DTD SVG 1.1//EN" "http://www.w3.org/Graphics/SVG/1.1/DTD/svg11.dtd">
<!-- Creator: CorelDRAW X7 -->
<svg xmlns="http://www.w3.org/2000/svg" xml:space="preserve" width="8.26667in" height="11.6933in" version="1.1" style="shape-rendering:geometricPrecision; text-rendering:geometricPrecision; image-rendering:optimizeQuality; fill-rule:evenodd; clip-rule:evenodd"
viewBox="0 0 8267 11691"
 xmlns:xlink="http://www.w3.org/1999/xlink">
 <defs>
  <style type="text/css">
   <![CDATA[
    .fil0 {fill:none}
    .fil1 {fill:#BF1E2E}
   ]]>
  </style>
 </defs>
 <g id="Layer_x0020_1">
  <metadata id="CorelCorpID_0Corel-Layer"/>
  <rect class="fil0" x="515" y="4832" width="7180" height="2194"/>
  <g id="_3010630167696">
   <path class="fil1" d="M3580 6199l-40 0c-58,0 -107,-80 -107,-140l0 -53c0,-59 50,-140 107,-140l47 0c161,0 161,333 -7,333zm-360 -187c0,119 21,195 86,275 70,86 148,112 261,112 90,0 104,-47 153,-80 9,102 207,128 207,-60l0 -473c0,-138 -178,-154 -207,-47 -64,-17 -13,-73 -213,-73 -125,0 -287,169 -287,346z"/>
   <path class="fil1" d="M4080 5466l0 826c0,109 136,129 184,65 18,-24 23,-44 23,-84 0,-72 0,-143 0,-214l212 267c46,58 51,66 128,66 38,0 134,-73 38,-191l-178 -222c20,-13 30,-28 48,-45 47,-43 194,-140 106,-236 -24,-27 -50,-26 -81,-26 -95,0 -166,162 -273,234 0,-48 4,-436 -3,-464 -25,-110 -204,-103 -204,24z"/>
   <path class="fil1" d="M6400 5859l60 0c48,0 96,54 99,100l-266 0c21,-39 50,-100 107,-100zm-327 167c0,214 158,373 340,373l73 0c100,0 273,-75 273,-167 0,-47 -35,-86 -93,-86 -89,0 -58,60 -233,60 -78,0 -110,-63 -133,-107 54,0 409,12 441,-12 98,-73 -34,-421 -275,-421 -128,0 -198,7 -298,115 -49,52 -95,145 -95,245z"/>
   <path class="fil1" d="M5620 5859l60 0c48,0 96,54 100,100l-267 0c21,-39 51,-100 107,-100zm-327 167c0,114 36,200 95,258 109,107 169,115 318,115 101,0 274,-75 274,-167 0,-47 -35,-86 -94,-86 -88,0 -58,60 -233,60 -78,0 -110,-63 -133,-107 54,0 409,12 441,-12 61,-46 36,-288 -155,-388 -72,-37 -115,-33 -193,-33 -160,0 -320,173 -320,360z"/>
   <path class="fil1" d="M2060 5539c0,136 89,113 234,113l0 654c0,40 46,93 86,93 87,0 134,-26 134,-140l0 -607c84,0 226,24 226,-93 0,-51 -38,-100 -86,-100l-500 0c-53,0 -94,45 -94,80z"/>
   <path class="fil1" d="M1594 6366l-500 0c-57,0 -107,-45 -107,-94l0 -506c0,-43 32,-74 72,-88 35,-13 35,5 35,-52l487 0c0,52 -2,41 31,49 44,10 89,37 89,91l0 493c0,60 -47,107 -107,107zm-587 -760c-50,13 -106,89 -106,153l0 520c0,48 31,98 58,122 29,26 76,51 128,51l520 0c44,0 102,-32 125,-55 27,-26 55,-79 55,-131l0 -494c0,-140 -120,-156 -120,-186l0 -47 -660 0 0 67z"/>
   <path class="fil1" d="M4893 5539l0 140c-88,0 -126,14 -126,107 0,74 75,80 126,80l0 433c0,41 42,93 87,93 58,0 120,-14 120,-100l0 -426c60,0 161,15 164,-94 3,-107 -113,-93 -164,-93 0,-144 23,-240 -120,-240 -48,0 -87,51 -87,100z"/>
   <path class="fil1" d="M6893 5759l0 540c0,41 42,93 86,93 179,0 103,-155 121,-393 12,-170 246,-89 246,-233 0,-73 -53,-100 -120,-100 -72,0 -84,53 -133,66 -27,-100 -200,-78 -200,27z"/>
   <path class="fil1" d="M2754 5759l0 540c0,41 42,93 86,93 44,0 76,3 106,-47 46,-78 -32,-369 51,-429 87,-63 210,-45 210,-150 0,-73 -53,-100 -120,-100 -72,0 -84,53 -133,66 -27,-100 -200,-78 -200,27z"/>
   <path class="fil1" d="M1107 5946c0,74 59,122 99,161 33,34 101,110 135,132 32,-22 98,-95 131,-128 46,-47 102,-84 102,-165 0,-64 -55,-120 -133,-120 -54,0 -71,26 -100,46 -123,-106 -234,-12 -234,74z"/>
   <path class="fil1" d="M1081 5519l520 0c78,0 108,-127 -27,-127l-467 0c-135,0 -99,127 -26,127z"/>
   <path class="fil1" d="M1101 5153c0,104 73,173 160,173 30,0 13,-17 13,-34 0,-85 58,-158 140,-159 -7,-84 -76,-126 -147,-127l-9 0c-78,2 -157,52 -157,147z"/>
   <path class="fil1" d="M1307 5279c0,97 9,87 100,87 54,0 107,0 160,0 12,-50 14,-19 14,-87 0,-65 -65,-126 -140,-126 -66,0 -134,61 -134,126z"/>
  </g>
 </g>
</svg>
