<svg viewBox="0 0 15 15"><g transform="translate(189 394.52) scale(1.28016)"><rect width="11.717" height="11.717" x="-147.637" y="-308.18" fill="none" paint-order="fill markers stroke" rx=".567" ry=".567"/><g fill-rule="evenodd"><path fill="#108de8" d="M-137.862-302.03c.11-1.216-.42-2.315-.989-2.955a3.873 3.873 0 00-4.34-1.068c-.537.211-1.105.592-1.47 1.014-.237.275-.436.526-.606.875-.505 1.034-.594 2.177-.184 3.268.199.528.404.827.742 1.24.268.327.722.674 1.105.877a3.89 3.89 0 003.245.188c.52-.206.87-.462 1.218-.766.079-.069.18-.173.248-.252.614-.705.94-1.42 1.031-2.421z"/><path fill="#fff" d="M-144.047-303.492c.167-.008.512.532 1.667.166.264-.084.513-.189.766-.283.566-.211 1.098-.425 1.696-.193.11.043.263.122.34.188.123.104.094.232.094.429v1.578c0 .093.019.437-.026.495-.048.004-.237-.112-.352-.159-.43-.175-.901-.113-1.321.006-.78.221-1.643.724-2.478.417-.477-.175-.413-.255-.413-.615v-1.549c0-.124-.023-.394.027-.48z"/></g></g></svg>