<svg fill="none" viewBox="0 0 120 39"><path fill="#FDAF27" d="M20.551.078c-1.661-.341-3.39.459-4.264 1.973a4.252 4.252 0 00-.45 1.14c-.386-1.543-1.599-2.796-3.14-3.113-1.662-.341-3.392.459-4.266 1.973a4.252 4.252 0 00-.45 1.14C7.594 1.65 6.381.396 4.841.079 3.178-.263 1.448.537.573 2.051c-.878 1.52-.738 3.513.343 4.883 1.08 1.368 2.91 1.9 4.51 1.298C6.7 7.752 7.65 6.62 7.981 5.28c.143.597.406 1.165.792 1.654 1.08 1.368 2.91 1.9 4.509 1.298 1.274-.48 2.225-1.612 2.556-2.952.143.597.405 1.165.791 1.654 1.08 1.368 2.91 1.9 4.51 1.298 1.592-.6 2.684-2.223 2.684-3.993 0-1.998-1.393-3.774-3.272-4.161zM7.59 20.679c.413 1.846 1.465 3.568 3.307 4.095 1.75.5 3.7-.311 4.6-1.966.541-.994.473-2.118.468-3.217-.003-.742-.007-1.481-.006-2.222 0-.816 0-1.632.005-2.446.004-1.044-.025-2.058.474-3.006.688-1.31 2.056-2.117 3.485-2.058 1.443.06 2.758 1.006 3.332 2.392.381.92.316 1.918.319 2.898.003.807.003 1.617.003 2.425 0 1.745.105 3.566-.22 5.284-.752 3.979-3.39 7.442-6.965 9.037-3.575 1.595-7.81 1.168-11.032-1.102A11.666 11.666 0 011.6 26.34C.747 24.569.23 22.359.557 20.378c.244-1.476 1.36-2.682 2.765-2.984 1.46-.313 2.988.392 3.749 1.73.276.484.396 1.011.518 1.555z"/><path fill="#000" d="M120 20.405c0 5.405-4.239 9.72-9.591 9.72-5.315 0-9.482-4.278-9.482-9.72 0-5.442 4.167-9.684 9.517-9.684 5.319 0 9.556 4.278 9.556 9.684zm-14.151.036c0 2.928 1.939 5.03 4.597 5.03 2.623 0 4.597-2.14 4.597-5.03 0-2.928-1.976-5.104-4.597-5.104-2.658 0-4.597 2.14-4.597 5.104zM43.282 24.06c.903.54 1.77 1.095 2.851 1.028 1.036-.063 1.982-.63 2.571-1.52.549-.827.536-1.771.536-2.728V7.356c0-.557-.028-1.107.177-1.64.609-1.575 2.581-2.083 3.82-.98.664.59.853 1.402.853 2.266 0 1.741.048 13.793-.013 14.988a8.98 8.98 0 01-2.522 5.752 8.065 8.065 0 01-5.753 2.418c-2.046-.001-4.207-.822-5.546-2.491-.538-.672-.85-1.465-.64-2.344.204-.848.858-1.526 1.674-1.726.741-.177 1.364.083 1.992.46zm33.6 1.555l.004-.002a2.668 2.668 0 01-1.218-2.218v-10.14c0-1.4-1.086-2.533-2.426-2.533-1.227 0-2.237.953-2.4 2.189-1.223-1.38-3.076-2.189-5.3-2.189-4.992 0-8.62 4.092-8.62 9.72 0 5.632 3.628 9.721 8.62 9.721l.069-.001.068.001c2.395 0 4.473-.942 5.988-2.544.775 1.259 2.025 2.18 3.52 2.463.145.027.29.042.434.042.009 0 .018-.002.025-.003l.034.001c1.285 0 2.325-1.087 2.325-2.43a2.444 2.444 0 00-1.122-2.077zm-10.44-.068c-2.695 0-4.598-2.14-4.598-5.104 0-2.966 1.94-5.142 4.598-5.142 2.657 0 4.489 2.101 4.489 5.142 0 3.039-1.797 5.104-4.49 5.104zm31.84-12.274c0-1.463-1.004-2.552-2.37-2.552-1.257 0-2.263.976-2.37 2.326-1.222-1.463-3.126-2.326-5.424-2.326-4.992 0-8.62 4.091-8.62 9.72 0 5.63 3.628 9.72 8.62 9.72 2.242 0 4.095-.81 5.316-2.248v.603c-.017 3.03-1.817 5.061-4.49 5.061-1.145 0-2.175-.38-2.976-1.1a4.483 4.483 0 01-.787-.933c-.741-1.165-2.246-1.48-3.361-.706-1.115.774-1.417 2.347-.676 3.512a9.53 9.53 0 001.666 1.971c1.694 1.52 3.815 2.323 6.136 2.323 5.35 0 9.247-4.183 9.334-9.974l.004-1.097V13.272h-.001zm-9.265 12.274c-2.694 0-4.597-2.14-4.597-5.104 0-2.965 1.94-5.142 4.597-5.142 2.658 0 4.49 2.101 4.49 5.142 0 3.039-1.797 5.104-4.49 5.104z"/></svg>