<?xml version="1.0" encoding="UTF-8"?>
<!DOCTYPE svg PUBLIC "-//W3C//DTD SVG 1.1//EN" "http://www.w3.org/Graphics/SVG/1.1/DTD/svg11.dtd">
<!-- Creator: CorelDRAW X7 -->
<svg xmlns="http://www.w3.org/2000/svg" xml:space="preserve" width="154px" height="57px" version="1.1" style="shape-rendering:geometricPrecision; text-rendering:geometricPrecision; image-rendering:optimizeQuality; fill-rule:evenodd; clip-rule:evenodd"
viewBox="0 0 154 57"
 xmlns:xlink="http://www.w3.org/1999/xlink">
 <defs>
  <style type="text/css">
   <![CDATA[
    .fil0 {fill:#00A2E9}
   ]]>
  </style>
 </defs>
 <g id="Layer_x0020_1">
  <metadata id="CorelCorpID_0Corel-Layer"/>
  <g id="_2048649051680">
   <polygon class="fil0" points="148,35 148,30 148,20 133,20 123,20 123,15 148,15 148,6 123,6 109,6 109,15 109,20 109,30 123,30 133,30 133,35 109,35 109,45 133,45 148,45 "/>
   <polygon class="fil0" points="94,45 104,45 104,6 94,6 "/>
   <polygon class="fil0" points="50,6 50,15 79,15 79,20 60,20 50,20 50,30 50,45 60,45 60,30 74,45 89,45 74,30 79,30 89,30 89,20 89,15 89,6 79,6 "/>
   <path class="fil0" d="M23 23l5 0 0 5 -5 0 0 -5zm-2 7l9 0 0 -10 -9 0 0 10z"/>
   <path class="fil0" d="M16 6l-9 0c0,0 0,0 -1,0 0,0 0,0 0,1l0 36c0,1 0,1 0,1 1,0 1,1 1,1l23 0 0 -10 -14 0 0 -29z"/>
   <path class="fil0" d="M44 6l-23 0 0 9 14 0 0 15 10 0 0 -23c0,-1 0,-1 0,-1 -1,0 -1,0 -1,0z"/>
   <polygon class="fil0" points="35,57 45,57 45,35 35,35 "/>
   <path class="fil0" d="M20 0l-19 0c0,0 0,0 -1,0 0,1 0,1 0,1l0 19 2 0 0 -16c0,-1 1,-1 1,-1 0,0 0,-1 1,-1l16 0 0 -2z"/>
   <path class="fil0" d="M152 32l0 16c0,0 -1,0 -1,1 0,0 0,0 -1,0l-16 0 0 2 19 0c0,0 0,0 1,0 0,0 0,-1 0,-1l0 -18 -2 0z"/>
  </g>
 </g>
</svg>
