<?xml version="1.0" encoding="UTF-8" standalone="no" ?>
<!DOCTYPE svg PUBLIC "-//W3C//DTD SVG 1.1//EN" "http://www.w3.org/Graphics/SVG/1.1/DTD/svg11.dtd">
<svg xmlns="http://www.w3.org/2000/svg" xmlns:xlink="http://www.w3.org/1999/xlink" version="1.1" width="700" height="700" viewBox="0 0 700 700" xml:space="preserve">
<desc>Created with Fabric.js 5.2.4</desc>
<defs>
</defs>
<rect x="0" y="0" width="100%" height="100%" fill="transparent"></rect>
<g transform="matrix(0 0 0 0 0 0)" id="4b00f375-9d5c-41b7-85ce-2d427d634843"  >
</g>
<g transform="matrix(1 0 0 1 350 350)" id="b8d1f5b7-92a9-4c99-8a23-a84b4b942f39"  >
<rect style="stroke: none; stroke-width: 1; stroke-dasharray: none; stroke-linecap: butt; stroke-dashoffset: 0; stroke-linejoin: miter; stroke-miterlimit: 4; fill: rgb(255,255,255); fill-rule: nonzero; opacity: 1; visibility: hidden;" vector-effect="non-scaling-stroke"  x="-350" y="-350" rx="0" ry="0" width="700" height="700" />
</g>
<g transform="matrix(0.38 0 0 0.38 337.75 268.33)"  >
<path style="stroke: none; stroke-width: 1; stroke-dasharray: none; stroke-linecap: butt; stroke-dashoffset: 0; stroke-linejoin: miter; stroke-miterlimit: 4; fill: rgb(234,95,0); fill-rule: nonzero; opacity: 1;" vector-effect="non-scaling-stroke"  transform=" translate(-441, -1402.5)" d="M 441 1023 C 198 1023 1 1220 1 1462 C 1 1559 32 1648 85 1721 C 103 1712 123 1704 143 1698 C 92 1633 62 1552 62 1463 C 62 1254 231 1084 440 1084 C 649 1084 819 1254 819 1463 C 819 1597 749 1715 643 1782 C 653 1782 664 1782 674 1781 C 709 1780 741 1764 769 1751 C 838 1674 881 1576 881 1463 C 881 1220 684 1023 441 1023 z" stroke-linecap="round" />
</g>
<g transform="matrix(0.38 0 0 0.38 333.35 452.48)"  >
<path style="stroke: none; stroke-width: 1; stroke-dasharray: none; stroke-linecap: butt; stroke-dashoffset: 0; stroke-linejoin: miter; stroke-miterlimit: 4; fill: rgb(38,115,221); fill-rule: nonzero; opacity: 1;" vector-effect="non-scaling-stroke"  transform=" translate(-430.36, -1894.78)" d="M 720 1900 C 695 1908 671 1913 647 1913 C 549 1917 479 1888 411 1859 C 350 1833 294 1809 224 1813 C 158 1818 112 1854 110 1856 C 97 1867 95 1887 106 1900 C 116 1914 136 1916 150 1905 C 151 1905 183 1879 229 1876 C 282 1873 331 1893 386 1917 C 450 1944 520 1974 615 1977 C 626 1977 638 1977 650 1977 C 679 1976 710 1970 740 1959 C 757 1954 766 1936 760 1919 C 754 1903 736 1894 720 1900 z" stroke-linecap="round" />
</g>
<g transform="matrix(0.38 0 0 0.38 335.82 416.53)"  >
<path style="stroke: none; stroke-width: 1; stroke-dasharray: none; stroke-linecap: butt; stroke-dashoffset: 0; stroke-linejoin: miter; stroke-miterlimit: 4; fill: rgb(38,115,221); fill-rule: nonzero; opacity: 1;" vector-effect="non-scaling-stroke"  transform=" translate(-435.88, -1799.22)" d="M 821 1758 C 791 1779 730 1814 661 1817 C 573 1820 515 1795 454 1768 C 390 1741 323 1711 223 1716 C 130 1719 51 1772 12 1803 C -2 1815 -4 1835 7 1849 C 19 1864 39 1866 53 1855 C 86 1828 151 1784 225 1781 C 310 1778 367 1802 427 1829 C 486 1854 547 1881 634 1883 C 644 1883 653 1883 664 1882 C 749 1879 822 1836 858 1812 C 873 1801 876 1781 866 1766 C 856 1751 836 1748 821 1758 z" stroke-linecap="round" />
</g>
<g transform="matrix(0.38 0 0 0.38 337.41 283.95)"  >
<path style="stroke: none; stroke-width: 1; stroke-dasharray: none; stroke-linecap: butt; stroke-dashoffset: 0; stroke-linejoin: miter; stroke-miterlimit: 4; fill: rgb(234,95,0); fill-rule: nonzero; opacity: 1;" vector-effect="non-scaling-stroke"  transform=" translate(-441, -1444.5)" d="M 466 1736 L 466 1736 C 505 1752 541 1767 584 1775 C 704 1721 787 1600 787 1460 C 787 1270 632 1114 441 1114 C 250 1114 95 1270 95 1460 C 95 1547 127 1627 180 1688 C 191 1686 202 1685 213 1684 C 323 1678 399 1709 466 1736 z M 490 1503 C 484 1497 477 1492 468 1488 C 460 1484 450 1480 440 1476 C 430 1473 420 1469 411 1465 C 390 1458 374 1446 360 1430 C 346 1414 339 1393 340 1369 C 340 1353 343 1339 350 1327 C 356 1314 364 1305 375 1297 C 385 1289 397 1283 410 1279 C 423 1275 437 1273 452 1273 L 452 1273 C 475 1273 494 1278 511 1286 C 527 1294 543 1303 557 1315 L 523 1364 C 513 1357 503 1351 492 1346 C 480 1341 467 1338 451 1337 C 439 1337 428 1339 419 1344 C 409 1350 404 1358 404 1368 C 404 1375 406 1380 409 1385 C 412 1390 417 1395 423 1398 C 429 1402 435 1404 442 1407 C 448 1410 455 1412 461 1414 C 473 1419 486 1424 498 1430 C 511 1437 522 1444 532 1453 C 542 1462 550 1473 556 1485 C 562 1497 565 1511 564 1528 C 564 1544 561 1558 554 1570 C 548 1583 539 1593 528 1602 C 518 1610 505 1617 490 1621 C 476 1625 460 1627 443 1627 C 427 1627 413 1624 399 1620 C 386 1616 374 1611 364 1605 C 353 1599 344 1593 337 1587 C 329 1582 324 1577 320 1574 L 356 1524 C 367 1535 381 1544 397 1551 C 413 1559 429 1563 446 1563 C 461 1563 473 1560 483 1553 C 494 1547 499 1538 499 1525 C 500 1516 496 1509 490 1503 z" stroke-linecap="round" />
</g>
<g transform="matrix(0.22 0 0 0.22 158.35 536.05)"  >
<path style="stroke: none; stroke-width: 1; stroke-dasharray: none; stroke-linecap: butt; stroke-dashoffset: 0; stroke-linejoin: miter; stroke-miterlimit: 4; fill: rgb(234,95,0); fill-rule: nonzero; opacity: 1;" vector-effect="non-scaling-stroke"  transform=" translate(-1128, -1455.87)" d="M 1218 1459 C 1208 1450 1197 1442 1185 1436 C 1172 1429 1159 1424 1146 1419 C 1140 1417 1134 1415 1127 1412 C 1121 1410 1114 1407 1108 1403 C 1103 1399 1098 1395 1094 1390 C 1091 1385 1089 1380 1089 1373 C 1090 1362 1094 1354 1104 1349 C 1114 1343 1124 1341 1137 1342 C 1153 1343 1167 1346 1178 1351 C 1189 1356 1200 1362 1209 1369 L 1244 1320 C 1230 1308 1214 1298 1197 1290 C 1181 1282 1161 1278 1138 1278 L 1138 1278 C 1123 1277 1109 1279 1096 1283 C 1082 1288 1070 1293 1060 1301 C 1049 1309 1041 1319 1035 1331 C 1028 1343 1025 1358 1025 1374 C 1024 1398 1031 1419 1045 1435 C 1059 1451 1076 1463 1096 1471 C 1105 1475 1115 1478 1126 1482 C 1136 1485 1146 1489 1155 1493 C 1163 1497 1171 1502 1177 1508 C 1182 1515 1186 1522 1185 1531 C 1185 1543 1180 1553 1169 1559 C 1159 1566 1146 1569 1132 1569 C 1115 1568 1098 1565 1082 1557 C 1066 1550 1052 1540 1041 1529 L 1005 1579 C 1008 1583 1014 1588 1021 1594 C 1029 1601 1038 1606 1049 1612 C 1059 1618 1071 1623 1085 1627 C 1098 1631 1113 1634 1129 1634 C 1146 1634 1162 1632 1176 1628 C 1191 1624 1204 1617 1215 1609 C 1226 1600 1235 1589 1241 1577 C 1247 1564 1251 1550 1251 1534 C 1251 1517 1248 1503 1243 1491 C 1237 1478 1229 1468 1218 1459 z" stroke-linecap="round" />
</g>
<g transform="matrix(0.22 0 0 0.22 352.53 536.19)"  >
<path style="stroke: none; stroke-width: 1; stroke-dasharray: none; stroke-linecap: butt; stroke-dashoffset: 0; stroke-linejoin: miter; stroke-miterlimit: 4; fill: rgb(234,95,0); fill-rule: nonzero; opacity: 1;" vector-effect="non-scaling-stroke"  transform=" translate(-2015, -1456.5)" d="M 2096 1446 C 2099 1443 2102 1439 2105 1435 C 2108 1432 2111 1427 2114 1421 C 2117 1415 2119 1409 2121 1401 C 2122 1394 2123 1384 2123 1373 C 2123 1363 2121 1352 2117 1342 C 2114 1332 2108 1323 2101 1314 C 2094 1306 2086 1299 2075 1293 C 2065 1287 2054 1283 2041 1282 C 2033 1281 2024 1280 2014 1280 C 2004 1280 1994 1279 1982 1279 L 1888 1280 L 1888 1634 L 1983 1634 C 1995 1634 2006 1634 2018 1634 C 2030 1634 2039 1634 2047 1633 C 2060 1632 2072 1629 2084 1624 C 2095 1619 2105 1613 2114 1604 C 2122 1595 2129 1585 2134 1573 C 2139 1561 2142 1547 2142 1532 C 2142 1509 2137 1490 2128 1476 C 2119 1462 2108 1452 2096 1446 z M 1947 1341 L 1977 1341 C 1987 1341 1996 1341 2004 1341 C 2012 1341 2019 1342 2025 1343 C 2037 1344 2046 1348 2054 1354 C 2062 1360 2065 1368 2065 1379 C 2066 1393 2062 1403 2054 1409 C 2047 1414 2037 1418 2025 1420 C 2019 1421 2012 1421 2004 1421 C 1997 1421 1988 1421 1977 1421 L 1947 1421 L 1947 1341 z M 2069 1557 C 2060 1565 2046 1570 2027 1571 C 2021 1571 2014 1572 2005 1572 C 1995 1571 1986 1572 1976 1572 L 1947 1572 L 1947 1480 L 1976 1480 C 1986 1480 1994 1480 2002 1480 C 2011 1479 2018 1479 2024 1480 C 2043 1481 2057 1485 2067 1493 C 2077 1500 2083 1511 2083 1525 C 2082 1538 2078 1549 2069 1557 z" stroke-linecap="round" />
</g>
<g transform="matrix(0.22 0 0 0.22 221 544.68)"  >
<path style="stroke: none; stroke-width: 1; stroke-dasharray: none; stroke-linecap: butt; stroke-dashoffset: 0; stroke-linejoin: miter; stroke-miterlimit: 4; fill: rgb(234,95,0); fill-rule: nonzero; opacity: 1;" vector-effect="non-scaling-stroke"  transform=" translate(-1414.09, -1495.5)" d="M 1540 1444 C 1533 1426 1524 1410 1511 1397 C 1499 1384 1485 1374 1468 1367 C 1452 1361 1435 1357 1417 1357 C 1395 1357 1375 1361 1358 1368 C 1340 1375 1326 1385 1314 1398 C 1303 1411 1294 1425 1288 1442 C 1282 1458 1279 1476 1279 1495 C 1279 1516 1283 1534 1290 1552 C 1298 1569 1308 1583 1320 1596 C 1333 1608 1348 1617 1364 1624 C 1380 1631 1398 1634 1416 1634 C 1433 1634 1448 1633 1461 1630 L 1461 1630 C 1473 1627 1485 1624 1495 1620 C 1504 1616 1513 1611 1521 1605 L 1521 1605 C 1529 1600 1536 1594 1543 1589 L 1512 1545 C 1508 1548 1503 1552 1498 1555 L 1498 1555 L 1498 1555 C 1492 1559 1485 1563 1477 1566 L 1477 1566 C 1469 1569 1460 1571 1450 1573 L 1450 1573 C 1440 1575 1429 1576 1417 1575 L 1417 1575 C 1411 1575 1404 1574 1397 1572 L 1397 1572 L 1397 1572 C 1390 1570 1383 1567 1377 1563 L 1376 1563 L 1376 1563 C 1370 1559 1364 1554 1359 1548 C 1354 1541 1350 1533 1348 1524 L 1347 1522 L 1549 1522 L 1549 1507 C 1550 1483 1547 1462 1540 1444 L 1540 1444 z M 1345 1469 L 1345 1467 C 1346 1459 1348 1456 1351 1450 L 1351 1450 C 1352 1450 1352 1449 1353 1447 L 1353 1447 L 1353 1447 C 1357 1440 1362 1434 1369 1430 C 1375 1425 1382 1422 1390 1420 C 1398 1417 1406 1416 1415 1416 L 1415 1416 C 1434 1416 1450 1422 1462 1432 C 1468 1437 1472 1442 1476 1447 C 1480 1453 1482 1459 1484 1467 L 1484 1469 L 1345 1469 z" stroke-linecap="round" />
</g>
<g transform="matrix(0.22 0 0 0.22 285.33 544.68)"  >
<path style="stroke: none; stroke-width: 1; stroke-dasharray: none; stroke-linecap: butt; stroke-dashoffset: 0; stroke-linejoin: miter; stroke-miterlimit: 4; fill: rgb(234,95,0); fill-rule: nonzero; opacity: 1;" vector-effect="non-scaling-stroke"  transform=" translate(-1708, -1495.5)" d="M 1779 1384 L 1775 1381 C 1766 1374 1756 1368 1744 1364 L 1744 1364 L 1744 1364 C 1732 1359 1718 1357 1702 1357 C 1684 1357 1667 1361 1652 1367 L 1652 1368 C 1636 1374 1623 1383 1612 1396 C 1600 1408 1591 1423 1585 1440 L 1585 1440 C 1578 1457 1575 1477 1575 1498 C 1575 1517 1578 1535 1585 1551 C 1591 1568 1600 1582 1612 1594 C 1623 1606 1637 1616 1652 1624 C 1667 1631 1684 1634 1702 1634 C 1718 1634 1732 1632 1744 1628 C 1756 1623 1766 1617 1775 1610 L 1779 1606 L 1779 1634 L 1841 1634 L 1841 1365 L 1779 1365 L 1779 1384 z M 1773 1529 C 1769 1539 1764 1547 1757 1553 C 1751 1559 1744 1564 1735 1568 L 1735 1568 C 1727 1571 1719 1572 1710 1572 C 1690 1572 1673 1565 1660 1552 L 1660 1552 C 1646 1538 1640 1520 1640 1497 C 1640 1475 1646 1456 1660 1442 C 1673 1427 1690 1420 1710 1420 C 1719 1420 1727 1421 1735 1425 C 1744 1428 1751 1433 1758 1440 C 1764 1446 1769 1454 1773 1464 C 1777 1474 1779 1485 1779 1497 C 1779 1509 1777 1520 1773 1529 z" stroke-linecap="round" />
</g>
<g transform="matrix(0.22 0 0 0.22 413.5 544.68)"  >
<path style="stroke: none; stroke-width: 1; stroke-dasharray: none; stroke-linecap: butt; stroke-dashoffset: 0; stroke-linejoin: miter; stroke-miterlimit: 4; fill: rgb(234,95,0); fill-rule: nonzero; opacity: 1;" vector-effect="non-scaling-stroke"  transform=" translate(-2293.5, -1495.5)" d="M 2364 1384 L 2360 1381 C 2352 1374 2341 1368 2329 1364 L 2329 1364 L 2329 1364 C 2317 1359 2304 1357 2288 1357 C 2270 1357 2253 1361 2237 1367 L 2237 1368 C 2222 1374 2209 1383 2197 1396 C 2186 1408 2177 1423 2170 1440 L 2170 1440 C 2164 1457 2160 1477 2160 1498 C 2160 1517 2164 1535 2170 1551 C 2177 1568 2186 1582 2197 1594 C 2209 1606 2222 1616 2238 1624 C 2253 1631 2270 1634 2288 1634 C 2304 1634 2317 1632 2329 1628 C 2341 1623 2352 1617 2360 1610 L 2364 1606 L 2364 1634 L 2427 1634 L 2427 1366 L 2364 1366 L 2364 1384 z M 2358 1529 C 2355 1539 2349 1547 2343 1553 C 2337 1559 2330 1564 2321 1568 L 2321 1568 C 2313 1571 2304 1572 2295 1572 C 2275 1572 2259 1565 2245 1552 L 2245 1552 C 2232 1538 2225 1520 2225 1497 C 2225 1475 2232 1456 2245 1442 C 2259 1427 2275 1420 2295 1420 C 2304 1420 2313 1421 2321 1425 C 2330 1428 2337 1433 2343 1440 C 2349 1446 2355 1454 2358 1464 C 2362 1474 2364 1485 2364 1497 C 2364 1509 2362 1520 2358 1529 z" stroke-linecap="round" />
</g>
<g transform="matrix(0.22 0 0 0.22 541.54 535.86)"  >
<polygon style="stroke: none; stroke-width: 1; stroke-dasharray: none; stroke-linecap: butt; stroke-dashoffset: 0; stroke-linejoin: miter; stroke-miterlimit: 4; fill: rgb(234,95,0); fill-rule: nonzero; opacity: 1;" vector-effect="non-scaling-stroke"  points="4.5,27 117.5,-97 35.5,-97 -58.5,5 -58.5,-179 -121.5,-179 -121.5,179 -58.5,179 -58.5,98 -37.5,74 43.5,179 121.5,179 " />
</g>
<g transform="matrix(0.22 0 0 0.22 478.82 544.9)"  >
<path style="stroke: none; stroke-width: 1; stroke-dasharray: none; stroke-linecap: butt; stroke-dashoffset: 0; stroke-linejoin: miter; stroke-miterlimit: 4; fill: rgb(234,95,0); fill-rule: nonzero; opacity: 1;" vector-effect="non-scaling-stroke"  transform=" translate(-2592, -1496.5)" d="M 2701 1420 L 2701 1420 C 2695 1403 2684 1389 2668 1377 C 2652 1365 2632 1359 2608 1359 C 2595 1359 2582 1361 2569 1365 C 2557 1368 2547 1374 2537 1381 L 2537 1366 L 2474 1366 L 2474 1634 L 2537 1634 L 2537 1491 C 2538 1481 2539 1472 2540 1463 L 2540 1463 C 2541 1454 2544 1446 2548 1439 C 2552 1433 2558 1427 2565 1423 L 2565 1423 L 2565 1423 C 2572 1419 2581 1416 2593 1416 C 2607 1416 2618 1419 2626 1427 L 2626 1427 C 2635 1434 2641 1444 2644 1456 L 2644 1457 C 2645 1462 2646 1470 2647 1480 L 2647 1480 C 2648 1489 2648 1502 2648 1520 L 2648 1634 L 2710 1634 L 2710 1505 C 2710 1487 2710 1472 2708 1459 C 2708 1446 2705 1433 2701 1420 z" stroke-linecap="round" />
</g>
</svg>