<svg viewBox="0 0 395 395" style="fill-rule:evenodd;clip-rule:evenodd;stroke-linejoin:round;stroke-miterlimit:2"><path fill="#fff" style="stroke-width:.39899" d="M0 0h395v395H0z"/><g transform="scale(.39899)" style="fill:#0060af;fill-opacity:1"><path d="M286.66 66.66H264V55.33c0-6.42 4.91-11.33 11.33-11.33h11.33z" style="fill:#0060af;fill-opacity:1"/><path d="M297.33 66.66H286V44h11.33c6.42 0 11.33 4.91 11.33 11.33s-4.91 11.33-11.33 11.33zm55.33 0H330V55.33c0-6.42 4.91-11.33 11.33-11.33s11.33 4.91 11.33 11.33z" style="fill:#0060af;fill-opacity:1"/><circle cx="3" cy="3" r="3" style="fill:#0060af;fill-opacity:1" transform="translate(374 44) scale(3.77667)"/><path d="M440.66 66.66H418V55.33c0-6.42 4.91-11.33 11.33-11.33s11.33 4.91 11.33 11.33zm88 0H506V55.33c0-6.42 4.91-11.33 11.33-11.33h11.33z" style="fill:#0060af;fill-opacity:1"/><path d="M539.33 66.66H528V44h11.33c6.42 0 11.33 4.91 11.33 11.33s-4.91 11.33-11.33 11.33zm77.33 0H594V55.33c0-6.42 4.91-11.33 11.33-11.33h11.33z" style="fill:#0060af;fill-opacity:1"/><path style="fill:#0060af;fill-opacity:1" d="M616 44h22.66v22.66H616z"/><path style="fill:#0060af;fill-opacity:1" d="M638 44h22.66v22.66H638z"/><path d="M671.33 66.66H660V44h11.33c6.42 0 11.33 4.91 11.33 11.33s-4.91 11.33-11.33 11.33zm77.33 0H726V55.33c0-6.42 4.91-11.33 11.33-11.33s11.33 4.91 11.33 11.33zm-473.33 22c-6.42 0-11.33-4.91-11.33-11.33V66h22.66v11.33c0 6.42-4.91 11.33-11.33 11.33zm55.33 0H308V77.33c0-6.42 4.91-11.33 11.33-11.33h11.33z" style="fill:#0060af;fill-opacity:1"/><path style="fill:#0060af;fill-opacity:1" d="M330 66h22.66v22.66H330z"/><path d="M374.66 88.66H352V66h11.33c6.42 0 11.33 4.91 11.33 11.33zM418 66h22.66v22.66H418zm88.66 22.66h-11.33c-6.42 0-11.33-4.91-11.33-11.33S488.91 66 495.33 66h11.33v22.66z" style="fill:#0060af;fill-opacity:1"/><path style="fill:#0060af;fill-opacity:1" d="M506 66h22.66v22.66H506zm66.66 22.66H550V77.33c0-6.42 4.91-11.33 11.33-11.33h11.33z"/><path style="fill:#0060af;fill-opacity:1" d="M572 66h22.66v22.66H572z"/><path style="fill:#0060af;fill-opacity:1" d="M594 66h22.66v22.66H594z"/><path style="fill:#0060af;fill-opacity:1" d="M616 66h22.66v22.66H616z"/><path d="M649.33 88.66H638V66h22.66v11.33c0 6.42-4.91 11.33-11.33 11.33zM726 66h22.66v22.66H726zm-483.34 44.66H220V99.33c0-6.42 4.91-11.33 11.33-11.33h11.33z" style="fill:#0060af;fill-opacity:1"/><path d="M264.66 110.66H242V88h11.33c6.42 0 11.33 4.91 11.33 11.33zm54.67 0c-6.42 0-11.33-4.91-11.33-11.33V88h22.66v11.33c0 6.42-4.91 11.33-11.33 11.33zM352 88h22.66v22.66H352zm66.66 22.66h-11.33c-6.42 0-11.33-4.91-11.33-11.33S400.91 88 407.33 88h11.33v22.66z" style="fill:#0060af;fill-opacity:1"/><path style="fill:#0060af;fill-opacity:1" d="M418 88h22.66v22.66H418z"/><path style="fill:#0060af;fill-opacity:1" d="M440 88h22.66v22.66H440z"/><path d="M473.33 110.66H462V88h11.33c6.42 0 11.33 4.91 11.33 11.33s-4.91 11.33-11.33 11.33zM506 88h22.66v22.66H506z" style="fill:#0060af;fill-opacity:1"/><path style="fill:#0060af;fill-opacity:1" d="M528 88h22.66v22.66H528z"/><path style="fill:#0060af;fill-opacity:1" d="M550 88h22.66v22.66H550z"/><path style="fill:#0060af;fill-opacity:1" d="M572 88h22.66v22.66H572z"/><path d="M605.33 110.66H594V88h22.66v11.33c0 6.42-4.91 11.33-11.33 11.33zm99.33 0h-11.33c-6.42 0-11.33-4.91-11.33-11.33S686.91 88 693.33 88h11.33v22.66z" style="fill:#0060af;fill-opacity:1"/><path style="fill:#0060af;fill-opacity:1" d="M704 88h22.66v22.66H704z"/><path d="M737.33 110.66H726V88h22.66v11.33c0 6.42-4.91 11.33-11.33 11.33zM220 110h22.66v22.66H220z" style="fill:#0060af;fill-opacity:1"/><path style="fill:#0060af;fill-opacity:1" d="M242 110h22.66v22.66H242z"/><path d="M286.66 132.66H264V110h11.33c6.42 0 11.33 4.91 11.33 11.33zm66 0h-11.33c-6.42 0-11.33-4.91-11.33-11.33S334.91 110 341.33 110h11.33v22.66z" style="fill:#0060af;fill-opacity:1"/><path style="fill:#0060af;fill-opacity:1" d="M352 110h22.66v22.66H352z"/><path d="M385.33 132.66H374V110h11.33c6.42 0 11.33 4.91 11.33 11.33s-4.91 11.33-11.33 11.33zm132 0c-6.42 0-11.33-4.91-11.33-11.33V110h22.66v11.33c0 6.42-4.91 11.33-11.33 11.33zM550 110h22.66v22.66H550zm88.66 22.66h-11.33c-6.42 0-11.33-4.91-11.33-11.33S620.91 110 627.33 110h11.33v22.66z" style="fill:#0060af;fill-opacity:1"/><path style="fill:#0060af;fill-opacity:1" d="M638 110h22.66v22.66H638z"/><path d="M682.66 132.66H660V110h11.33c6.42 0 11.33 4.91 11.33 11.33zm88 0H748v-11.33c0-6.42 4.91-11.33 11.33-11.33s11.33 4.91 11.33 11.33zM220 132h22.66v22.66H220zm44 0h22.66v22.66H264z" style="fill:#0060af;fill-opacity:1"/><path d="M297.33 154.66H286V132h11.33c6.42 0 11.33 4.91 11.33 11.33s-4.91 11.33-11.33 11.33zM352 132h22.66v22.66H352zm66.66 22.66H396v-11.33c0-6.42 4.91-11.33 11.33-11.33s11.33 4.91 11.33 11.33zm44 0H440v-11.33c0-6.42 4.91-11.33 11.33-11.33s11.33 4.91 11.33 11.33zm88 0h-11.33c-6.42 0-11.33-4.91-11.33-11.33S532.91 132 539.33 132h11.33v22.66z" style="fill:#0060af;fill-opacity:1"/><path style="fill:#0060af;fill-opacity:1" d="M550 132h22.66v22.66H550z"/><path style="fill:#0060af;fill-opacity:1" d="M572 132h22.66v22.66H572z"/><path d="M605.33 154.66H594V132h11.33c6.42 0 11.33 4.91 11.33 11.33s-4.91 11.33-11.33 11.33zm77.33 0h-11.33c-6.42 0-11.33-4.91-11.33-11.33V132h22.66z" style="fill:#0060af;fill-opacity:1"/><path style="fill:#0060af;fill-opacity:1" d="M682 132h22.66v22.66H682z"/><path d="M726.66 154.66H704V132h11.33c6.42 0 11.33 4.91 11.33 11.33zm32.67 0c-6.42 0-11.33-4.91-11.33-11.33V132h22.66v11.33c0 6.42-4.91 11.33-11.33 11.33zM220 154h22.66v22.66H220z" style="fill:#0060af;fill-opacity:1"/><path style="fill:#0060af;fill-opacity:1" d="M242 154h22.66v22.66H242z"/><path style="fill:#0060af;fill-opacity:1" d="M264 154h22.66v22.66H264zm88.66 22.66h-11.33c-6.42 0-11.33-4.91-11.33-11.33S334.91 154 341.33 154h11.33v22.66z"/><path style="fill:#0060af;fill-opacity:1" d="M352 154h22.66v22.66H352z"/><path style="fill:#0060af;fill-opacity:1" d="M374 154h22.66v22.66H374z"/><path style="fill:#0060af;fill-opacity:1" d="M396 154h22.66v22.66H396zm44 0h22.66v22.66H440z"/><circle cx="3" cy="3" r="3" style="fill:#0060af;fill-opacity:1" transform="translate(506 154) scale(3.77667)"/><path d="M572.66 176.66h-11.33c-6.42 0-11.33-4.91-11.33-11.33V154h22.66z" style="fill:#0060af;fill-opacity:1"/><path style="fill:#0060af;fill-opacity:1" d="M572 154h22.66v22.66H572zm132 0h22.66v22.66H704z"/><path d="M737.33 176.66H726V154h11.33c6.42 0 11.33 4.91 11.33 11.33s-4.91 11.33-11.33 11.33zM220 176h22.66v22.66H220zm55.33 22.66c-6.42 0-11.33-4.91-11.33-11.33V176h22.66v11.33c0 6.42-4.91 11.33-11.33 11.33zm55.33 0H308v-11.33c0-6.42 4.91-11.33 11.33-11.33s11.33 4.91 11.33 11.33zm32.67 0c-6.42 0-11.33-4.91-11.33-11.33V176h22.66v11.33c0 6.42-4.91 11.33-11.33 11.33zM396 176h22.66v22.66H396zm55.33 22.66c-6.42 0-11.33-4.91-11.33-11.33V176h22.66v11.33c0 6.42-4.91 11.33-11.33 11.33z" style="fill:#0060af;fill-opacity:1"/><circle cx="3" cy="3" r="3" style="fill:#0060af;fill-opacity:1" transform="translate(484 176) scale(3.77667)"/><path d="M550.66 198.66H528v-11.33c0-6.42 4.91-11.33 11.33-11.33s11.33 4.91 11.33 11.33zM572 176h22.66v22.66H572zm66.66 22.66H616v-11.33c0-6.42 4.91-11.33 11.33-11.33s11.33 4.91 11.33 11.33zm44 0H660v-11.33c0-6.42 4.91-11.33 11.33-11.33s11.33 4.91 11.33 11.33zM704 176h22.66v22.66H704zm66.66 22.66H748v-11.33c0-6.42 4.91-11.33 11.33-11.33s11.33 4.91 11.33 11.33zm-528 22h-11.33c-6.42 0-11.33-4.91-11.33-11.33V198h22.66z" style="fill:#0060af;fill-opacity:1"/><path d="M253.33 220.66H242V198h11.33c6.42 0 11.33 4.91 11.33 11.33s-4.91 11.33-11.33 11.33zm55.33 0h-11.33c-6.42 0-11.33-4.91-11.33-11.33S290.91 198 297.33 198h11.33v22.66z" style="fill:#0060af;fill-opacity:1"/><path d="M319.33 220.66H308V198h22.66v11.33c0 6.42-4.91 11.33-11.33 11.33zm77.33 0H374v-11.33c0-6.42 4.91-11.33 11.33-11.33h11.33z" style="fill:#0060af;fill-opacity:1"/><path d="M407.33 220.66H396V198h22.66v11.33c0 6.42-4.91 11.33-11.33 11.33zm121.33 0h-11.33c-6.42 0-11.33-4.91-11.33-11.33S510.91 198 517.33 198h11.33v22.66z" style="fill:#0060af;fill-opacity:1"/><path style="fill:#0060af;fill-opacity:1" d="M528 198h22.66v22.66H528zm44 0h22.66v22.66H572zm55.33 22.66c-6.42 0-11.33-4.91-11.33-11.33V198h22.66v11.33c0 6.42-4.91 11.33-11.33 11.33zm55.33 0h-11.33c-6.42 0-11.33-4.91-11.33-11.33V198h22.66z"/><path style="fill:#0060af;fill-opacity:1" d="M682 198h22.66v22.66H682z"/><path style="fill:#0060af;fill-opacity:1" d="M704 198h22.66v22.66H704zm55.33 22.66c-6.42 0-11.33-4.91-11.33-11.33V198h22.66v11.33c0 6.42-4.91 11.33-11.33 11.33z"/><circle cx="3" cy="3" r="3" style="fill:#0060af;fill-opacity:1" transform="translate(44 220) scale(3.77667)"/><path d="M110.66 242.66H88v-11.33c0-6.42 4.91-11.33 11.33-11.33h11.33z" style="fill:#0060af;fill-opacity:1"/><path style="fill:#0060af;fill-opacity:1" d="M110 220h22.66v22.66H110z"/><path style="fill:#0060af;fill-opacity:1" d="M132 220h22.66v22.66H132z"/><path style="fill:#0060af;fill-opacity:1" d="M154 220h22.66v22.66H154z"/><path d="M187.33 242.66H176V220h11.33c6.42 0 11.33 4.91 11.33 11.33s-4.91 11.33-11.33 11.33zm165.33 0H330v-11.33c0-6.42 4.91-11.33 11.33-11.33h11.33z" style="fill:#0060af;fill-opacity:1"/><path style="fill:#0060af;fill-opacity:1" d="M352 220h22.66v22.66H352z"/><path d="M385.33 242.66H374V220h22.66v11.33c0 6.42-4.91 11.33-11.33 11.33z" style="fill:#0060af;fill-opacity:1"/><circle cx="3" cy="3" r="3" style="fill:#0060af;fill-opacity:1" transform="translate(440 220) scale(3.77667)"/><path style="fill:#0060af;fill-opacity:1" d="M528 220h22.66v22.66H528z"/><path style="fill:#0060af;fill-opacity:1" d="M550 220h22.66v22.66H550z"/><path d="M583.33 242.66H572V220h22.66v11.33c0 6.42-4.91 11.33-11.33 11.33zm77.33 0H638v-11.33c0-6.42 4.91-11.33 11.33-11.33s11.33 4.91 11.33 11.33zm66 0h-11.33c-6.42 0-11.33-4.91-11.33-11.33V220h22.66z" style="fill:#0060af;fill-opacity:1"/><path d="M737.33 242.66H726V220h11.33c6.42 0 11.33 4.91 11.33 11.33s-4.91 11.33-11.33 11.33zm77.33 0H792v-11.33c0-6.42 4.91-11.33 11.33-11.33h11.33z" style="fill:#0060af;fill-opacity:1"/><path style="fill:#0060af;fill-opacity:1" d="M814 220h22.66v22.66H814z"/><path style="fill:#0060af;fill-opacity:1" d="M836 220h22.66v22.66H836z"/><path style="fill:#0060af;fill-opacity:1" d="M858 220h22.66v22.66H858z"/><path d="M902.66 242.66H880V220h11.33c6.42 0 11.33 4.91 11.33 11.33zM88 242h22.66v22.66H88zm176.66 22.66H242v-11.33c0-6.42 4.91-11.33 11.33-11.33s11.33 4.91 11.33 11.33zm44 0H286v-11.33c0-6.42 4.91-11.33 11.33-11.33s11.33 4.91 11.33 11.33zM330 242h22.66v22.66H330zm154.66 22.66H462v-11.33c0-6.42 4.91-11.33 11.33-11.33s11.33 4.91 11.33 11.33zm44 0H506v-11.33c0-6.42 4.91-11.33 11.33-11.33h11.33z" style="fill:#0060af;fill-opacity:1"/><path style="fill:#0060af;fill-opacity:1" d="M528 242h22.66v22.66H528zm132.66 22.66h-11.33c-6.42 0-11.33-4.91-11.33-11.33V242h22.66z"/><path style="fill:#0060af;fill-opacity:1" d="M660 242h22.66v22.66H660z"/><path d="M693.33 264.66H682V242h11.33c6.42 0 11.33 4.91 11.33 11.33s-4.91 11.33-11.33 11.33zm77.33 0H748v-11.33c0-6.42 4.91-11.33 11.33-11.33h11.33z" style="fill:#0060af;fill-opacity:1"/><path style="fill:#0060af;fill-opacity:1" d="M770 242h22.66v22.66H770z"/><path style="fill:#0060af;fill-opacity:1" d="M792 242h22.66v22.66H792zm44 0h22.66v22.66H836zm66.66 22.66h-11.33c-6.42 0-11.33-4.91-11.33-11.33V242h22.66z"/><path style="fill:#0060af;fill-opacity:1" d="M902 242h22.66v22.66H902z"/><path d="M935.33 264.66H924V242h11.33c6.42 0 11.33 4.91 11.33 11.33s-4.91 11.33-11.33 11.33zM88 264h22.66v22.66H88z" style="fill:#0060af;fill-opacity:1"/><path style="fill:#0060af;fill-opacity:1" d="M110 264h22.66v22.66H110z"/><path style="fill:#0060af;fill-opacity:1" d="M132 264h22.66v22.66H132z"/><path style="fill:#0060af;fill-opacity:1" d="M154 264h22.66v22.66H154z"/><path d="M187.33 286.66H176V264h11.33c6.42 0 11.33 4.91 11.33 11.33s-4.91 11.33-11.33 11.33zm55.33 0H220v-11.33c0-6.42 4.91-11.33 11.33-11.33h11.33z" style="fill:#0060af;fill-opacity:1"/><path d="M253.33 286.66H242V264h22.66v11.33c0 6.42-4.91 11.33-11.33 11.33zM286 264h22.66v22.66H286z" style="fill:#0060af;fill-opacity:1"/><path style="fill:#0060af;fill-opacity:1" d="M308 264h22.66v22.66H308z"/><path style="fill:#0060af;fill-opacity:1" d="M330 264h22.66v22.66H330z"/><circle cx="3" cy="3" r="3" style="fill:#0060af;fill-opacity:1" transform="translate(374 264) scale(3.77667)"/><circle cx="3" cy="3" r="3" style="fill:#0060af;fill-opacity:1" transform="translate(418 264) scale(3.77667)"/><path d="M484.66 286.66h-11.33c-6.42 0-11.33-4.91-11.33-11.33V264h22.66z" style="fill:#0060af;fill-opacity:1"/><path style="fill:#0060af;fill-opacity:1" d="M484 264h22.66v22.66H484z"/><path style="fill:#0060af;fill-opacity:1" d="M506 264h22.66v22.66H506z"/><path style="fill:#0060af;fill-opacity:1" d="M528 264h22.66v22.66H528z"/><path style="fill:#0060af;fill-opacity:1" d="M550 264h22.66v22.66H550z"/><path d="M594.66 286.66H572V264h11.33c6.42 0 11.33 4.91 11.33 11.33zm176 0h-11.33c-6.42 0-11.33-4.91-11.33-11.33V264h22.66z" style="fill:#0060af;fill-opacity:1"/><path style="fill:#0060af;fill-opacity:1" d="M770 264h22.66v22.66H770z"/><path style="fill:#0060af;fill-opacity:1" d="M792 264h22.66v22.66H792zm55.33 22.66c-6.42 0-11.33-4.91-11.33-11.33V264h22.66v11.33c0 6.42-4.91 11.33-11.33 11.33zm-780.67 22H44v-11.33c0-6.42 4.91-11.33 11.33-11.33s11.33 4.91 11.33 11.33zM88 286h22.66v22.66H88z"/><path style="fill:#0060af;fill-opacity:1" d="M110 286h22.66v22.66H110z"/><path style="fill:#0060af;fill-opacity:1" d="M132 286h22.66v22.66H132zm88.66 22.66h-11.33c-6.42 0-11.33-4.91-11.33-11.33S202.91 286 209.33 286h11.33v22.66z"/><path d="M231.33 308.66H220V286h22.66v11.33c0 6.42-4.91 11.33-11.33 11.33zm55.33 0h-11.33c-6.42 0-11.33-4.91-11.33-11.33S268.91 286 275.33 286h11.33v22.66z" style="fill:#0060af;fill-opacity:1"/><path style="fill:#0060af;fill-opacity:1" d="M286 286h22.66v22.66H286zm44 0h22.66v22.66H330z"/><path d="M363.33 308.66H352V286h11.33c6.42 0 11.33 4.91 11.33 11.33s-4.91 11.33-11.33 11.33zm55.33 0H396v-11.33c0-6.42 4.91-11.33 11.33-11.33s11.33 4.91 11.33 11.33z" style="fill:#0060af;fill-opacity:1"/><circle cx="3" cy="3" r="3" style="fill:#0060af;fill-opacity:1" transform="translate(440 286) scale(3.77667)"/><path style="fill:#0060af;fill-opacity:1" d="M506 286h22.66v22.66H506z"/><path style="fill:#0060af;fill-opacity:1" d="M528 286h22.66v22.66H528zm44 0h22.66v22.66H572z"/><path style="fill:#0060af;fill-opacity:1" d="M594 286h22.66v22.66H594z"/><path style="fill:#0060af;fill-opacity:1" d="M616 286h22.66v22.66H616z"/><path d="M660.66 308.66H638V286h11.33c6.42 0 11.33 4.91 11.33 11.33zm66 0h-11.33c-6.42 0-11.33-4.91-11.33-11.33S708.91 286 715.33 286h11.33v22.66z" style="fill:#0060af;fill-opacity:1"/><path d="M737.33 308.66H726V286h11.33c6.42 0 11.33 4.91 11.33 11.33s-4.91 11.33-11.33 11.33zm66 0c-6.42 0-11.33-4.91-11.33-11.33V286h22.66v11.33c0 6.42-4.91 11.33-11.33 11.33zm77.33 0H858v-11.33c0-6.42 4.91-11.33 11.33-11.33s11.33 4.91 11.33 11.33z" style="fill:#0060af;fill-opacity:1"/><circle cx="3" cy="3" r="3" style="fill:#0060af;fill-opacity:1" transform="translate(902 286) scale(3.77667)"/><path style="fill:#0060af;fill-opacity:1" d="M44 308h22.66v22.66H44zm66.66 22.66H99.33c-6.42 0-11.33-4.91-11.33-11.33V308h22.66z"/><path style="fill:#0060af;fill-opacity:1" d="M110 308h22.66v22.66H110z"/><path style="fill:#0060af;fill-opacity:1" d="M132 308h22.66v22.66H132z"/><circle cx="3" cy="3" r="3" style="fill:#0060af;fill-opacity:1" transform="translate(176 308) scale(3.77667)"/><path d="M264.66 330.66H242v-11.33c0-6.42 4.91-11.33 11.33-11.33s11.33 4.91 11.33 11.33zm44 0h-11.33c-6.42 0-11.33-4.91-11.33-11.33V308h22.66z" style="fill:#0060af;fill-opacity:1"/><path style="fill:#0060af;fill-opacity:1" d="M308 308h22.66v22.66H308z"/><path d="M341.33 330.66H330V308h22.66v11.33c0 6.42-4.91 11.33-11.33 11.33zM396 308h22.66v22.66H396z" style="fill:#0060af;fill-opacity:1"/><path d="M440.66 330.66H418V308h11.33c6.42 0 11.33 4.91 11.33 11.33zm66 0h-11.33c-6.42 0-11.33-4.91-11.33-11.33S488.91 308 495.33 308h11.33v22.66z" style="fill:#0060af;fill-opacity:1"/><path style="fill:#0060af;fill-opacity:1" d="M506 308h22.66v22.66H506z"/><path d="M539.33 330.66H528V308h22.66v11.33c0 6.42-4.91 11.33-11.33 11.33zm44 0c-6.42 0-11.33-4.91-11.33-11.33V308h22.66v11.33c0 6.42-4.91 11.33-11.33 11.33zM616 308h22.66v22.66H616z" style="fill:#0060af;fill-opacity:1"/><path style="fill:#0060af;fill-opacity:1" d="M638 308h22.66v22.66H638z"/><path style="fill:#0060af;fill-opacity:1" d="M660 308h22.66v22.66H660z"/><path d="M693.33 330.66H682V308h11.33c6.42 0 11.33 4.91 11.33 11.33s-4.91 11.33-11.33 11.33z" style="fill:#0060af;fill-opacity:1"/><circle cx="3" cy="3" r="3" style="fill:#0060af;fill-opacity:1" transform="translate(770 308) scale(3.77667)"/><path d="M836.66 330.66H814v-11.33c0-6.42 4.91-11.33 11.33-11.33h11.33z" style="fill:#0060af;fill-opacity:1"/><path style="fill:#0060af;fill-opacity:1" d="M836 308h22.66v22.66H836z"/><path style="fill:#0060af;fill-opacity:1" d="M858 308h22.66v22.66H858z"/><path d="M891.33 330.66H880V308h11.33c6.42 0 11.33 4.91 11.33 11.33s-4.91 11.33-11.33 11.33zm55.33 0H924v-11.33c0-6.42 4.91-11.33 11.33-11.33s11.33 4.91 11.33 11.33zm-880 22H55.33c-6.42 0-11.33-4.91-11.33-11.33V330h22.66z" style="fill:#0060af;fill-opacity:1"/><path d="M88.66 352.66H66V330h11.33c6.42 0 11.33 4.91 11.33 11.33zM110 330h22.66v22.66H110z" style="fill:#0060af;fill-opacity:1"/><path style="fill:#0060af;fill-opacity:1" d="M132 330h22.66v22.66H132z"/><path d="M165.33 352.66H154V330h11.33c6.42 0 11.33 4.91 11.33 11.33s-4.91 11.33-11.33 11.33zm77.33 0h-11.33c-6.42 0-11.33-4.91-11.33-11.33S224.91 330 231.33 330h11.33v22.66z" style="fill:#0060af;fill-opacity:1"/><path style="fill:#0060af;fill-opacity:1" d="M242 330h22.66v22.66H242zm77.33 22.66c-6.42 0-11.33-4.91-11.33-11.33V330h22.66v11.33c0 6.42-4.91 11.33-11.33 11.33zm77.33 0h-11.33c-6.42 0-11.33-4.91-11.33-11.33S378.91 330 385.33 330h11.33v22.66z"/><path style="fill:#0060af;fill-opacity:1" d="M396 330h22.66v22.66H396z"/><path d="M429.33 352.66H418V330h22.66v11.33c0 6.42-4.91 11.33-11.33 11.33zm88 0c-6.42 0-11.33-4.91-11.33-11.33V330h22.66v11.33c0 6.42-4.91 11.33-11.33 11.33zm121.33 0h-11.33c-6.42 0-11.33-4.91-11.33-11.33V330h22.66z" style="fill:#0060af;fill-opacity:1"/><path style="fill:#0060af;fill-opacity:1" d="M638 330h22.66v22.66H638zm176.66 22.66h-11.33c-6.42 0-11.33-4.91-11.33-11.33S796.91 330 803.33 330h11.33v22.66z"/><path style="fill:#0060af;fill-opacity:1" d="M814 330h22.66v22.66H814zm110.66 22.66H902v-11.33c0-6.42 4.91-11.33 11.33-11.33h11.33z"/><path d="M935.33 352.66H924V330h22.66v11.33c0 6.42-4.91 11.33-11.33 11.33zm-858 22c-6.42 0-11.33-4.91-11.33-11.33V352h22.66v11.33c0 6.42-4.91 11.33-11.33 11.33zM110 352h22.66v22.66H110z" style="fill:#0060af;fill-opacity:1"/><path d="M143.33 374.66H132V352h22.66v11.33c0 6.42-4.91 11.33-11.33 11.33z" style="fill:#0060af;fill-opacity:1"/><circle cx="3" cy="3" r="3" style="fill:#0060af;fill-opacity:1" transform="translate(176 352) scale(3.77667)"/><path d="M264.66 374.66h-11.33c-6.42 0-11.33-4.91-11.33-11.33V352h22.66z" style="fill:#0060af;fill-opacity:1"/><path d="M275.33 374.66H264V352h11.33c6.42 0 11.33 4.91 11.33 11.33s-4.91 11.33-11.33 11.33zM638 352h22.66v22.66H638z" style="fill:#0060af;fill-opacity:1"/><path style="fill:#0060af;fill-opacity:1" d="M660 352h22.66v22.66H660z"/><path style="fill:#0060af;fill-opacity:1" d="M682 352h22.66v22.66H682z"/><path d="M715.33 374.66H704V352h11.33c6.42 0 11.33 4.91 11.33 11.33s-4.91 11.33-11.33 11.33zm77.33 0H770v-11.33c0-6.42 4.91-11.33 11.33-11.33s11.33 4.91 11.33 11.33zM814 352h22.66v22.66H814z" style="fill:#0060af;fill-opacity:1"/><path d="M858.66 374.66H836V352h11.33c6.42 0 11.33 4.91 11.33 11.33zM902 352h22.66v22.66H902z" style="fill:#0060af;fill-opacity:1"/><circle cx="3" cy="3" r="3" style="fill:#0060af;fill-opacity:1" transform="translate(44 374) scale(3.77667)"/><path d="M110.66 396.66H99.33c-6.42 0-11.33-4.91-11.33-11.33S92.91 374 99.33 374h11.33v22.66z" style="fill:#0060af;fill-opacity:1"/><path d="M121.33 396.66H110V374h22.66v11.33c0 6.42-4.91 11.33-11.33 11.33z" style="fill:#0060af;fill-opacity:1"/><circle cx="3" cy="3" r="3" style="fill:#0060af;fill-opacity:1" transform="translate(154 374) scale(3.77667)"/><path d="M308.66 396.66H286v-11.33c0-6.42 4.91-11.33 11.33-11.33h11.33z" style="fill:#0060af;fill-opacity:1"/><path style="fill:#0060af;fill-opacity:1" d="M308 374h22.66v22.66H308z"/><path d="M341.33 396.66H330V374h11.33c6.42 0 11.33 4.91 11.33 11.33s-4.91 11.33-11.33 11.33zM638 374h22.66v22.66H638zm44 0h22.66v22.66H682zm88 0h22.66v22.66H770zm66.66 22.66h-11.33c-6.42 0-11.33-4.91-11.33-11.33V374h22.66z" style="fill:#0060af;fill-opacity:1"/><path d="M847.33 396.66H836V374h22.66v11.33c0 6.42-4.91 11.33-11.33 11.33zM902 374h22.66v22.66H902z" style="fill:#0060af;fill-opacity:1"/><circle cx="3" cy="3" r="3" style="fill:#0060af;fill-opacity:1" transform="translate(132 396) scale(3.77667)"/><circle cx="3" cy="3" r="3" style="fill:#0060af;fill-opacity:1" transform="translate(176 396) scale(3.77667)"/><path d="M242.66 418.66H220v-11.33c0-6.42 4.91-11.33 11.33-11.33s11.33 4.91 11.33 11.33zm44 0H264v-11.33c0-6.42 4.91-11.33 11.33-11.33h11.33z" style="fill:#0060af;fill-opacity:1"/><path style="fill:#0060af;fill-opacity:1" d="M286 396h22.66v22.66H286z"/><path style="fill:#0060af;fill-opacity:1" d="M308 396h22.66v22.66H308zm330 0h22.66v22.66H638z"/><path style="fill:#0060af;fill-opacity:1" d="M660 396h22.66v22.66H660z"/><path style="fill:#0060af;fill-opacity:1" d="M682 396h22.66v22.66H682z"/><path style="fill:#0060af;fill-opacity:1" d="M704 396h22.66v22.66H704z"/><path d="M737.33 418.66H726V396h11.33c6.42 0 11.33 4.91 11.33 11.33s-4.91 11.33-11.33 11.33zm44 0c-6.42 0-11.33-4.91-11.33-11.33V396h22.66v11.33c0 6.42-4.91 11.33-11.33 11.33zm99.33 0h-11.33c-6.42 0-11.33-4.91-11.33-11.33S862.91 396 869.33 396h11.33v22.66z" style="fill:#0060af;fill-opacity:1"/><path style="fill:#0060af;fill-opacity:1" d="M880 396h22.66v22.66H880z"/><path style="fill:#0060af;fill-opacity:1" d="M902 396h22.66v22.66H902zm-791.34 44.66H99.33c-6.42 0-11.33-4.91-11.33-11.33S92.91 418 99.33 418h11.33v22.66z"/><path d="M132.66 440.66H110V418h11.33c6.42 0 11.33 4.91 11.33 11.33zm98.67 0c-6.42 0-11.33-4.91-11.33-11.33V418h22.66v11.33c0 6.42-4.91 11.33-11.33 11.33zm44 0c-6.42 0-11.33-4.91-11.33-11.33V418h22.66v11.33c0 6.42-4.91 11.33-11.33 11.33zm55.33 0h-11.33c-6.42 0-11.33-4.91-11.33-11.33V418h22.66z" style="fill:#0060af;fill-opacity:1"/><path d="M341.33 440.66H330V418h11.33c6.42 0 11.33 4.91 11.33 11.33s-4.91 11.33-11.33 11.33zm308 0c-6.42 0-11.33-4.91-11.33-11.33V418h22.66v11.33c0 6.42-4.91 11.33-11.33 11.33zm55.33 0h-11.33c-6.42 0-11.33-4.91-11.33-11.33V418h22.66z" style="fill:#0060af;fill-opacity:1"/><path style="fill:#0060af;fill-opacity:1" d="M704 418h22.66v22.66H704z"/><circle cx="3" cy="3" r="3" style="fill:#0060af;fill-opacity:1" transform="translate(748 418) scale(3.77667)"/><path d="M814.66 440.66H792v-11.33c0-6.42 4.91-11.33 11.33-11.33s11.33 4.91 11.33 11.33zm44 0H836v-11.33c0-6.42 4.91-11.33 11.33-11.33s11.33 4.91 11.33 11.33zM902 418h22.66v22.66H902zm-792 22h22.66v22.66H110zm88.66 22.66h-11.33c-6.42 0-11.33-4.91-11.33-11.33S180.91 440 187.33 440h11.33v22.66z" style="fill:#0060af;fill-opacity:1"/><path d="M220.66 462.66H198V440h11.33c6.42 0 11.33 4.91 11.33 11.33z" style="fill:#0060af;fill-opacity:1"/><circle cx="3" cy="3" r="3" style="fill:#0060af;fill-opacity:1" transform="translate(242 440) scale(3.77667)"/><circle cx="3" cy="3" r="3" style="fill:#0060af;fill-opacity:1" transform="translate(286 440) scale(3.77667)"/><circle cx="3" cy="3" r="3" style="fill:#0060af;fill-opacity:1" transform="translate(660 440) scale(3.77667)"/><path style="fill:#0060af;fill-opacity:1" d="M704 440h22.66v22.66H704z"/><path d="M748.66 462.66H726V440h11.33c6.42 0 11.33 4.91 11.33 11.33zm54.67 0c-6.42 0-11.33-4.91-11.33-11.33V440h22.66v11.33c0 6.42-4.91 11.33-11.33 11.33zM836 440h22.66v22.66H836zm66.66 22.66h-11.33c-6.42 0-11.33-4.91-11.33-11.33S884.91 440 891.33 440h11.33v22.66z" style="fill:#0060af;fill-opacity:1"/><path style="fill:#0060af;fill-opacity:1" d="M902 440h22.66v22.66H902zm-780.67 44.66c-6.42 0-11.33-4.91-11.33-11.33V462h22.66v11.33c0 6.42-4.91 11.33-11.33 11.33zm99.33 0h-11.33c-6.42 0-11.33-4.91-11.33-11.33V462h22.66z"/><path d="M242.66 484.66H220V462h11.33c6.42 0 11.33 4.91 11.33 11.33zm44 0H264v-11.33c0-6.42 4.91-11.33 11.33-11.33s11.33 4.91 11.33 11.33zm418 0h-11.33c-6.42 0-11.33-4.91-11.33-11.33S686.91 462 693.33 462h11.33v22.66z" style="fill:#0060af;fill-opacity:1"/><path style="fill:#0060af;fill-opacity:1" d="M704 462h22.66v22.66H704z"/><path d="M737.33 484.66H726V462h22.66v11.33c0 6.42-4.91 11.33-11.33 11.33zm55.33 0H770v-11.33c0-6.42 4.91-11.33 11.33-11.33s11.33 4.91 11.33 11.33zm66 0h-11.33c-6.42 0-11.33-4.91-11.33-11.33V462h22.66z" style="fill:#0060af;fill-opacity:1"/><path d="M869.33 484.66H858V462h11.33c6.42 0 11.33 4.91 11.33 11.33s-4.91 11.33-11.33 11.33zM902 462h22.66v22.66H902z" style="fill:#0060af;fill-opacity:1"/><circle cx="3" cy="3" r="3" style="fill:#0060af;fill-opacity:1" transform="translate(66 484) scale(3.77667)"/><path d="M154.66 506.66H132v-11.33c0-6.42 4.91-11.33 11.33-11.33h11.33z" style="fill:#0060af;fill-opacity:1"/><path style="fill:#0060af;fill-opacity:1" d="M154 484h22.66v22.66H154z"/><path d="M187.33 506.66H176V484h11.33c6.42 0 11.33 4.91 11.33 11.33s-4.91 11.33-11.33 11.33zm44 0c-6.42 0-11.33-4.91-11.33-11.33V484h22.66v11.33c0 6.42-4.91 11.33-11.33 11.33zm55.33 0h-11.33c-6.42 0-11.33-4.91-11.33-11.33V484h22.66z" style="fill:#0060af;fill-opacity:1"/><path d="M308.66 506.66H286V484h11.33c6.42 0 11.33 4.91 11.33 11.33z" style="fill:#0060af;fill-opacity:1"/><circle cx="3" cy="3" r="3" style="fill:#0060af;fill-opacity:1" transform="translate(330 484) scale(3.77667)"/><circle cx="3" cy="3" r="3" style="fill:#0060af;fill-opacity:1" transform="translate(660 484) scale(3.77667)"/><path style="fill:#0060af;fill-opacity:1" d="M770 484h22.66v22.66H770z"/><path d="M803.33 506.66H792V484h11.33c6.42 0 11.33 4.91 11.33 11.33s-4.91 11.33-11.33 11.33zm99.33 0h-11.33c-6.42 0-11.33-4.91-11.33-11.33S884.91 484 891.33 484h11.33v22.66z" style="fill:#0060af;fill-opacity:1"/><path style="fill:#0060af;fill-opacity:1" d="M902 484h22.66v22.66H902zm-758.67 44.66c-6.42 0-11.33-4.91-11.33-11.33V506h22.66v11.33c0 6.42-4.91 11.33-11.33 11.33z"/><circle cx="3" cy="3" r="3" style="fill:#0060af;fill-opacity:1" transform="translate(198 506) scale(3.77667)"/><path d="M264.66 528.66H242v-11.33c0-6.42 4.91-11.33 11.33-11.33s11.33 4.91 11.33 11.33zm32.67 0c-6.42 0-11.33-4.91-11.33-11.33V506h22.66v11.33c0 6.42-4.91 11.33-11.33 11.33zm363.33 0H638v-11.33c0-6.42 4.91-11.33 11.33-11.33s11.33 4.91 11.33 11.33zm44 0h-11.33c-6.42 0-11.33-4.91-11.33-11.33S686.91 506 693.33 506h11.33v22.66z" style="fill:#0060af;fill-opacity:1"/><path style="fill:#0060af;fill-opacity:1" d="M704 506h22.66v22.66H704z"/><path style="fill:#0060af;fill-opacity:1" d="M726 506h22.66v22.66H726z"/><path style="fill:#0060af;fill-opacity:1" d="M748 506h22.66v22.66H748z"/><path style="fill:#0060af;fill-opacity:1" d="M770 506h22.66v22.66H770zm88.66 22.66H836v-11.33c0-6.42 4.91-11.33 11.33-11.33h11.33z"/><path d="M880.66 528.66H858V506h11.33c6.42 0 11.33 4.91 11.33 11.33zm44 0h-11.33c-6.42 0-11.33-4.91-11.33-11.33V506h22.66z" style="fill:#0060af;fill-opacity:1"/><path d="M935.33 528.66H924V506h11.33c6.42 0 11.33 4.91 11.33 11.33s-4.91 11.33-11.33 11.33zm-824.67 22H99.33c-6.42 0-11.33-4.91-11.33-11.33S92.91 528 99.33 528h11.33v22.66z" style="fill:#0060af;fill-opacity:1"/><path d="M121.33 550.66H110V528h11.33c6.42 0 11.33 4.91 11.33 11.33s-4.91 11.33-11.33 11.33z" style="fill:#0060af;fill-opacity:1"/><circle cx="3" cy="3" r="3" style="fill:#0060af;fill-opacity:1" transform="translate(176 528) scale(3.77667)"/><path d="M242.66 550.66h-11.33c-6.42 0-11.33-4.91-11.33-11.33S224.91 528 231.33 528h11.33v22.66z" style="fill:#0060af;fill-opacity:1"/><path style="fill:#0060af;fill-opacity:1" d="M242 528h22.66v22.66H242z"/><path d="M275.33 550.66H264V528h11.33c6.42 0 11.33 4.91 11.33 11.33s-4.91 11.33-11.33 11.33zm55.33 0H308v-11.33c0-6.42 4.91-11.33 11.33-11.33s11.33 4.91 11.33 11.33zm318.67 0c-6.42 0-11.33-4.91-11.33-11.33V528h22.66v11.33c0 6.42-4.91 11.33-11.33 11.33zM704 528h22.66v22.66H704zm66.66 22.66h-11.33c-6.42 0-11.33-4.91-11.33-11.33V528h22.66z" style="fill:#0060af;fill-opacity:1"/><path style="fill:#0060af;fill-opacity:1" d="M770 528h22.66v22.66H770zm66 0h22.66v22.66H836z"/><path style="fill:#0060af;fill-opacity:1" d="M858 528h22.66v22.66H858z"/><path d="M891.33 550.66H880V528h11.33c6.42 0 11.33 4.91 11.33 11.33s-4.91 11.33-11.33 11.33z" style="fill:#0060af;fill-opacity:1"/><circle cx="3" cy="3" r="3" style="fill:#0060af;fill-opacity:1" transform="translate(154 550) scale(3.77667)"/><path d="M220.66 572.66H198v-11.33c0-6.42 4.91-11.33 11.33-11.33s11.33 4.91 11.33 11.33zm32.67 0c-6.42 0-11.33-4.91-11.33-11.33V550h22.66v11.33c0 6.42-4.91 11.33-11.33 11.33zm55.33 0H286v-11.33c0-6.42 4.91-11.33 11.33-11.33h11.33z" style="fill:#0060af;fill-opacity:1"/><path style="fill:#0060af;fill-opacity:1" d="M308 550h22.66v22.66H308z"/><path d="M341.33 572.66H330V550h11.33c6.42 0 11.33 4.91 11.33 11.33s-4.91 11.33-11.33 11.33z" style="fill:#0060af;fill-opacity:1"/><circle cx="3" cy="3" r="3" style="fill:#0060af;fill-opacity:1" transform="translate(660 550) scale(3.77667)"/><path d="M726.66 572.66h-11.33c-6.42 0-11.33-4.91-11.33-11.33V550h22.66z" style="fill:#0060af;fill-opacity:1"/><path d="M737.33 572.66H726V550h11.33c6.42 0 11.33 4.91 11.33 11.33s-4.91 11.33-11.33 11.33zM770 550h22.66v22.66H770zm66 0h22.66v22.66H836z" style="fill:#0060af;fill-opacity:1"/><path d="M869.33 572.66H858V550h22.66v11.33c0 6.42-4.91 11.33-11.33 11.33z" style="fill:#0060af;fill-opacity:1"/><circle cx="3" cy="3" r="3" style="fill:#0060af;fill-opacity:1" transform="translate(902 550) scale(3.77667)"/><circle cx="3" cy="3" r="3" style="fill:#0060af;fill-opacity:1" transform="translate(44 572) scale(3.77667)"/><path d="M110.66 594.66H88v-11.33c0-6.42 4.91-11.33 11.33-11.33h11.33z" style="fill:#0060af;fill-opacity:1"/><path style="fill:#0060af;fill-opacity:1" d="M110 572h22.66v22.66H110z"/><path d="M154.66 594.66H132V572h11.33c6.42 0 11.33 4.91 11.33 11.33zm44 0h-11.33c-6.42 0-11.33-4.91-11.33-11.33S180.91 572 187.33 572h11.33v22.66z" style="fill:#0060af;fill-opacity:1"/><path d="M209.33 594.66H198V572h22.66v11.33c0 6.42-4.91 11.33-11.33 11.33zM286 572h22.66v22.66H286z" style="fill:#0060af;fill-opacity:1"/><path style="fill:#0060af;fill-opacity:1" d="M308 572h22.66v22.66H308zm352.66 22.66H638v-11.33c0-6.42 4.91-11.33 11.33-11.33s11.33 4.91 11.33 11.33zm110 0H748v-11.33c0-6.42 4.91-11.33 11.33-11.33h11.33z"/><path style="fill:#0060af;fill-opacity:1" d="M770 572h22.66v22.66H770z"/><path d="M803.33 594.66H792V572h11.33c6.42 0 11.33 4.91 11.33 11.33s-4.91 11.33-11.33 11.33zm44 0c-6.42 0-11.33-4.91-11.33-11.33V572h22.66v11.33c0 6.42-4.91 11.33-11.33 11.33z" style="fill:#0060af;fill-opacity:1"/><circle cx="3" cy="3" r="3" style="fill:#0060af;fill-opacity:1" transform="translate(880 572) scale(3.77667)"/><path style="fill:#0060af;fill-opacity:1" d="M88 594h22.66v22.66H88zm55.33 22.66c-6.42 0-11.33-4.91-11.33-11.33V594h22.66v11.33c0 6.42-4.91 11.33-11.33 11.33z"/><circle cx="3" cy="3" r="3" style="fill:#0060af;fill-opacity:1" transform="translate(220 594) scale(3.77667)"/><path d="M286.66 616.66H264v-11.33c0-6.42 4.91-11.33 11.33-11.33h11.33z" style="fill:#0060af;fill-opacity:1"/><path style="fill:#0060af;fill-opacity:1" d="M286 594h22.66v22.66H286z"/><path d="M319.33 616.66H308V594h22.66v11.33c0 6.42-4.91 11.33-11.33 11.33zM638 594h22.66v22.66H638zm88.66 22.66h-11.33c-6.42 0-11.33-4.91-11.33-11.33S708.91 594 715.33 594h11.33v22.66z" style="fill:#0060af;fill-opacity:1"/><path style="fill:#0060af;fill-opacity:1" d="M726 594h22.66v22.66H726z"/><path style="fill:#0060af;fill-opacity:1" d="M748 594h22.66v22.66H748z"/><path style="fill:#0060af;fill-opacity:1" d="M770 594h22.66v22.66H770z"/><circle cx="3" cy="3" r="3" style="fill:#0060af;fill-opacity:1" transform="translate(858 594) scale(3.77667)"/><circle cx="3" cy="3" r="3" style="fill:#0060af;fill-opacity:1" transform="translate(924 594) scale(3.77667)"/><path d="M66.66 638.66H44v-11.33c0-6.42 4.91-11.33 11.33-11.33h11.33z" style="fill:#0060af;fill-opacity:1"/><path style="fill:#0060af;fill-opacity:1" d="M66 616h22.66v22.66H66z"/><path style="fill:#0060af;fill-opacity:1" d="M88 616h22.66v22.66H88z"/><path d="M132.66 638.66H110V616h11.33c6.42 0 11.33 4.91 11.33 11.33zm66 0h-11.33c-6.42 0-11.33-4.91-11.33-11.33S180.91 616 187.33 616h11.33v22.66z" style="fill:#0060af;fill-opacity:1"/><path d="M220.66 638.66H198V616h11.33c6.42 0 11.33 4.91 11.33 11.33zm44 0H242v-11.33c0-6.42 4.91-11.33 11.33-11.33h11.33z" style="fill:#0060af;fill-opacity:1"/><path style="fill:#0060af;fill-opacity:1" d="M264 616h22.66v22.66H264z"/><path style="fill:#0060af;fill-opacity:1" d="M286 616h22.66v22.66H286zm352 0h22.66v22.66H638zm88 0h22.66v22.66H726z"/><path style="fill:#0060af;fill-opacity:1" d="M748 616h22.66v22.66H748z"/><path style="fill:#0060af;fill-opacity:1" d="M770 616h22.66v22.66H770z"/><path d="M814.66 638.66H792V616h11.33c6.42 0 11.33 4.91 11.33 11.33z" style="fill:#0060af;fill-opacity:1"/><circle cx="3" cy="3" r="3" style="fill:#0060af;fill-opacity:1" transform="translate(836 616) scale(3.77667)"/><path d="M924.66 638.66H902v-11.33c0-6.42 4.91-11.33 11.33-11.33s11.33 4.91 11.33 11.33zm-869.33 22c-6.42 0-11.33-4.91-11.33-11.33V638h22.66v11.33c0 6.42-4.91 11.33-11.33 11.33zm55.33 0H99.33c-6.42 0-11.33-4.91-11.33-11.33V638h22.66z" style="fill:#0060af;fill-opacity:1"/><path d="M121.33 660.66H110V638h22.66v11.33c0 6.42-4.91 11.33-11.33 11.33zM198 638h22.66v22.66H198zm66.66 22.66h-11.33c-6.42 0-11.33-4.91-11.33-11.33V638h22.66z" style="fill:#0060af;fill-opacity:1"/><path style="fill:#0060af;fill-opacity:1" d="M264 638h22.66v22.66H264z"/><path style="fill:#0060af;fill-opacity:1" d="M286 638h22.66v22.66H286z"/><path style="fill:#0060af;fill-opacity:1" d="M308 638h22.66v22.66H308z"/><path d="M352.66 660.66H330V638h11.33c6.42 0 11.33 4.91 11.33 11.33zm44 0H374v-11.33c0-6.42 4.91-11.33 11.33-11.33h11.33z" style="fill:#0060af;fill-opacity:1"/><path style="fill:#0060af;fill-opacity:1" d="M396 638h22.66v22.66H396z"/><path style="fill:#0060af;fill-opacity:1" d="M418 638h22.66v22.66H418z"/><path style="fill:#0060af;fill-opacity:1" d="M440 638h22.66v22.66H440z"/><path style="fill:#0060af;fill-opacity:1" d="M462 638h22.66v22.66H462z"/><path d="M495.33 660.66H484V638h11.33c6.42 0 11.33 4.91 11.33 11.33s-4.91 11.33-11.33 11.33zm55.33 0h-11.33c-6.42 0-11.33-4.91-11.33-11.33S532.91 638 539.33 638h11.33v22.66z" style="fill:#0060af;fill-opacity:1"/><path d="M561.33 660.66H550V638h11.33c6.42 0 11.33 4.91 11.33 11.33s-4.91 11.33-11.33 11.33zM638 638h22.66v22.66H638zm110.66 22.66h-11.33c-6.42 0-11.33-4.91-11.33-11.33V638h22.66z" style="fill:#0060af;fill-opacity:1"/><path d="M759.33 660.66H748V638h22.66v11.33c0 6.42-4.91 11.33-11.33 11.33zm44 0c-6.42 0-11.33-4.91-11.33-11.33V638h22.66v11.33c0 6.42-4.91 11.33-11.33 11.33zm77.33 0H858v-11.33c0-6.42 4.91-11.33 11.33-11.33s11.33 4.91 11.33 11.33zM902 638h22.66v22.66H902zm-703.34 44.66h-11.33c-6.42 0-11.33-4.91-11.33-11.33S180.91 660 187.33 660h11.33v22.66z" style="fill:#0060af;fill-opacity:1"/><path style="fill:#0060af;fill-opacity:1" d="M198 660h22.66v22.66H198z"/><path d="M231.33 682.66H220V660h11.33c6.42 0 11.33 4.91 11.33 11.33s-4.91 11.33-11.33 11.33zM308 660h22.66v22.66H308z" style="fill:#0060af;fill-opacity:1"/><path style="fill:#0060af;fill-opacity:1" d="M330 660h22.66v22.66H330z"/><path style="fill:#0060af;fill-opacity:1" d="M352 660h22.66v22.66H352z"/><path d="M385.33 682.66H374V660h22.66v11.33c0 6.42-4.91 11.33-11.33 11.33zm231.33 0h-11.33c-6.42 0-11.33-4.91-11.33-11.33S598.91 660 605.33 660h11.33v22.66z" style="fill:#0060af;fill-opacity:1"/><path style="fill:#0060af;fill-opacity:1" d="M616 660h22.66v22.66H616z"/><path style="fill:#0060af;fill-opacity:1" d="M638 660h22.66v22.66H638zm88.66 22.66H704v-11.33c0-6.42 4.91-11.33 11.33-11.33s11.33 4.91 11.33 11.33z"/><circle cx="3" cy="3" r="3" style="fill:#0060af;fill-opacity:1" transform="translate(770 660) scale(3.77667)"/><path style="fill:#0060af;fill-opacity:1" d="M858 660h22.66v22.66H858z"/><path style="fill:#0060af;fill-opacity:1" d="M880 660h22.66v22.66H880z"/><path style="fill:#0060af;fill-opacity:1" d="M902 660h22.66v22.66H902z"/><path d="M935.33 682.66H924V660h11.33c6.42 0 11.33 4.91 11.33 11.33s-4.91 11.33-11.33 11.33zm-868.67 22H44v-11.33c0-6.42 4.91-11.33 11.33-11.33h11.33z" style="fill:#0060af;fill-opacity:1"/><path d="M77.33 704.66H66V682h11.33c6.42 0 11.33 4.91 11.33 11.33s-4.91 11.33-11.33 11.33zm55.33 0H110v-11.33c0-6.42 4.91-11.33 11.33-11.33h11.33z" style="fill:#0060af;fill-opacity:1"/><path d="M154.66 704.66H132V682h11.33c6.42 0 11.33 4.91 11.33 11.33zm110 0H242v-11.33c0-6.42 4.91-11.33 11.33-11.33s11.33 4.91 11.33 11.33zm44 0h-11.33c-6.42 0-11.33-4.91-11.33-11.33S290.91 682 297.33 682h11.33v22.66z" style="fill:#0060af;fill-opacity:1"/><path style="fill:#0060af;fill-opacity:1" d="M308 682h22.66v22.66H308z"/><path style="fill:#0060af;fill-opacity:1" d="M330 682h22.66v22.66H330z"/><path d="M363.33 704.66H352V682h22.66v11.33c0 6.42-4.91 11.33-11.33 11.33zm77.33 0H418v-11.33c0-6.42 4.91-11.33 11.33-11.33h11.33z" style="fill:#0060af;fill-opacity:1"/><path d="M462.66 704.66H440V682h11.33c6.42 0 11.33 4.91 11.33 11.33zm44 0h-11.33c-6.42 0-11.33-4.91-11.33-11.33S488.91 682 495.33 682h11.33v22.66z" style="fill:#0060af;fill-opacity:1"/><path d="M528.66 704.66H506V682h11.33c6.42 0 11.33 4.91 11.33 11.33z" style="fill:#0060af;fill-opacity:1"/><circle cx="3" cy="3" r="3" style="fill:#0060af;fill-opacity:1" transform="translate(572 682) scale(3.77667)"/><path d="M638.66 704.66h-11.33c-6.42 0-11.33-4.91-11.33-11.33V682h22.66z" style="fill:#0060af;fill-opacity:1"/><path style="fill:#0060af;fill-opacity:1" d="M638 682h22.66v22.66H638z"/><path d="M671.33 704.66H660V682h11.33c6.42 0 11.33 4.91 11.33 11.33s-4.91 11.33-11.33 11.33zM704 682h22.66v22.66H704zm110.66 22.66h-11.33c-6.42 0-11.33-4.91-11.33-11.33S796.91 682 803.33 682h11.33v22.66z" style="fill:#0060af;fill-opacity:1"/><path style="fill:#0060af;fill-opacity:1" d="M814 682h22.66v22.66H814z"/><path style="fill:#0060af;fill-opacity:1" d="M836 682h22.66v22.66H836z"/><path style="fill:#0060af;fill-opacity:1" d="M858 682h22.66v22.66H858zM44 704h22.66v22.66H44zm66.66 22.66H88v-11.33c0-6.42 4.91-11.33 11.33-11.33h11.33z"/><path style="fill:#0060af;fill-opacity:1" d="M110 704h22.66v22.66H110z"/><path d="M143.33 726.66H132V704h22.66v11.33c0 6.42-4.91 11.33-11.33 11.33z" style="fill:#0060af;fill-opacity:1"/><circle cx="3" cy="3" r="3" style="fill:#0060af;fill-opacity:1" transform="translate(176 704) scale(3.77667)"/><path d="M242.66 726.66H220v-11.33c0-6.42 4.91-11.33 11.33-11.33h11.33z" style="fill:#0060af;fill-opacity:1"/><path style="fill:#0060af;fill-opacity:1" d="M242 704h22.66v22.66H242z"/><path d="M275.33 726.66H264V704h11.33c6.42 0 11.33 4.91 11.33 11.33s-4.91 11.33-11.33 11.33zm44 0c-6.42 0-11.33-4.91-11.33-11.33V704h22.66v11.33c0 6.42-4.91 11.33-11.33 11.33z" style="fill:#0060af;fill-opacity:1"/><circle cx="3" cy="3" r="3" style="fill:#0060af;fill-opacity:1" transform="translate(374 704) scale(3.77667)"/><path d="M440.66 726.66h-11.33c-6.42 0-11.33-4.91-11.33-11.33V704h22.66z" style="fill:#0060af;fill-opacity:1"/><path style="fill:#0060af;fill-opacity:1" d="M440 704h22.66v22.66H440z"/><path d="M484.66 726.66H462V704h11.33c6.42 0 11.33 4.91 11.33 11.33zM506 704h22.66v22.66H506zm198.66 22.66h-11.33c-6.42 0-11.33-4.91-11.33-11.33S686.91 704 693.33 704h11.33v22.66z" style="fill:#0060af;fill-opacity:1"/><path style="fill:#0060af;fill-opacity:1" d="M704 704h22.66v22.66H704z"/><path d="M737.33 726.66H726V704h11.33c6.42 0 11.33 4.91 11.33 11.33s-4.91 11.33-11.33 11.33zm121.33 0h-11.33c-6.42 0-11.33-4.91-11.33-11.33V704h22.66z" style="fill:#0060af;fill-opacity:1"/><path d="M869.33 726.66H858V704h22.66v11.33c0 6.42-4.91 11.33-11.33 11.33zm55.33 0H902v-11.33c0-6.42 4.91-11.33 11.33-11.33s11.33 4.91 11.33 11.33zM44 726h22.66v22.66H44zm44 0h22.66v22.66H88z" style="fill:#0060af;fill-opacity:1"/><path style="fill:#0060af;fill-opacity:1" d="M110 726h22.66v22.66H110zm110.66 22.66H198v-11.33c0-6.42 4.91-11.33 11.33-11.33h11.33z"/><path style="fill:#0060af;fill-opacity:1" d="M220 726h22.66v22.66H220z"/><path d="M253.33 748.66H242V726h22.66v11.33c0 6.42-4.91 11.33-11.33 11.33z" style="fill:#0060af;fill-opacity:1"/><circle cx="3" cy="3" r="3" style="fill:#0060af;fill-opacity:1" transform="translate(286 726) scale(3.77667)"/><circle cx="3" cy="3" r="3" style="fill:#0060af;fill-opacity:1" transform="translate(330 726) scale(3.77667)"/><path style="fill:#0060af;fill-opacity:1" d="M462 726h22.66v22.66H462z"/><path style="fill:#0060af;fill-opacity:1" d="M484 726h22.66v22.66H484z"/><path style="fill:#0060af;fill-opacity:1" d="M506 726h22.66v22.66H506z"/><path d="M550.66 748.66H528V726h11.33c6.42 0 11.33 4.91 11.33 11.33zm44 0H572v-11.33c0-6.42 4.91-11.33 11.33-11.33h11.33z" style="fill:#0060af;fill-opacity:1"/><path style="fill:#0060af;fill-opacity:1" d="M594 726h22.66v22.66H594z"/><path d="M627.33 748.66H616V726h11.33c6.42 0 11.33 4.91 11.33 11.33s-4.91 11.33-11.33 11.33z" style="fill:#0060af;fill-opacity:1"/><circle cx="3" cy="3" r="3" style="fill:#0060af;fill-opacity:1" transform="translate(660 726) scale(3.77667)"/><path d="M770.66 748.66H748v-11.33c0-6.42 4.91-11.33 11.33-11.33s11.33 4.91 11.33 11.33zm44 0H792v-11.33c0-6.42 4.91-11.33 11.33-11.33s11.33 4.91 11.33 11.33zM902 726h22.66v22.66H902z" style="fill:#0060af;fill-opacity:1"/><path d="M946.66 748.66H924V726h11.33c6.42 0 11.33 4.91 11.33 11.33zm-891.33 22c-6.42 0-11.33-4.91-11.33-11.33V748h22.66v11.33c0 6.42-4.91 11.33-11.33 11.33zm55.33 0H99.33c-6.42 0-11.33-4.91-11.33-11.33V748h22.66z" style="fill:#0060af;fill-opacity:1"/><path style="fill:#0060af;fill-opacity:1" d="M110 748h22.66v22.66H110z"/><path d="M143.33 770.66H132V748h11.33c6.42 0 11.33 4.91 11.33 11.33s-4.91 11.33-11.33 11.33zm55.33 0h-11.33c-6.42 0-11.33-4.91-11.33-11.33S180.91 748 187.33 748h11.33v22.66z" style="fill:#0060af;fill-opacity:1"/><path d="M209.33 770.66H198V748h22.66v11.33c0 6.42-4.91 11.33-11.33 11.33zm187.33 0H374v-11.33c0-6.42 4.91-11.33 11.33-11.33h11.33z" style="fill:#0060af;fill-opacity:1"/><path style="fill:#0060af;fill-opacity:1" d="M396 748h22.66v22.66H396z"/><path style="fill:#0060af;fill-opacity:1" d="M418 748h22.66v22.66H418z"/><path style="fill:#0060af;fill-opacity:1" d="M440 748h22.66v22.66H440z"/><path style="fill:#0060af;fill-opacity:1" d="M462 748h22.66v22.66H462zm66 0h22.66v22.66H528zm44 0h22.66v22.66H572zm132.66 22.66h-11.33c-6.42 0-11.33-4.91-11.33-11.33S686.91 748 693.33 748h11.33v22.66z"/><path style="fill:#0060af;fill-opacity:1" d="M704 748h22.66v22.66H704z"/><path style="fill:#0060af;fill-opacity:1" d="M726 748h22.66v22.66H726z"/><path style="fill:#0060af;fill-opacity:1" d="M748 748h22.66v22.66H748z"/><path style="fill:#0060af;fill-opacity:1" d="M770 748h22.66v22.66H770z"/><path style="fill:#0060af;fill-opacity:1" d="M792 748h22.66v22.66H792z"/><path style="fill:#0060af;fill-opacity:1" d="M814 748h22.66v22.66H814z"/><path d="M858.66 770.66H836V748h11.33c6.42 0 11.33 4.91 11.33 11.33zM902 748h22.66v22.66H902z" style="fill:#0060af;fill-opacity:1"/><path d="M935.33 770.66H924V748h22.66v11.33c0 6.42-4.91 11.33-11.33 11.33zm-692.67 22h-11.33c-6.42 0-11.33-4.91-11.33-11.33S224.91 770 231.33 770h11.33v22.66z" style="fill:#0060af;fill-opacity:1"/><path d="M264.66 792.66H242V770h11.33c6.42 0 11.33 4.91 11.33 11.33zm66 0h-11.33c-6.42 0-11.33-4.91-11.33-11.33S312.91 770 319.33 770h11.33v22.66z" style="fill:#0060af;fill-opacity:1"/><path style="fill:#0060af;fill-opacity:1" d="M330 770h22.66v22.66H330z"/><path style="fill:#0060af;fill-opacity:1" d="M352 770h22.66v22.66H352z"/><path style="fill:#0060af;fill-opacity:1" d="M374 770h22.66v22.66H374z"/><path style="fill:#0060af;fill-opacity:1" d="M396 770h22.66v22.66H396z"/><path style="fill:#0060af;fill-opacity:1" d="M418 770h22.66v22.66H418zm55.33 22.66c-6.42 0-11.33-4.91-11.33-11.33V770h22.66v11.33c0 6.42-4.91 11.33-11.33 11.33zm55.33 0H506v-11.33c0-6.42 4.91-11.33 11.33-11.33h11.33z"/><path d="M539.33 792.66H528V770h22.66v11.33c0 6.42-4.91 11.33-11.33 11.33zm55.33 0h-11.33c-6.42 0-11.33-4.91-11.33-11.33V770h22.66z" style="fill:#0060af;fill-opacity:1"/><path style="fill:#0060af;fill-opacity:1" d="M594 770h22.66v22.66H594z"/><path style="fill:#0060af;fill-opacity:1" d="M616 770h22.66v22.66H616z"/><path style="fill:#0060af;fill-opacity:1" d="M638 770h22.66v22.66H638z"/><path d="M671.33 792.66H660V770h11.33c6.42 0 11.33 4.91 11.33 11.33s-4.91 11.33-11.33 11.33zm77.33 0h-11.33c-6.42 0-11.33-4.91-11.33-11.33V770h22.66z" style="fill:#0060af;fill-opacity:1"/><path style="fill:#0060af;fill-opacity:1" d="M748 770h22.66v22.66H748zm88 0h22.66v22.66H836z"/><path style="fill:#0060af;fill-opacity:1" d="M858 770h22.66v22.66H858z"/><path style="fill:#0060af;fill-opacity:1" d="M880 770h22.66v22.66H880z"/><path d="M913.33 792.66H902V770h22.66v11.33c0 6.42-4.91 11.33-11.33 11.33zm-660 22c-6.42 0-11.33-4.91-11.33-11.33V792h22.66v11.33c0 6.42-4.91 11.33-11.33 11.33z" style="fill:#0060af;fill-opacity:1"/><circle cx="3" cy="3" r="3" style="fill:#0060af;fill-opacity:1" transform="translate(286 792) scale(3.77667)"/><path style="fill:#0060af;fill-opacity:1" d="M418 792h22.66v22.66H418zm88.66 22.66h-11.33c-6.42 0-11.33-4.91-11.33-11.33S488.91 792 495.33 792h11.33v22.66z"/><path style="fill:#0060af;fill-opacity:1" d="M506 792h22.66v22.66H506zm88 0h22.66v22.66H594z"/><path d="M627.33 814.66H616V792h22.66v11.33c0 6.42-4.91 11.33-11.33 11.33zM748 792h22.66v22.66H748z" style="fill:#0060af;fill-opacity:1"/><circle cx="3" cy="3" r="3" style="fill:#0060af;fill-opacity:1" transform="translate(792 792) scale(3.77667)"/><path style="fill:#0060af;fill-opacity:1" d="M836 792h22.66v22.66H836z"/><path style="fill:#0060af;fill-opacity:1" d="M858 792h22.66v22.66H858z"/><path style="fill:#0060af;fill-opacity:1" d="M880 792h22.66v22.66H880z"/><circle cx="3" cy="3" r="3" style="fill:#0060af;fill-opacity:1" transform="translate(924 792) scale(3.77667)"/><path d="M242.66 836.66H220v-11.33c0-6.42 4.91-11.33 11.33-11.33s11.33 4.91 11.33 11.33zm132 0H352v-11.33c0-6.42 4.91-11.33 11.33-11.33h11.33z" style="fill:#0060af;fill-opacity:1"/><path d="M385.33 836.66H374V814h11.33c6.42 0 11.33 4.91 11.33 11.33s-4.91 11.33-11.33 11.33zm55.33 0h-11.33c-6.42 0-11.33-4.91-11.33-11.33V814h22.66z" style="fill:#0060af;fill-opacity:1"/><path style="fill:#0060af;fill-opacity:1" d="M440 814h22.66v22.66H440z"/><path d="M484.66 836.66H462V814h11.33c6.42 0 11.33 4.91 11.33 11.33zM506 814h22.66v22.66H506z" style="fill:#0060af;fill-opacity:1"/><path style="fill:#0060af;fill-opacity:1" d="M528 814h22.66v22.66H528z"/><path style="fill:#0060af;fill-opacity:1" d="M550 814h22.66v22.66H550z"/><path style="fill:#0060af;fill-opacity:1" d="M572 814h22.66v22.66H572z"/><path d="M605.33 836.66H594V814h22.66v11.33c0 6.42-4.91 11.33-11.33 11.33zm121.33 0H704v-11.33c0-6.42 4.91-11.33 11.33-11.33s11.33 4.91 11.33 11.33zM748 814h22.66v22.66H748zm88 0h22.66v22.66H836z" style="fill:#0060af;fill-opacity:1"/><path style="fill:#0060af;fill-opacity:1" d="M858 814h22.66v22.66H858z"/><path style="fill:#0060af;fill-opacity:1" d="M880 814h22.66v22.66H880z"/><path d="M913.33 836.66H902V814h11.33c6.42 0 11.33 4.91 11.33 11.33s-4.91 11.33-11.33 11.33zM220 836h22.66v22.66H220zm143.33 22.66c-6.42 0-11.33-4.91-11.33-11.33V836h22.66v11.33c0 6.42-4.91 11.33-11.33 11.33zm55.33 0H396v-11.33c0-6.42 4.91-11.33 11.33-11.33s11.33 4.91 11.33 11.33zm66 0h-11.33c-6.42 0-11.33-4.91-11.33-11.33V836h22.66z" style="fill:#0060af;fill-opacity:1"/><path style="fill:#0060af;fill-opacity:1" d="M484 836h22.66v22.66H484z"/><path style="fill:#0060af;fill-opacity:1" d="M506 836h22.66v22.66H506zm55.33 22.66c-6.42 0-11.33-4.91-11.33-11.33V836h22.66v11.33c0 6.42-4.91 11.33-11.33 11.33zm77.33 0h-11.33c-6.42 0-11.33-4.91-11.33-11.33S620.91 836 627.33 836h11.33v22.66z"/><path style="fill:#0060af;fill-opacity:1" d="M638 836h22.66v22.66H638z"/><path d="M671.33 858.66H660V836h11.33c6.42 0 11.33 4.91 11.33 11.33s-4.91 11.33-11.33 11.33zM704 836h22.66v22.66H704zm44 0h22.66v22.66H748z" style="fill:#0060af;fill-opacity:1"/><path style="fill:#0060af;fill-opacity:1" d="M770 836h22.66v22.66H770z"/><path style="fill:#0060af;fill-opacity:1" d="M792 836h22.66v22.66H792z"/><path style="fill:#0060af;fill-opacity:1" d="M814 836h22.66v22.66H814z"/><path d="M847.33 858.66H836V836h22.66v11.33c0 6.42-4.91 11.33-11.33 11.33z" style="fill:#0060af;fill-opacity:1"/><circle cx="3" cy="3" r="3" style="fill:#0060af;fill-opacity:1" transform="translate(924 836) scale(3.77667)"/><path style="fill:#0060af;fill-opacity:1" d="M220 858h22.66v22.66H220z"/><path d="M264.66 880.66H242V858h11.33c6.42 0 11.33 4.91 11.33 11.33z" style="fill:#0060af;fill-opacity:1"/><circle cx="3" cy="3" r="3" style="fill:#0060af;fill-opacity:1" transform="translate(286 858) scale(3.77667)"/><circle cx="3" cy="3" r="3" style="fill:#0060af;fill-opacity:1" transform="translate(330 858) scale(3.77667)"/><path d="M407.33 880.66c-6.42 0-11.33-4.91-11.33-11.33V858h22.66v11.33c0 6.42-4.91 11.33-11.33 11.33zm55.33 0H440v-11.33c0-6.42 4.91-11.33 11.33-11.33s11.33 4.91 11.33 11.33zm66 0h-11.33c-6.42 0-11.33-4.91-11.33-11.33V858h22.66z" style="fill:#0060af;fill-opacity:1"/><path d="M539.33 880.66H528V858h11.33c6.42 0 11.33 4.91 11.33 11.33s-4.91 11.33-11.33 11.33z" style="fill:#0060af;fill-opacity:1"/><circle cx="3" cy="3" r="3" style="fill:#0060af;fill-opacity:1" transform="translate(594 858) scale(3.77667)"/><path style="fill:#0060af;fill-opacity:1" d="M638 858h22.66v22.66H638zm66 0h22.66v22.66H704z"/><path style="fill:#0060af;fill-opacity:1" d="M726 858h22.66v22.66H726z"/><path d="M759.33 880.66H748V858h22.66v11.33c0 6.42-4.91 11.33-11.33 11.33zM792 858h22.66v22.66H792z" style="fill:#0060af;fill-opacity:1"/><path style="fill:#0060af;fill-opacity:1" d="M814 858h22.66v22.66H814zm110.66 22.66H902v-11.33c0-6.42 4.91-11.33 11.33-11.33s11.33 4.91 11.33 11.33zm-682 22h-11.33c-6.42 0-11.33-4.91-11.33-11.33V880h22.66z"/><path d="M253.33 902.66H242V880h22.66v11.33c0 6.42-4.91 11.33-11.33 11.33z" style="fill:#0060af;fill-opacity:1"/><circle cx="3" cy="3" r="3" style="fill:#0060af;fill-opacity:1" transform="translate(352 880) scale(3.77667)"/><path style="fill:#0060af;fill-opacity:1" d="M440 880h22.66v22.66H440z"/><path d="M473.33 902.66H462V880h11.33c6.42 0 11.33 4.91 11.33 11.33s-4.91 11.33-11.33 11.33z" style="fill:#0060af;fill-opacity:1"/><circle cx="3" cy="3" r="3" style="fill:#0060af;fill-opacity:1" transform="translate(550 880) scale(3.77667)"/><path d="M638.66 902.66H616v-11.33c0-6.42 4.91-11.33 11.33-11.33h11.33z" style="fill:#0060af;fill-opacity:1"/><path style="fill:#0060af;fill-opacity:1" d="M638 880h22.66v22.66H638z"/><path style="fill:#0060af;fill-opacity:1" d="M660 880h22.66v22.66H660z"/><path style="fill:#0060af;fill-opacity:1" d="M682 880h22.66v22.66H682z"/><path d="M715.33 902.66H704V880h22.66v11.33c0 6.42-4.91 11.33-11.33 11.33zm77.33 0H770v-11.33c0-6.42 4.91-11.33 11.33-11.33h11.33z" style="fill:#0060af;fill-opacity:1"/><path style="fill:#0060af;fill-opacity:1" d="M792 880h22.66v22.66H792z"/><path style="fill:#0060af;fill-opacity:1" d="M814 880h22.66v22.66H814z"/><path style="fill:#0060af;fill-opacity:1" d="M836 880h22.66v22.66H836z"/><path style="fill:#0060af;fill-opacity:1" d="M858 880h22.66v22.66H858z"/><path style="fill:#0060af;fill-opacity:1" d="M880 880h22.66v22.66H880z"/><path style="fill:#0060af;fill-opacity:1" d="M902 880h22.66v22.66H902zm-615.34 44.66h-11.33c-6.42 0-11.33-4.91-11.33-11.33S268.91 902 275.33 902h11.33v22.66z"/><path style="fill:#0060af;fill-opacity:1" d="M286 902h22.66v22.66H286z"/><path d="M330.66 924.66H308V902h11.33c6.42 0 11.33 4.91 11.33 11.33zm66 0H374v-11.33c0-6.42 4.91-11.33 11.33-11.33h11.33z" style="fill:#0060af;fill-opacity:1"/><path d="M418.66 924.66H396V902h11.33c6.42 0 11.33 4.91 11.33 11.33zm32.67 0c-6.42 0-11.33-4.91-11.33-11.33V902h22.66v11.33c0 6.42-4.91 11.33-11.33 11.33z" style="fill:#0060af;fill-opacity:1"/><circle cx="3" cy="3" r="3" style="fill:#0060af;fill-opacity:1" transform="translate(572 902) scale(3.77667)"/><path d="M627.33 924.66c-6.42 0-11.33-4.91-11.33-11.33V902h22.66v11.33c0 6.42-4.91 11.33-11.33 11.33zM770 902h22.66v22.66H770z" style="fill:#0060af;fill-opacity:1"/><path d="M803.33 924.66H792V902h22.66v11.33c0 6.42-4.91 11.33-11.33 11.33zM836 902h22.66v22.66H836zm77.33 22.66c-6.42 0-11.33-4.91-11.33-11.33V902h22.66v11.33c0 6.42-4.91 11.33-11.33 11.33zm-670.67 22h-11.33c-6.42 0-11.33-4.91-11.33-11.33S224.91 924 231.33 924h11.33v22.66z" style="fill:#0060af;fill-opacity:1"/><path d="M253.33 946.66H242V924h11.33c6.42 0 11.33 4.91 11.33 11.33s-4.91 11.33-11.33 11.33zm66 0c-6.42 0-11.33-4.91-11.33-11.33V924h22.66v11.33c0 6.42-4.91 11.33-11.33 11.33zm55.33 0h-11.33c-6.42 0-11.33-4.91-11.33-11.33S356.91 924 363.33 924h11.33v22.66z" style="fill:#0060af;fill-opacity:1"/><path style="fill:#0060af;fill-opacity:1" d="M374 924h22.66v22.66H374z"/><path style="fill:#0060af;fill-opacity:1" d="M396 924h22.66v22.66H396z"/><path d="M429.33 946.66H418V924h11.33c6.42 0 11.33 4.91 11.33 11.33s-4.91 11.33-11.33 11.33z" style="fill:#0060af;fill-opacity:1"/><circle cx="3" cy="3" r="3" style="fill:#0060af;fill-opacity:1" transform="translate(528 924) scale(3.77667)"/><circle cx="3" cy="3" r="3" style="fill:#0060af;fill-opacity:1" transform="translate(594 924) scale(3.77667)"/><path d="M660.66 946.66h-11.33c-6.42 0-11.33-4.91-11.33-11.33S642.91 924 649.33 924h11.33v22.66z" style="fill:#0060af;fill-opacity:1"/><path style="fill:#0060af;fill-opacity:1" d="M660 924h22.66v22.66H660z"/><path style="fill:#0060af;fill-opacity:1" d="M682 924h22.66v22.66H682z"/><path d="M715.33 946.66H704V924h11.33c6.42 0 11.33 4.91 11.33 11.33s-4.91 11.33-11.33 11.33zm55.33 0h-11.33c-6.42 0-11.33-4.91-11.33-11.33S752.91 924 759.33 924h11.33v22.66z" style="fill:#0060af;fill-opacity:1"/><path d="M781.33 946.66H770V924h22.66v11.33c0 6.42-4.91 11.33-11.33 11.33zm55.33 0h-11.33c-6.42 0-11.33-4.91-11.33-11.33S818.91 924 825.33 924h11.33v22.66z" style="fill:#0060af;fill-opacity:1"/><path style="fill:#0060af;fill-opacity:1" d="M836 924h22.66v22.66H836z"/><path style="fill:#0060af;fill-opacity:1" d="M858 924h22.66v22.66H858z"/><path d="M891.33 946.66H880V924h11.33c6.42 0 11.33 4.91 11.33 11.33s-4.91 11.33-11.33 11.33zM93.5 198h56.1c26.4 0 48.4-22 48.4-48.4V93.5C198 66 176 44 148.5 44H92.4C66 44 44 66 44 92.4v56.1C44 176 66 198 93.5 198zM176 96.8v48.4c0 16.5-14.3 30.8-30.8 30.8H96.8C79.2 176 66 162.8 66 145.2V96.8C66 80.3 80.3 66 96.8 66h48.4c17.6 0 30.8 13.2 30.8 30.8zM841.5 198h56.1c26.4 0 48.4-22 48.4-48.4V93.5C946 66 924 44 896.5 44h-56.1C814 44 792 66 792 92.4v56.1c0 27.5 22 49.5 49.5 49.5zM924 96.8v48.4c0 16.5-14.3 30.8-30.8 30.8h-48.4c-17.6 0-30.8-13.2-30.8-30.8V96.8c0-16.5 14.3-30.8 30.8-30.8h48.4c17.6 0 30.8 13.2 30.8 30.8zM93.5 946h56.1c26.4 0 48.4-22 48.4-48.4v-56.1c0-27.5-22-49.5-49.5-49.5H92.4C66 792 44 814 44 840.4v56.1C44 924 66 946 93.5 946zM176 844.8v48.4c0 16.5-14.3 30.8-30.8 30.8H96.8C79.2 924 66 910.8 66 893.2v-48.4c0-16.5 14.3-30.8 30.8-30.8h48.4c17.6 0 30.8 13.2 30.8 30.8z" style="fill:#0060af;fill-opacity:1"/><path d="M154 106.7v29.7c0 8.8-8.8 17.6-18.7 17.6h-28.6c-11 0-18.7-7.7-18.7-18.7v-28.6c0-9.9 8.8-18.7 18.7-18.7h29.7c9.9 0 17.6 7.7 17.6 18.7zm748 0v29.7c0 8.8-8.8 17.6-18.7 17.6h-28.6c-11 0-18.7-7.7-18.7-18.7v-28.6c0-9.9 8.8-18.7 18.7-18.7h29.7c9.9 0 17.6 7.7 17.6 18.7zm-748 748v29.7c0 8.8-8.8 17.6-18.7 17.6h-28.6c-11 0-18.7-7.7-18.7-18.7v-28.6c0-9.9 8.8-18.7 18.7-18.7h29.7c9.9 0 17.6 7.7 17.6 18.7z" style="fill:#0060af;fill-opacity:1"/></g><rect style="fill:#0060af;fill-opacity:1;stroke-width:40.3499" width="88.041" height="88.041" x="153.479" y="153.479" ry="17.819"/><g style="clip-rule:evenodd;fill-rule:evenodd;stroke-linejoin:round;stroke-miterlimit:2;fill:#fff;fill-opacity:1"><path d="M176.092 199.2c1.885-.032 5.345-.402 4.45 2.378-.619 1.885-3.12 1.669-5.438 1.669zm2.04-7.816c1.698-.124 4.602-.495 3.707 1.977-.618 1.7-2.533 1.483-4.573 1.452zm-8.96.741h1.607c.062 1.081-1.7 7.106-2.07 8.62-.556 2.07-2.04 6.827-2.193 8.711 2.842.124 5.993.031 8.866.031 3.151 0 5.22.03 7.723-1.39 3.058-1.73 5.19-5.623 3.676-9.237-.618-1.483-1.359-1.36-2.255-2.256 1.73-1.142 3.12-2.007 4.109-4.016 1.05-2.1.618-4.85-.803-6.147-1.669-1.483-3.893-1.545-6.58-1.545-2.657-.03-5.685-.123-8.342.031-.524.618-3.46 6.333-3.738 7.198zm48.596 7.414c0-.618 2.44-6.178 2.903-6.827l-.03 6.827zm-5.747-7.692l1.822.062c-.4 1.7-8.31 15.786-8.649 17.547h8.34l1.793-4.202 5.313-.03.093 4.232 7.754.031-1.02-24.529-11.677-.062z" style="fill:#fff;fill-opacity:1"/><path d="M207.047 201.98c-12.295 6.488-14.674-7.29-6.209-9.515 1.328-.34 2.934-.37 4.294 0 1.607.433 2.286 1.205 3.275 1.606l3.645-6.549c-1.143-1.081-3.553-1.977-4.973-2.78-.526.278-.495.68-1.237.618-.772-.093-.988-.279-1.977-.279a16.77 16.77 0 00-3.954.587c-13.377 3.492-16.806 22.861-2.533 24.499 1.359.154 2.78.123 4.14-.124 2.224-.37 1.915-.03 2.718-1.853.618-1.36 2.564-5.036 2.811-6.21z" style="fill:#fff;fill-opacity:1"/><path d="M175.104 203.247c2.317 0 4.819.216 5.437-1.669.896-2.78-2.564-2.41-4.449-2.378zm2.162-8.434c2.04.03 3.955.247 4.573-1.452.895-2.472-2.009-2.1-3.708-1.977zm40.502 4.726h2.872l.031-6.827c-.463.649-2.903 6.21-2.903 6.827z" style="fill:#0060af;fill-opacity:1"/></g></svg>