<svg viewBox="0 0 888 888"><g fill="#2a84d8"><circle cx="3" cy="3" r="3" transform="matrix(4.12 0 0 4.12 240 48)"/><circle cx="3" cy="3" r="3" transform="matrix(4.12 0 0 4.12 288 48)"/><circle cx="3" cy="3" r="3" transform="matrix(4.12 0 0 4.12 408 48)"/><circle cx="3" cy="3" r="3" transform="matrix(4.12 0 0 4.12 480 48)"/><circle cx="3" cy="3" r="3" transform="matrix(4.12 0 0 4.12 528 48)"/><circle cx="3" cy="3" r="3" transform="matrix(4.12 0 0 4.12 552 48)"/><circle cx="3" cy="3" r="3" transform="matrix(4.12 0 0 4.12 600 48)"/><circle cx="3" cy="3" r="3" transform="matrix(4.12 0 0 4.12 624 48)"/><circle cx="3" cy="3" r="3" transform="matrix(4.12 0 0 4.12 240 72)"/><circle cx="3" cy="3" r="3" transform="matrix(4.12 0 0 4.12 312 72)"/><circle cx="3" cy="3" r="3" transform="matrix(4.12 0 0 4.12 336 72)"/><circle cx="3" cy="3" r="3" transform="matrix(4.12 0 0 4.12 384 72)"/><circle cx="3" cy="3" r="3" transform="matrix(4.12 0 0 4.12 552 72)"/><circle cx="3" cy="3" r="3" transform="matrix(4.12 0 0 4.12 624 72)"/><circle cx="3" cy="3" r="3" transform="matrix(4.12 0 0 4.12 240 96)"/><circle cx="3" cy="3" r="3" transform="matrix(4.12 0 0 4.12 288 96)"/><circle cx="3" cy="3" r="3" transform="matrix(4.12 0 0 4.12 408 96)"/><circle cx="3" cy="3" r="3" transform="matrix(4.12 0 0 4.12 432 96)"/><circle cx="3" cy="3" r="3" transform="matrix(4.12 0 0 4.12 480 96)"/><circle cx="3" cy="3" r="3" transform="matrix(4.12 0 0 4.12 552 96)"/><circle cx="3" cy="3" r="3" transform="matrix(4.12 0 0 4.12 576 96)"/><circle cx="3" cy="3" r="3" transform="matrix(4.12 0 0 4.12 600 96)"/><circle cx="3" cy="3" r="3" transform="matrix(4.12 0 0 4.12 624 96)"/><circle cx="3" cy="3" r="3" transform="matrix(4.12 0 0 4.12 264 120)"/><circle cx="3" cy="3" r="3" transform="matrix(4.12 0 0 4.12 288 120)"/><circle cx="3" cy="3" r="3" transform="matrix(4.12 0 0 4.12 360 120)"/><circle cx="3" cy="3" r="3" transform="matrix(4.12 0 0 4.12 384 120)"/><circle cx="3" cy="3" r="3" transform="matrix(4.12 0 0 4.12 480 120)"/><circle cx="3" cy="3" r="3" transform="matrix(4.12 0 0 4.12 576 120)"/><circle cx="3" cy="3" r="3" transform="matrix(4.12 0 0 4.12 600 120)"/><circle cx="3" cy="3" r="3" transform="matrix(4.12 0 0 4.12 624 120)"/><circle cx="3" cy="3" r="3" transform="matrix(4.12 0 0 4.12 264 144)"/><circle cx="3" cy="3" r="3" transform="matrix(4.12 0 0 4.12 288 144)"/><circle cx="3" cy="3" r="3" transform="matrix(4.12 0 0 4.12 312 144)"/><circle cx="3" cy="3" r="3" transform="matrix(4.12 0 0 4.12 336 144)"/><circle cx="3" cy="3" r="3" transform="matrix(4.12 0 0 4.12 360 144)"/><circle cx="3" cy="3" r="3" transform="matrix(4.12 0 0 4.12 480 144)"/><circle cx="3" cy="3" r="3" transform="matrix(4.12 0 0 4.12 504 144)"/><circle cx="3" cy="3" r="3" transform="matrix(4.12 0 0 4.12 528 144)"/><circle cx="3" cy="3" r="3" transform="matrix(4.12 0 0 4.12 240 168)"/><circle cx="3" cy="3" r="3" transform="matrix(4.12 0 0 4.12 264 168)"/><circle cx="3" cy="3" r="3" transform="matrix(4.12 0 0 4.12 360 168)"/><circle cx="3" cy="3" r="3" transform="matrix(4.12 0 0 4.12 384 168)"/><circle cx="3" cy="3" r="3" transform="matrix(4.12 0 0 4.12 408 168)"/><circle cx="3" cy="3" r="3" transform="matrix(4.12 0 0 4.12 480 168)"/><circle cx="3" cy="3" r="3" transform="matrix(4.12 0 0 4.12 576 168)"/><circle cx="3" cy="3" r="3" transform="matrix(4.12 0 0 4.12 600 168)"/><circle cx="3" cy="3" r="3" transform="matrix(4.12 0 0 4.12 624 168)"/><circle cx="3" cy="3" r="3" transform="matrix(4.12 0 0 4.12 240 192)"/><circle cx="3" cy="3" r="3" transform="matrix(4.12 0 0 4.12 288 192)"/><circle cx="3" cy="3" r="3" transform="matrix(4.12 0 0 4.12 336 192)"/><circle cx="3" cy="3" r="3" transform="matrix(4.12 0 0 4.12 384 192)"/><circle cx="3" cy="3" r="3" transform="matrix(4.12 0 0 4.12 432 192)"/><circle cx="3" cy="3" r="3" transform="matrix(4.12 0 0 4.12 480 192)"/><circle cx="3" cy="3" r="3" transform="matrix(4.12 0 0 4.12 528 192)"/><circle cx="3" cy="3" r="3" transform="matrix(4.12 0 0 4.12 576 192)"/><circle cx="3" cy="3" r="3" transform="matrix(4.12 0 0 4.12 624 192)"/><circle cx="3" cy="3" r="3" transform="matrix(4.12 0 0 4.12 240 216)"/><circle cx="3" cy="3" r="3" transform="matrix(4.12 0 0 4.12 264 216)"/><circle cx="3" cy="3" r="3" transform="matrix(4.12 0 0 4.12 288 216)"/><circle cx="3" cy="3" r="3" transform="matrix(4.12 0 0 4.12 360 216)"/><circle cx="3" cy="3" r="3" transform="matrix(4.12 0 0 4.12 408 216)"/><circle cx="3" cy="3" r="3" transform="matrix(4.12 0 0 4.12 456 216)"/><circle cx="3" cy="3" r="3" transform="matrix(4.12 0 0 4.12 504 216)"/><circle cx="3" cy="3" r="3" transform="matrix(4.12 0 0 4.12 552 216)"/><circle cx="3" cy="3" r="3" transform="matrix(4.12 0 0 4.12 576 216)"/><circle cx="3" cy="3" r="3" transform="matrix(4.12 0 0 4.12 600 216)"/><circle cx="3" cy="3" r="3" transform="matrix(4.12 0 0 4.12 96 240)"/><circle cx="3" cy="3" r="3" transform="matrix(4.12 0 0 4.12 120 240)"/><circle cx="3" cy="3" r="3" transform="matrix(4.12 0 0 4.12 144 240)"/><circle cx="3" cy="3" r="3" transform="matrix(4.12 0 0 4.12 192 240)"/><circle cx="3" cy="3" r="3" transform="matrix(4.12 0 0 4.12 240 240)"/><circle cx="3" cy="3" r="3" transform="matrix(4.12 0 0 4.12 288 240)"/><circle cx="3" cy="3" r="3" transform="matrix(4.12 0 0 4.12 312 240)"/><circle cx="3" cy="3" r="3" transform="matrix(4.12 0 0 4.12 408 240)"/><circle cx="3" cy="3" r="3" transform="matrix(4.12 0 0 4.12 432 240)"/><circle cx="3" cy="3" r="3" transform="matrix(4.12 0 0 4.12 456 240)"/><circle cx="3" cy="3" r="3" transform="matrix(4.12 0 0 4.12 480 240)"/><circle cx="3" cy="3" r="3" transform="matrix(4.12 0 0 4.12 528 240)"/><circle cx="3" cy="3" r="3" transform="matrix(4.12 0 0 4.12 576 240)"/><circle cx="3" cy="3" r="3" transform="matrix(4.12 0 0 4.12 600 240)"/><circle cx="3" cy="3" r="3" transform="matrix(4.12 0 0 4.12 624 240)"/><circle cx="3" cy="3" r="3" transform="matrix(4.12 0 0 4.12 648 240)"/><circle cx="3" cy="3" r="3" transform="matrix(4.12 0 0 4.12 672 240)"/><circle cx="3" cy="3" r="3" transform="matrix(4.12 0 0 4.12 696 240)"/><circle cx="3" cy="3" r="3" transform="matrix(4.12 0 0 4.12 768 240)"/><circle cx="3" cy="3" r="3" transform="matrix(4.12 0 0 4.12 792 240)"/><circle cx="3" cy="3" r="3" transform="matrix(4.12 0 0 4.12 816 240)"/><circle cx="3" cy="3" r="3" transform="matrix(4.12 0 0 4.12 168 264)"/><circle cx="3" cy="3" r="3" transform="matrix(4.12 0 0 4.12 360 264)"/><circle cx="3" cy="3" r="3" transform="matrix(4.12 0 0 4.12 384 264)"/><circle cx="3" cy="3" r="3" transform="matrix(4.12 0 0 4.12 408 264)"/><circle cx="3" cy="3" r="3" transform="matrix(4.12 0 0 4.12 456 264)"/><circle cx="3" cy="3" r="3" transform="matrix(4.12 0 0 4.12 528 264)"/><circle cx="3" cy="3" r="3" transform="matrix(4.12 0 0 4.12 552 264)"/><circle cx="3" cy="3" r="3" transform="matrix(4.12 0 0 4.12 600 264)"/><circle cx="3" cy="3" r="3" transform="matrix(4.12 0 0 4.12 624 264)"/><circle cx="3" cy="3" r="3" transform="matrix(4.12 0 0 4.12 648 264)"/><circle cx="3" cy="3" r="3" transform="matrix(4.12 0 0 4.12 672 264)"/><circle cx="3" cy="3" r="3" transform="matrix(4.12 0 0 4.12 744 264)"/><circle cx="3" cy="3" r="3" transform="matrix(4.12 0 0 4.12 816 264)"/><circle cx="3" cy="3" r="3" transform="matrix(4.12 0 0 4.12 96 288)"/><circle cx="3" cy="3" r="3" transform="matrix(4.12 0 0 4.12 192 288)"/><circle cx="3" cy="3" r="3" transform="matrix(4.12 0 0 4.12 288 288)"/><circle cx="3" cy="3" r="3" transform="matrix(4.12 0 0 4.12 336 288)"/><circle cx="3" cy="3" r="3" transform="matrix(4.12 0 0 4.12 408 288)"/><circle cx="3" cy="3" r="3" transform="matrix(4.12 0 0 4.12 480 288)"/><circle cx="3" cy="3" r="3" transform="matrix(4.12 0 0 4.12 552 288)"/><circle cx="3" cy="3" r="3" transform="matrix(4.12 0 0 4.12 624 288)"/><circle cx="3" cy="3" r="3" transform="matrix(4.12 0 0 4.12 672 288)"/><circle cx="3" cy="3" r="3" transform="matrix(4.12 0 0 4.12 696 288)"/><circle cx="3" cy="3" r="3" transform="matrix(4.12 0 0 4.12 792 288)"/><circle cx="3" cy="3" r="3" transform="matrix(4.12 0 0 4.12 96 312)"/><circle cx="3" cy="3" r="3" transform="matrix(4.12 0 0 4.12 216 312)"/><circle cx="3" cy="3" r="3" transform="matrix(4.12 0 0 4.12 240 312)"/><circle cx="3" cy="3" r="3" transform="matrix(4.12 0 0 4.12 288 312)"/><circle cx="3" cy="3" r="3" transform="matrix(4.12 0 0 4.12 312 312)"/><circle cx="3" cy="3" r="3" transform="matrix(4.12 0 0 4.12 384 312)"/><circle cx="3" cy="3" r="3" transform="matrix(4.12 0 0 4.12 408 312)"/><circle cx="3" cy="3" r="3" transform="matrix(4.12 0 0 4.12 432 312)"/><circle cx="3" cy="3" r="3" transform="matrix(4.12 0 0 4.12 552 312)"/><circle cx="3" cy="3" r="3" transform="matrix(4.12 0 0 4.12 576 312)"/><circle cx="3" cy="3" r="3" transform="matrix(4.12 0 0 4.12 600 312)"/><circle cx="3" cy="3" r="3" transform="matrix(4.12 0 0 4.12 624 312)"/><circle cx="3" cy="3" r="3" transform="matrix(4.12 0 0 4.12 648 312)"/><circle cx="3" cy="3" r="3" transform="matrix(4.12 0 0 4.12 672 312)"/><circle cx="3" cy="3" r="3" transform="matrix(4.12 0 0 4.12 744 312)"/><circle cx="3" cy="3" r="3" transform="matrix(4.12 0 0 4.12 768 312)"/><circle cx="3" cy="3" r="3" transform="matrix(4.12 0 0 4.12 120 336)"/><circle cx="3" cy="3" r="3" transform="matrix(4.12 0 0 4.12 192 336)"/><circle cx="3" cy="3" r="3" transform="matrix(4.12 0 0 4.12 240 336)"/><circle cx="3" cy="3" r="3" transform="matrix(4.12 0 0 4.12 264 336)"/><circle cx="3" cy="3" r="3" transform="matrix(4.12 0 0 4.12 288 336)"/><circle cx="3" cy="3" r="3" transform="matrix(4.12 0 0 4.12 312 336)"/><circle cx="3" cy="3" r="3" transform="matrix(4.12 0 0 4.12 552 336)"/><circle cx="3" cy="3" r="3" transform="matrix(4.12 0 0 4.12 624 336)"/><circle cx="3" cy="3" r="3" transform="matrix(4.12 0 0 4.12 720 336)"/><circle cx="3" cy="3" r="3" transform="matrix(4.12 0 0 4.12 792 336)"/><circle cx="3" cy="3" r="3" transform="matrix(4.12 0 0 4.12 816 336)"/><circle cx="3" cy="3" r="3" transform="matrix(4.12 0 0 4.12 48 360)"/><circle cx="3" cy="3" r="3" transform="matrix(4.12 0 0 4.12 72 360)"/><circle cx="3" cy="3" r="3" transform="matrix(4.12 0 0 4.12 144 360)"/><circle cx="3" cy="3" r="3" transform="matrix(4.12 0 0 4.12 168 360)"/><circle cx="3" cy="3" r="3" transform="matrix(4.12 0 0 4.12 216 360)"/><circle cx="3" cy="3" r="3" transform="matrix(4.12 0 0 4.12 264 360)"/><circle cx="3" cy="3" r="3" transform="matrix(4.12 0 0 4.12 288 360)"/><circle cx="3" cy="3" r="3" transform="matrix(4.12 0 0 4.12 312 360)"/><circle cx="3" cy="3" r="3" transform="matrix(4.12 0 0 4.12 576 360)"/><circle cx="3" cy="3" r="3" transform="matrix(4.12 0 0 4.12 600 360)"/><circle cx="3" cy="3" r="3" transform="matrix(4.12 0 0 4.12 672 360)"/><circle cx="3" cy="3" r="3" transform="matrix(4.12 0 0 4.12 696 360)"/><circle cx="3" cy="3" r="3" transform="matrix(4.12 0 0 4.12 768 360)"/><circle cx="3" cy="3" r="3" transform="matrix(4.12 0 0 4.12 816 360)"/><circle cx="3" cy="3" r="3" transform="matrix(4.12 0 0 4.12 48 384)"/><circle cx="3" cy="3" r="3" transform="matrix(4.12 0 0 4.12 72 384)"/><circle cx="3" cy="3" r="3" transform="matrix(4.12 0 0 4.12 144 384)"/><circle cx="3" cy="3" r="3" transform="matrix(4.12 0 0 4.12 168 384)"/><circle cx="3" cy="3" r="3" transform="matrix(4.12 0 0 4.12 192 384)"/><circle cx="3" cy="3" r="3" transform="matrix(4.12 0 0 4.12 576 384)"/><circle cx="3" cy="3" r="3" transform="matrix(4.12 0 0 4.12 624 384)"/><circle cx="3" cy="3" r="3" transform="matrix(4.12 0 0 4.12 648 384)"/><circle cx="3" cy="3" r="3" transform="matrix(4.12 0 0 4.12 672 384)"/><circle cx="3" cy="3" r="3" transform="matrix(4.12 0 0 4.12 720 384)"/><circle cx="3" cy="3" r="3" transform="matrix(4.12 0 0 4.12 768 384)"/><circle cx="3" cy="3" r="3" transform="matrix(4.12 0 0 4.12 792 384)"/><circle cx="3" cy="3" r="3" transform="matrix(4.12 0 0 4.12 168 408)"/><circle cx="3" cy="3" r="3" transform="matrix(4.12 0 0 4.12 264 408)"/><circle cx="3" cy="3" r="3" transform="matrix(4.12 0 0 4.12 288 408)"/><circle cx="3" cy="3" r="3" transform="matrix(4.12 0 0 4.12 552 408)"/><circle cx="3" cy="3" r="3" transform="matrix(4.12 0 0 4.12 576 408)"/><circle cx="3" cy="3" r="3" transform="matrix(4.12 0 0 4.12 648 408)"/><circle cx="3" cy="3" r="3" transform="matrix(4.12 0 0 4.12 672 408)"/><circle cx="3" cy="3" r="3" transform="matrix(4.12 0 0 4.12 696 408)"/><circle cx="3" cy="3" r="3" transform="matrix(4.12 0 0 4.12 720 408)"/><circle cx="3" cy="3" r="3" transform="matrix(4.12 0 0 4.12 768 408)"/><circle cx="3" cy="3" r="3" transform="matrix(4.12 0 0 4.12 792 408)"/><circle cx="3" cy="3" r="3" transform="matrix(4.12 0 0 4.12 816 408)"/><circle cx="3" cy="3" r="3" transform="matrix(4.12 0 0 4.12 48 432)"/><circle cx="3" cy="3" r="3" transform="matrix(4.12 0 0 4.12 96 432)"/><circle cx="3" cy="3" r="3" transform="matrix(4.12 0 0 4.12 144 432)"/><circle cx="3" cy="3" r="3" transform="matrix(4.12 0 0 4.12 192 432)"/><circle cx="3" cy="3" r="3" transform="matrix(4.12 0 0 4.12 240 432)"/><circle cx="3" cy="3" r="3" transform="matrix(4.12 0 0 4.12 648 432)"/><circle cx="3" cy="3" r="3" transform="matrix(4.12 0 0 4.12 696 432)"/><circle cx="3" cy="3" r="3" transform="matrix(4.12 0 0 4.12 720 432)"/><circle cx="3" cy="3" r="3" transform="matrix(4.12 0 0 4.12 744 432)"/><circle cx="3" cy="3" r="3" transform="matrix(4.12 0 0 4.12 792 432)"/><circle cx="3" cy="3" r="3" transform="matrix(4.12 0 0 4.12 816 432)"/><circle cx="3" cy="3" r="3" transform="matrix(4.12 0 0 4.12 72 456)"/><circle cx="3" cy="3" r="3" transform="matrix(4.12 0 0 4.12 120 456)"/><circle cx="3" cy="3" r="3" transform="matrix(4.12 0 0 4.12 168 456)"/><circle cx="3" cy="3" r="3" transform="matrix(4.12 0 0 4.12 240 456)"/><circle cx="3" cy="3" r="3" transform="matrix(4.12 0 0 4.12 600 456)"/><circle cx="3" cy="3" r="3" transform="matrix(4.12 0 0 4.12 624 456)"/><circle cx="3" cy="3" r="3" transform="matrix(4.12 0 0 4.12 648 456)"/><circle cx="3" cy="3" r="3" transform="matrix(4.12 0 0 4.12 672 456)"/><circle cx="3" cy="3" r="3" transform="matrix(4.12 0 0 4.12 696 456)"/><circle cx="3" cy="3" r="3" transform="matrix(4.12 0 0 4.12 792 456)"/><circle cx="3" cy="3" r="3" transform="matrix(4.12 0 0 4.12 816 456)"/><circle cx="3" cy="3" r="3" transform="matrix(4.12 0 0 4.12 48 480)"/><circle cx="3" cy="3" r="3" transform="matrix(4.12 0 0 4.12 120 480)"/><circle cx="3" cy="3" r="3" transform="matrix(4.12 0 0 4.12 144 480)"/><circle cx="3" cy="3" r="3" transform="matrix(4.12 0 0 4.12 192 480)"/><circle cx="3" cy="3" r="3" transform="matrix(4.12 0 0 4.12 216 480)"/><circle cx="3" cy="3" r="3" transform="matrix(4.12 0 0 4.12 288 480)"/><circle cx="3" cy="3" r="3" transform="matrix(4.12 0 0 4.12 312 480)"/><circle cx="3" cy="3" r="3" transform="matrix(4.12 0 0 4.12 576 480)"/><circle cx="3" cy="3" r="3" transform="matrix(4.12 0 0 4.12 696 480)"/><circle cx="3" cy="3" r="3" transform="matrix(4.12 0 0 4.12 768 480)"/><circle cx="3" cy="3" r="3" transform="matrix(4.12 0 0 4.12 792 480)"/><circle cx="3" cy="3" r="3" transform="matrix(4.12 0 0 4.12 48 504)"/><circle cx="3" cy="3" r="3" transform="matrix(4.12 0 0 4.12 72 504)"/><circle cx="3" cy="3" r="3" transform="matrix(4.12 0 0 4.12 168 504)"/><circle cx="3" cy="3" r="3" transform="matrix(4.12 0 0 4.12 240 504)"/><circle cx="3" cy="3" r="3" transform="matrix(4.12 0 0 4.12 264 504)"/><circle cx="3" cy="3" r="3" transform="matrix(4.12 0 0 4.12 312 504)"/><circle cx="3" cy="3" r="3" transform="matrix(4.12 0 0 4.12 552 504)"/><circle cx="3" cy="3" r="3" transform="matrix(4.12 0 0 4.12 600 504)"/><circle cx="3" cy="3" r="3" transform="matrix(4.12 0 0 4.12 624 504)"/><circle cx="3" cy="3" r="3" transform="matrix(4.12 0 0 4.12 672 504)"/><circle cx="3" cy="3" r="3" transform="matrix(4.12 0 0 4.12 744 504)"/><circle cx="3" cy="3" r="3" transform="matrix(4.12 0 0 4.12 768 504)"/><circle cx="3" cy="3" r="3" transform="matrix(4.12 0 0 4.12 792 504)"/><circle cx="3" cy="3" r="3" transform="matrix(4.12 0 0 4.12 816 504)"/><circle cx="3" cy="3" r="3" transform="matrix(4.12 0 0 4.12 96 528)"/><circle cx="3" cy="3" r="3" transform="matrix(4.12 0 0 4.12 144 528)"/><circle cx="3" cy="3" r="3" transform="matrix(4.12 0 0 4.12 168 528)"/><circle cx="3" cy="3" r="3" transform="matrix(4.12 0 0 4.12 192 528)"/><circle cx="3" cy="3" r="3" transform="matrix(4.12 0 0 4.12 216 528)"/><circle cx="3" cy="3" r="3" transform="matrix(4.12 0 0 4.12 240 528)"/><circle cx="3" cy="3" r="3" transform="matrix(4.12 0 0 4.12 576 528)"/><circle cx="3" cy="3" r="3" transform="matrix(4.12 0 0 4.12 624 528)"/><circle cx="3" cy="3" r="3" transform="matrix(4.12 0 0 4.12 696 528)"/><circle cx="3" cy="3" r="3" transform="matrix(4.12 0 0 4.12 720 528)"/><circle cx="3" cy="3" r="3" transform="matrix(4.12 0 0 4.12 744 528)"/><circle cx="3" cy="3" r="3" transform="matrix(4.12 0 0 4.12 48 552)"/><circle cx="3" cy="3" r="3" transform="matrix(4.12 0 0 4.12 72 552)"/><circle cx="3" cy="3" r="3" transform="matrix(4.12 0 0 4.12 96 552)"/><circle cx="3" cy="3" r="3" transform="matrix(4.12 0 0 4.12 168 552)"/><circle cx="3" cy="3" r="3" transform="matrix(4.12 0 0 4.12 216 552)"/><circle cx="3" cy="3" r="3" transform="matrix(4.12 0 0 4.12 288 552)"/><circle cx="3" cy="3" r="3" transform="matrix(4.12 0 0 4.12 312 552)"/><circle cx="3" cy="3" r="3" transform="matrix(4.12 0 0 4.12 360 552)"/><circle cx="3" cy="3" r="3" transform="matrix(4.12 0 0 4.12 480 552)"/><circle cx="3" cy="3" r="3" transform="matrix(4.12 0 0 4.12 552 552)"/><circle cx="3" cy="3" r="3" transform="matrix(4.12 0 0 4.12 624 552)"/><circle cx="3" cy="3" r="3" transform="matrix(4.12 0 0 4.12 648 552)"/><circle cx="3" cy="3" r="3" transform="matrix(4.12 0 0 4.12 672 552)"/><circle cx="3" cy="3" r="3" transform="matrix(4.12 0 0 4.12 816 552)"/><circle cx="3" cy="3" r="3" transform="matrix(4.12 0 0 4.12 48 576)"/><circle cx="3" cy="3" r="3" transform="matrix(4.12 0 0 4.12 96 576)"/><circle cx="3" cy="3" r="3" transform="matrix(4.12 0 0 4.12 168 576)"/><circle cx="3" cy="3" r="3" transform="matrix(4.12 0 0 4.12 192 576)"/><circle cx="3" cy="3" r="3" transform="matrix(4.12 0 0 4.12 240 576)"/><circle cx="3" cy="3" r="3" transform="matrix(4.12 0 0 4.12 264 576)"/><circle cx="3" cy="3" r="3" transform="matrix(4.12 0 0 4.12 360 576)"/><circle cx="3" cy="3" r="3" transform="matrix(4.12 0 0 4.12 432 576)"/><circle cx="3" cy="3" r="3" transform="matrix(4.12 0 0 4.12 456 576)"/><circle cx="3" cy="3" r="3" transform="matrix(4.12 0 0 4.12 480 576)"/><circle cx="3" cy="3" r="3" transform="matrix(4.12 0 0 4.12 528 576)"/><circle cx="3" cy="3" r="3" transform="matrix(4.12 0 0 4.12 576 576)"/><circle cx="3" cy="3" r="3" transform="matrix(4.12 0 0 4.12 624 576)"/><circle cx="3" cy="3" r="3" transform="matrix(4.12 0 0 4.12 696 576)"/><circle cx="3" cy="3" r="3" transform="matrix(4.12 0 0 4.12 720 576)"/><circle cx="3" cy="3" r="3" transform="matrix(4.12 0 0 4.12 744 576)"/><circle cx="3" cy="3" r="3" transform="matrix(4.12 0 0 4.12 768 576)"/><circle cx="3" cy="3" r="3" transform="matrix(4.12 0 0 4.12 48 600)"/><circle cx="3" cy="3" r="3" transform="matrix(4.12 0 0 4.12 96 600)"/><circle cx="3" cy="3" r="3" transform="matrix(4.12 0 0 4.12 144 600)"/><circle cx="3" cy="3" r="3" transform="matrix(4.12 0 0 4.12 168 600)"/><circle cx="3" cy="3" r="3" transform="matrix(4.12 0 0 4.12 288 600)"/><circle cx="3" cy="3" r="3" transform="matrix(4.12 0 0 4.12 312 600)"/><circle cx="3" cy="3" r="3" transform="matrix(4.12 0 0 4.12 336 600)"/><circle cx="3" cy="3" r="3" transform="matrix(4.12 0 0 4.12 360 600)"/><circle cx="3" cy="3" r="3" transform="matrix(4.12 0 0 4.12 408 600)"/><circle cx="3" cy="3" r="3" transform="matrix(4.12 0 0 4.12 432 600)"/><circle cx="3" cy="3" r="3" transform="matrix(4.12 0 0 4.12 480 600)"/><circle cx="3" cy="3" r="3" transform="matrix(4.12 0 0 4.12 528 600)"/><circle cx="3" cy="3" r="3" transform="matrix(4.12 0 0 4.12 552 600)"/><circle cx="3" cy="3" r="3" transform="matrix(4.12 0 0 4.12 576 600)"/><circle cx="3" cy="3" r="3" transform="matrix(4.12 0 0 4.12 600 600)"/><circle cx="3" cy="3" r="3" transform="matrix(4.12 0 0 4.12 720 600)"/><circle cx="3" cy="3" r="3" transform="matrix(4.12 0 0 4.12 744 600)"/><circle cx="3" cy="3" r="3" transform="matrix(4.12 0 0 4.12 768 600)"/><circle cx="3" cy="3" r="3" transform="matrix(4.12 0 0 4.12 792 600)"/><circle cx="3" cy="3" r="3" transform="matrix(4.12 0 0 4.12 48 624)"/><circle cx="3" cy="3" r="3" transform="matrix(4.12 0 0 4.12 96 624)"/><circle cx="3" cy="3" r="3" transform="matrix(4.12 0 0 4.12 192 624)"/><circle cx="3" cy="3" r="3" transform="matrix(4.12 0 0 4.12 216 624)"/><circle cx="3" cy="3" r="3" transform="matrix(4.12 0 0 4.12 264 624)"/><circle cx="3" cy="3" r="3" transform="matrix(4.12 0 0 4.12 312 624)"/><circle cx="3" cy="3" r="3" transform="matrix(4.12 0 0 4.12 336 624)"/><circle cx="3" cy="3" r="3" transform="matrix(4.12 0 0 4.12 432 624)"/><circle cx="3" cy="3" r="3" transform="matrix(4.12 0 0 4.12 504 624)"/><circle cx="3" cy="3" r="3" transform="matrix(4.12 0 0 4.12 624 624)"/><circle cx="3" cy="3" r="3" transform="matrix(4.12 0 0 4.12 648 624)"/><circle cx="3" cy="3" r="3" transform="matrix(4.12 0 0 4.12 672 624)"/><circle cx="3" cy="3" r="3" transform="matrix(4.12 0 0 4.12 696 624)"/><circle cx="3" cy="3" r="3" transform="matrix(4.12 0 0 4.12 720 624)"/><circle cx="3" cy="3" r="3" transform="matrix(4.12 0 0 4.12 240 648)"/><circle cx="3" cy="3" r="3" transform="matrix(4.12 0 0 4.12 264 648)"/><circle cx="3" cy="3" r="3" transform="matrix(4.12 0 0 4.12 288 648)"/><circle cx="3" cy="3" r="3" transform="matrix(4.12 0 0 4.12 336 648)"/><circle cx="3" cy="3" r="3" transform="matrix(4.12 0 0 4.12 360 648)"/><circle cx="3" cy="3" r="3" transform="matrix(4.12 0 0 4.12 384 648)"/><circle cx="3" cy="3" r="3" transform="matrix(4.12 0 0 4.12 432 648)"/><circle cx="3" cy="3" r="3" transform="matrix(4.12 0 0 4.12 456 648)"/><circle cx="3" cy="3" r="3" transform="matrix(4.12 0 0 4.12 504 648)"/><circle cx="3" cy="3" r="3" transform="matrix(4.12 0 0 4.12 528 648)"/><circle cx="3" cy="3" r="3" transform="matrix(4.12 0 0 4.12 576 648)"/><circle cx="3" cy="3" r="3" transform="matrix(4.12 0 0 4.12 600 648)"/><circle cx="3" cy="3" r="3" transform="matrix(4.12 0 0 4.12 624 648)"/><circle cx="3" cy="3" r="3" transform="matrix(4.12 0 0 4.12 720 648)"/><circle cx="3" cy="3" r="3" transform="matrix(4.12 0 0 4.12 816 648)"/><circle cx="3" cy="3" r="3" transform="matrix(4.12 0 0 4.12 312 672)"/><circle cx="3" cy="3" r="3" transform="matrix(4.12 0 0 4.12 408 672)"/><circle cx="3" cy="3" r="3" transform="matrix(4.12 0 0 4.12 432 672)"/><circle cx="3" cy="3" r="3" transform="matrix(4.12 0 0 4.12 456 672)"/><circle cx="3" cy="3" r="3" transform="matrix(4.12 0 0 4.12 480 672)"/><circle cx="3" cy="3" r="3" transform="matrix(4.12 0 0 4.12 504 672)"/><circle cx="3" cy="3" r="3" transform="matrix(4.12 0 0 4.12 576 672)"/><circle cx="3" cy="3" r="3" transform="matrix(4.12 0 0 4.12 600 672)"/><circle cx="3" cy="3" r="3" transform="matrix(4.12 0 0 4.12 624 672)"/><circle cx="3" cy="3" r="3" transform="matrix(4.12 0 0 4.12 672 672)"/><circle cx="3" cy="3" r="3" transform="matrix(4.12 0 0 4.12 720 672)"/><circle cx="3" cy="3" r="3" transform="matrix(4.12 0 0 4.12 744 672)"/><circle cx="3" cy="3" r="3" transform="matrix(4.12 0 0 4.12 768 672)"/><circle cx="3" cy="3" r="3" transform="matrix(4.12 0 0 4.12 792 672)"/><circle cx="3" cy="3" r="3" transform="matrix(4.12 0 0 4.12 264 696)"/><circle cx="3" cy="3" r="3" transform="matrix(4.12 0 0 4.12 312 696)"/><circle cx="3" cy="3" r="3" transform="matrix(4.12 0 0 4.12 336 696)"/><circle cx="3" cy="3" r="3" transform="matrix(4.12 0 0 4.12 360 696)"/><circle cx="3" cy="3" r="3" transform="matrix(4.12 0 0 4.12 384 696)"/><circle cx="3" cy="3" r="3" transform="matrix(4.12 0 0 4.12 456 696)"/><circle cx="3" cy="3" r="3" transform="matrix(4.12 0 0 4.12 600 696)"/><circle cx="3" cy="3" r="3" transform="matrix(4.12 0 0 4.12 624 696)"/><circle cx="3" cy="3" r="3" transform="matrix(4.12 0 0 4.12 720 696)"/><circle cx="3" cy="3" r="3" transform="matrix(4.12 0 0 4.12 744 696)"/><circle cx="3" cy="3" r="3" transform="matrix(4.12 0 0 4.12 768 696)"/><circle cx="3" cy="3" r="3" transform="matrix(4.12 0 0 4.12 792 696)"/><circle cx="3" cy="3" r="3" transform="matrix(4.12 0 0 4.12 816 696)"/><circle cx="3" cy="3" r="3" transform="matrix(4.12 0 0 4.12 240 720)"/><circle cx="3" cy="3" r="3" transform="matrix(4.12 0 0 4.12 264 720)"/><circle cx="3" cy="3" r="3" transform="matrix(4.12 0 0 4.12 288 720)"/><circle cx="3" cy="3" r="3" transform="matrix(4.12 0 0 4.12 312 720)"/><circle cx="3" cy="3" r="3" transform="matrix(4.12 0 0 4.12 360 720)"/><circle cx="3" cy="3" r="3" transform="matrix(4.12 0 0 4.12 456 720)"/><circle cx="3" cy="3" r="3" transform="matrix(4.12 0 0 4.12 480 720)"/><circle cx="3" cy="3" r="3" transform="matrix(4.12 0 0 4.12 504 720)"/><circle cx="3" cy="3" r="3" transform="matrix(4.12 0 0 4.12 528 720)"/><circle cx="3" cy="3" r="3" transform="matrix(4.12 0 0 4.12 552 720)"/><circle cx="3" cy="3" r="3" transform="matrix(4.12 0 0 4.12 576 720)"/><circle cx="3" cy="3" r="3" transform="matrix(4.12 0 0 4.12 624 720)"/><circle cx="3" cy="3" r="3" transform="matrix(4.12 0 0 4.12 648 720)"/><circle cx="3" cy="3" r="3" transform="matrix(4.12 0 0 4.12 672 720)"/><circle cx="3" cy="3" r="3" transform="matrix(4.12 0 0 4.12 696 720)"/><circle cx="3" cy="3" r="3" transform="matrix(4.12 0 0 4.12 720 720)"/><circle cx="3" cy="3" r="3" transform="matrix(4.12 0 0 4.12 792 720)"/><circle cx="3" cy="3" r="3" transform="matrix(4.12 0 0 4.12 816 720)"/><circle cx="3" cy="3" r="3" transform="matrix(4.12 0 0 4.12 240 744)"/><circle cx="3" cy="3" r="3" transform="matrix(4.12 0 0 4.12 288 744)"/><circle cx="3" cy="3" r="3" transform="matrix(4.12 0 0 4.12 312 744)"/><circle cx="3" cy="3" r="3" transform="matrix(4.12 0 0 4.12 336 744)"/><circle cx="3" cy="3" r="3" transform="matrix(4.12 0 0 4.12 360 744)"/><circle cx="3" cy="3" r="3" transform="matrix(4.12 0 0 4.12 384 744)"/><circle cx="3" cy="3" r="3" transform="matrix(4.12 0 0 4.12 408 744)"/><circle cx="3" cy="3" r="3" transform="matrix(4.12 0 0 4.12 504 744)"/><circle cx="3" cy="3" r="3" transform="matrix(4.12 0 0 4.12 600 744)"/><circle cx="3" cy="3" r="3" transform="matrix(4.12 0 0 4.12 624 744)"/><circle cx="3" cy="3" r="3" transform="matrix(4.12 0 0 4.12 648 744)"/><circle cx="3" cy="3" r="3" transform="matrix(4.12 0 0 4.12 720 744)"/><circle cx="3" cy="3" r="3" transform="matrix(4.12 0 0 4.12 768 744)"/><circle cx="3" cy="3" r="3" transform="matrix(4.12 0 0 4.12 792 744)"/><circle cx="3" cy="3" r="3" transform="matrix(4.12 0 0 4.12 240 768)"/><circle cx="3" cy="3" r="3" transform="matrix(4.12 0 0 4.12 288 768)"/><circle cx="3" cy="3" r="3" transform="matrix(4.12 0 0 4.12 312 768)"/><circle cx="3" cy="3" r="3" transform="matrix(4.12 0 0 4.12 336 768)"/><circle cx="3" cy="3" r="3" transform="matrix(4.12 0 0 4.12 384 768)"/><circle cx="3" cy="3" r="3" transform="matrix(4.12 0 0 4.12 456 768)"/><circle cx="3" cy="3" r="3" transform="matrix(4.12 0 0 4.12 480 768)"/><circle cx="3" cy="3" r="3" transform="matrix(4.12 0 0 4.12 504 768)"/><circle cx="3" cy="3" r="3" transform="matrix(4.12 0 0 4.12 552 768)"/><circle cx="3" cy="3" r="3" transform="matrix(4.12 0 0 4.12 624 768)"/><circle cx="3" cy="3" r="3" transform="matrix(4.12 0 0 4.12 648 768)"/><circle cx="3" cy="3" r="3" transform="matrix(4.12 0 0 4.12 672 768)"/><circle cx="3" cy="3" r="3" transform="matrix(4.12 0 0 4.12 744 768)"/><circle cx="3" cy="3" r="3" transform="matrix(4.12 0 0 4.12 768 768)"/><circle cx="3" cy="3" r="3" transform="matrix(4.12 0 0 4.12 264 792)"/><circle cx="3" cy="3" r="3" transform="matrix(4.12 0 0 4.12 360 792)"/><circle cx="3" cy="3" r="3" transform="matrix(4.12 0 0 4.12 384 792)"/><circle cx="3" cy="3" r="3" transform="matrix(4.12 0 0 4.12 408 792)"/><circle cx="3" cy="3" r="3" transform="matrix(4.12 0 0 4.12 432 792)"/><circle cx="3" cy="3" r="3" transform="matrix(4.12 0 0 4.12 456 792)"/><circle cx="3" cy="3" r="3" transform="matrix(4.12 0 0 4.12 480 792)"/><circle cx="3" cy="3" r="3" transform="matrix(4.12 0 0 4.12 528 792)"/><circle cx="3" cy="3" r="3" transform="matrix(4.12 0 0 4.12 576 792)"/><circle cx="3" cy="3" r="3" transform="matrix(4.12 0 0 4.12 648 792)"/><circle cx="3" cy="3" r="3" transform="matrix(4.12 0 0 4.12 672 792)"/><circle cx="3" cy="3" r="3" transform="matrix(4.12 0 0 4.12 696 792)"/><circle cx="3" cy="3" r="3" transform="matrix(4.12 0 0 4.12 744 792)"/><circle cx="3" cy="3" r="3" transform="matrix(4.12 0 0 4.12 768 792)"/><circle cx="3" cy="3" r="3" transform="matrix(4.12 0 0 4.12 288 816)"/><circle cx="3" cy="3" r="3" transform="matrix(4.12 0 0 4.12 312 816)"/><circle cx="3" cy="3" r="3" transform="matrix(4.12 0 0 4.12 336 816)"/><circle cx="3" cy="3" r="3" transform="matrix(4.12 0 0 4.12 384 816)"/><circle cx="3" cy="3" r="3" transform="matrix(4.12 0 0 4.12 456 816)"/><circle cx="3" cy="3" r="3" transform="matrix(4.12 0 0 4.12 528 816)"/><circle cx="3" cy="3" r="3" transform="matrix(4.12 0 0 4.12 600 816)"/><circle cx="3" cy="3" r="3" transform="matrix(4.12 0 0 4.12 624 816)"/><circle cx="3" cy="3" r="3" transform="matrix(4.12 0 0 4.12 672 816)"/><circle cx="3" cy="3" r="3" transform="matrix(4.12 0 0 4.12 792 816)"/><path d="M102 216h61.2c28.8 0 52.8-24 52.8-52.8V102c0-30-24-54-54-54h-61.2C72 48 48 72 48 100.8V162c0 30 24 54 54 54zm90-110.4v52.8c0 18-15.6 33.6-33.6 33.6h-52.8C86.4 192 72 177.6 72 158.4v-52.8c0-18 15.6-33.6 33.6-33.6h52.8c19.2 0 33.6 14.4 33.6 33.6zM726 216h61.2c28.8 0 52.8-24 52.8-52.8V102c0-30-24-54-54-54h-61.2C696 48 672 72 672 100.8V162c0 30 24 54 54 54zm90-110.4v52.8c0 18-15.6 33.6-33.6 33.6h-52.8c-19.2 0-33.6-14.4-33.6-33.6v-52.8c0-18 15.6-33.6 33.6-33.6h52.8c19.2 0 33.6 14.4 33.6 33.6zM102 840h61.2c28.8 0 52.8-24 52.8-52.8V726c0-30-24-54-54-54h-61.2C72 672 48 696 48 724.8V786c0 30 24 54 54 54zm90-110.4v52.8c0 18-15.6 33.6-33.6 33.6h-52.8C86.4 816 72 801.6 72 782.4v-52.8c0-18 15.6-33.6 33.6-33.6h52.8c19.2 0 33.6 14.4 33.6 33.6z"/><path d="M168 116.4v32.4c0 9.6-9.6 19.2-20.4 19.2h-31.2c-12 0-20.4-8.4-20.4-20.4v-31.2c0-10.8 9.6-20.4 20.4-20.4h32.4c10.8 0 19.2 8.4 19.2 20.4zm624 0v32.4c0 9.6-9.6 19.2-20.4 19.2h-31.2c-12 0-20.4-8.4-20.4-20.4v-31.2c0-10.8 9.6-20.4 20.4-20.4h32.4c10.8 0 19.2 8.4 19.2 20.4zm-624 624v32.4c0 9.6-9.6 19.2-20.4 19.2h-31.2c-12 0-20.4-8.4-20.4-20.4v-31.2c0-10.8 9.6-20.4 20.4-20.4h32.4c10.8 0 19.2 8.4 19.2 20.4z"/></g></svg>