<svg viewBox="0 0 120 121" style="fill-rule:evenodd;clip-rule:evenodd;stroke-linejoin:round;stroke-miterlimit:2"><path fill="#fff" style="stroke-width:.153125" d="M-.638-.138h121.275v121.275H-.638z"/><g transform="translate(-.638 -.138) scale(.15313)" style="fill:#fd6542;fill-opacity:1"><path d="M288.72 72.72H264V60.36c0-7.004 5.356-12.36 12.36-12.36s12.36 5.356 12.36 12.36z" style="fill:#fd6542;fill-opacity:1"/><circle cx="3" cy="3" r="3" style="fill:#fd6542;fill-opacity:1" transform="matrix(4.12 0 0 4.12 312 48)"/><path d="M384.72 72.72H360V60.36c0-7.004 5.356-12.36 12.36-12.36h12.36z" style="fill:#fd6542;fill-opacity:1"/><path style="fill:#fd6542;fill-opacity:1" d="M384 48h24.72v24.72H384z"/><path d="M432.72 72.72H408V48h12.36c7.004 0 12.36 5.356 12.36 12.36zm48 0h-12.36c-7.004 0-12.36-5.356-12.36-12.36S461.356 48 468.36 48h12.36v24.72z" style="fill:#fd6542;fill-opacity:1"/><path style="fill:#fd6542;fill-opacity:1" d="M480 48h24.72v24.72H480z"/><path style="fill:#fd6542;fill-opacity:1" d="M504 48h24.72v24.72H504z"/><path d="M540.36 72.72H528V48h12.36c7.004 0 12.36 5.356 12.36 12.36s-5.356 12.36-12.36 12.36zm-251.64 24h-12.36c-7.004 0-12.36-5.356-12.36-12.36V72h24.72z" style="fill:#fd6542;fill-opacity:1"/><path d="M300.36 96.72H288V72h12.36c7.004 0 12.36 5.356 12.36 12.36s-5.356 12.36-12.36 12.36zm60.36 0h-12.36c-7.004 0-12.36-5.356-12.36-12.36S341.356 72 348.36 72h12.36v24.72z" style="fill:#fd6542;fill-opacity:1"/><path style="fill:#fd6542;fill-opacity:1" d="M360 72h24.72v24.72H360z"/><path style="fill:#fd6542;fill-opacity:1" d="M384 72h24.72v24.72H384z"/><path style="fill:#fd6542;fill-opacity:1" d="M408 72h24.72v24.72H408z"/><path d="M444.36 96.72H432V72h12.36c7.004 0 12.36 5.356 12.36 12.36s-5.356 12.36-12.36 12.36zm-179.64 24H240v-12.36c0-7.004 5.356-12.36 12.36-12.36s12.36 5.356 12.36 12.36zm107.64 0c-7.004 0-12.36-5.356-12.36-12.36V96h24.72v12.36c0 7.004-5.356 12.36-12.36 12.36z" style="fill:#fd6542;fill-opacity:1"/><path style="fill:#fd6542;fill-opacity:1" d="M408 96h24.72v24.72H408z"/><circle cx="3" cy="3" r="3" style="fill:#fd6542;fill-opacity:1" transform="matrix(4.12 0 0 4.12 528 96)"/><path style="fill:#fd6542;fill-opacity:1" d="M240 120h24.72v24.72H240z"/><circle cx="3" cy="3" r="3" style="fill:#fd6542;fill-opacity:1" transform="matrix(4.12 0 0 4.12 336 120)"/><path d="M408.72 144.72h-12.36c-7.004 0-12.36-5.356-12.36-12.36S389.356 120 396.36 120h12.36v24.72z" style="fill:#fd6542;fill-opacity:1"/><path style="fill:#fd6542;fill-opacity:1" d="M408 120h24.72v24.72H408zm72.72 24.72H456v-12.36c0-7.004 5.356-12.36 12.36-12.36s12.36 5.356 12.36 12.36zm48 0H504v-12.36c0-7.004 5.356-12.36 12.36-12.36s12.36 5.356 12.36 12.36zM240 144h24.72v24.72H240z"/><path d="M432.72 168.72h-12.36c-7.004 0-12.36-5.356-12.36-12.36V144h24.72z" style="fill:#fd6542;fill-opacity:1"/><path style="fill:#fd6542;fill-opacity:1" d="M432 144h24.72v24.72H432z"/><path style="fill:#fd6542;fill-opacity:1" d="M456 144h24.72v24.72H456z"/><path style="fill:#fd6542;fill-opacity:1" d="M480 144h24.72v24.72H480z"/><path style="fill:#fd6542;fill-opacity:1" d="M504 144h24.72v24.72H504z"/><path d="M552.72 168.72H528V144h12.36c7.004 0 12.36 5.356 12.36 12.36zM240 168h24.72v24.72H240z" style="fill:#fd6542;fill-opacity:1"/><path d="M276.36 192.72H264V168h12.36c7.004 0 12.36 5.356 12.36 12.36s-5.356 12.36-12.36 12.36zm60.36 0h-12.36c-7.004 0-12.36-5.356-12.36-12.36S317.356 168 324.36 168h12.36v24.72z" style="fill:#fd6542;fill-opacity:1"/><path d="M360.72 192.72H336V168h12.36c7.004 0 12.36 5.356 12.36 12.36zM480 168h24.72v24.72H480zm48 0h24.72v24.72H528zm-288 24h24.72v24.72H240z" style="fill:#fd6542;fill-opacity:1"/><circle cx="3" cy="3" r="3" style="fill:#fd6542;fill-opacity:1" transform="matrix(4.12 0 0 4.12 288 192)"/><path d="M348.36 216.72c-7.004 0-12.36-5.356-12.36-12.36V192h24.72v12.36c0 7.004-5.356 12.36-12.36 12.36zm60.36 0H384v-12.36c0-7.004 5.356-12.36 12.36-12.36s12.36 5.356 12.36 12.36zm48 0H432v-12.36c0-7.004 5.356-12.36 12.36-12.36s12.36 5.356 12.36 12.36zm35.64 0c-7.004 0-12.36-5.356-12.36-12.36V192h24.72v12.36c0 7.004-5.356 12.36-12.36 12.36zM528 192h24.72v24.72H528zm-263.28 48.72h-12.36c-7.004 0-12.36-5.356-12.36-12.36V216h24.72z" style="fill:#fd6542;fill-opacity:1"/><path d="M288.72 240.72H264V216h12.36c7.004 0 12.36 5.356 12.36 12.36zm48 0H312v-12.36c0-7.004 5.356-12.36 12.36-12.36s12.36 5.356 12.36 12.36zm59.64 0c-7.004 0-12.36-5.356-12.36-12.36V216h24.72v12.36c0 7.004-5.356 12.36-12.36 12.36zM432 216h24.72v24.72H432zm108.36 24.72c-7.004 0-12.36-5.356-12.36-12.36V216h24.72v12.36c0 7.004-5.356 12.36-12.36 12.36zm-467.64 24H48v-12.36c0-7.004 5.356-12.36 12.36-12.36s12.36 5.356 12.36 12.36zm48 0H96v-12.36c0-7.004 5.356-12.36 12.36-12.36h12.36z" style="fill:#fd6542;fill-opacity:1"/><path style="fill:#fd6542;fill-opacity:1" d="M120 240h24.72v24.72H120z"/><path style="fill:#fd6542;fill-opacity:1" d="M144 240h24.72v24.72H144z"/><path style="fill:#fd6542;fill-opacity:1" d="M168 240h24.72v24.72H168z"/><path d="M204.36 264.72H192V240h12.36c7.004 0 12.36 5.356 12.36 12.36s-5.356 12.36-12.36 12.36zm84.36 0h-12.36c-7.004 0-12.36-5.356-12.36-12.36V240h24.72z" style="fill:#fd6542;fill-opacity:1"/><path style="fill:#fd6542;fill-opacity:1" d="M288 240h24.72v24.72H288z"/><path style="fill:#fd6542;fill-opacity:1" d="M312 240h24.72v24.72H312z"/><path d="M360.72 264.72H336V240h12.36c7.004 0 12.36 5.356 12.36 12.36zm96 0h-12.36c-7.004 0-12.36-5.356-12.36-12.36V240h24.72z" style="fill:#fd6542;fill-opacity:1"/><path d="M468.36 264.72H456V240h12.36c7.004 0 12.36 5.356 12.36 12.36s-5.356 12.36-12.36 12.36zm132.36 0H576v-12.36c0-7.004 5.356-12.36 12.36-12.36h12.36z" style="fill:#fd6542;fill-opacity:1"/><path style="fill:#fd6542;fill-opacity:1" d="M600 240h24.72v24.72H600z"/><path style="fill:#fd6542;fill-opacity:1" d="M624 240h24.72v24.72H624z"/><path style="fill:#fd6542;fill-opacity:1" d="M648 240h24.72v24.72H648z"/><path d="M684.36 264.72H672V240h12.36c7.004 0 12.36 5.356 12.36 12.36s-5.356 12.36-12.36 12.36zM48 264h24.72v24.72H48z" style="fill:#fd6542;fill-opacity:1"/><path style="fill:#fd6542;fill-opacity:1" d="M72 264h24.72v24.72H72z"/><path style="fill:#fd6542;fill-opacity:1" d="M96 264h24.72v24.72H96z"/><path d="M132.36 288.72H120V264h24.72v12.36c0 7.004-5.356 12.36-12.36 12.36zM168 264h24.72v24.72H168zm132.36 24.72c-7.004 0-12.36-5.356-12.36-12.36V264h24.72v12.36c0 7.004-5.356 12.36-12.36 12.36zm60.36 0h-12.36c-7.004 0-12.36-5.356-12.36-12.36V264h24.72z" style="fill:#fd6542;fill-opacity:1"/><path style="fill:#fd6542;fill-opacity:1" d="M360 264h24.72v24.72H360z"/><path style="fill:#fd6542;fill-opacity:1" d="M384 264h24.72v24.72H384z"/><path d="M420.36 288.72H408V264h12.36c7.004 0 12.36 5.356 12.36 12.36s-5.356 12.36-12.36 12.36zm84.36 0h-12.36c-7.004 0-12.36-5.356-12.36-12.36S485.356 264 492.36 264h12.36v24.72z" style="fill:#fd6542;fill-opacity:1"/><path style="fill:#fd6542;fill-opacity:1" d="M504 264h24.72v24.72H504z"/><path style="fill:#fd6542;fill-opacity:1" d="M528 264h24.72v24.72H528z"/><path style="fill:#fd6542;fill-opacity:1" d="M552 264h24.72v24.72H552z"/><path style="fill:#fd6542;fill-opacity:1" d="M576 264h24.72v24.72H576zm48 0h24.72v24.72H624z"/><circle cx="3" cy="3" r="3" style="fill:#fd6542;fill-opacity:1" transform="matrix(4.12 0 0 4.12 720 264)"/><path style="fill:#fd6542;fill-opacity:1" d="M48 288h24.72v24.72H48zm120 0h24.72v24.72H168z"/><path style="fill:#fd6542;fill-opacity:1" d="M192 288h24.72v24.72H192z"/><path d="M228.36 312.72H216V288h12.36c7.004 0 12.36 5.356 12.36 12.36s-5.356 12.36-12.36 12.36zM576 288h24.72v24.72H576zm48 0h24.72v24.72H624zM72.72 336.72H60.36c-7.004 0-12.36-5.356-12.36-12.36V312h24.72z" style="fill:#fd6542;fill-opacity:1"/><path d="M96.72 336.72H72V312h12.36c7.004 0 12.36 5.356 12.36 12.36zm48 0H120v-12.36c0-7.004 5.356-12.36 12.36-12.36s12.36 5.356 12.36 12.36zM168 312h24.72v24.72H168zm408.72 24.72h-12.36c-7.004 0-12.36-5.356-12.36-12.36S557.356 312 564.36 312h12.36v24.72z" style="fill:#fd6542;fill-opacity:1"/><path d="M588.36 336.72H576V312h24.72v12.36c0 7.004-5.356 12.36-12.36 12.36zm60.36 0h-12.36c-7.004 0-12.36-5.356-12.36-12.36V312h24.72z" style="fill:#fd6542;fill-opacity:1"/><path d="M672.72 336.72H648V312h12.36c7.004 0 12.36 5.356 12.36 12.36z" style="fill:#fd6542;fill-opacity:1"/><circle cx="3" cy="3" r="3" style="fill:#fd6542;fill-opacity:1" transform="matrix(4.12 0 0 4.12 696 312)"/><path d="M84.36 360.72c-7.004 0-12.36-5.356-12.36-12.36V336h24.72v12.36c0 7.004-5.356 12.36-12.36 12.36zm60.36 0h-12.36c-7.004 0-12.36-5.356-12.36-12.36V336h24.72z" style="fill:#fd6542;fill-opacity:1"/><path style="fill:#fd6542;fill-opacity:1" d="M144 336h24.72v24.72H144z"/><path style="fill:#fd6542;fill-opacity:1" d="M168 336h24.72v24.72H168z"/><path d="M204.36 360.72H192V336h12.36c7.004 0 12.36 5.356 12.36 12.36s-5.356 12.36-12.36 12.36zm60.36 0H240v-12.36c0-7.004 5.356-12.36 12.36-12.36h12.36z" style="fill:#fd6542;fill-opacity:1"/><path d="M288.72 360.72H264V336h12.36c7.004 0 12.36 5.356 12.36 12.36zm240 0H504v-12.36c0-7.004 5.356-12.36 12.36-12.36s12.36 5.356 12.36 12.36zm96 0H600v-12.36c0-7.004 5.356-12.36 12.36-12.36s12.36 5.356 12.36 12.36zm48 0h-12.36c-7.004 0-12.36-5.356-12.36-12.36V336h24.72z" style="fill:#fd6542;fill-opacity:1"/><path d="M684.36 360.72H672V336h12.36c7.004 0 12.36 5.356 12.36 12.36s-5.356 12.36-12.36 12.36zm-611.64 24H48v-12.36c0-7.004 5.356-12.36 12.36-12.36s12.36 5.356 12.36 12.36z" style="fill:#fd6542;fill-opacity:1"/><circle cx="3" cy="3" r="3" style="fill:#fd6542;fill-opacity:1" transform="matrix(4.12 0 0 4.12 96 360)"/><path style="fill:#fd6542;fill-opacity:1" d="M144 360h24.72v24.72H144z"/><path style="fill:#fd6542;fill-opacity:1" d="M168 360h24.72v24.72H168zm72.72 24.72H216v-12.36c0-7.004 5.356-12.36 12.36-12.36h12.36z"/><path style="fill:#fd6542;fill-opacity:1" d="M240 360h24.72v24.72H240z"/><path style="fill:#fd6542;fill-opacity:1" d="M264 360h24.72v24.72H264zm264.72 24.72h-12.36c-7.004 0-12.36-5.356-12.36-12.36V360h24.72z"/><path style="fill:#fd6542;fill-opacity:1" d="M528 360h24.72v24.72H528z"/><path style="fill:#fd6542;fill-opacity:1" d="M552 360h24.72v24.72H552z"/><path style="fill:#fd6542;fill-opacity:1" d="M576 360h24.72v24.72H576z"/><path style="fill:#fd6542;fill-opacity:1" d="M600 360h24.72v24.72H600z"/><path d="M648.72 384.72H624V360h12.36c7.004 0 12.36 5.356 12.36 12.36z" style="fill:#fd6542;fill-opacity:1"/><circle cx="3" cy="3" r="3" style="fill:#fd6542;fill-opacity:1" transform="matrix(4.12 0 0 4.12 720 360)"/><path d="M72.72 408.72H60.36c-7.004 0-12.36-5.356-12.36-12.36V384h24.72z" style="fill:#fd6542;fill-opacity:1"/><path d="M84.36 408.72H72V384h12.36c7.004 0 12.36 5.356 12.36 12.36s-5.356 12.36-12.36 12.36zM144 384h24.72v24.72H144z" style="fill:#fd6542;fill-opacity:1"/><path style="fill:#fd6542;fill-opacity:1" d="M168 384h24.72v24.72H168z"/><path style="fill:#fd6542;fill-opacity:1" d="M192 384h24.72v24.72H192z"/><path style="fill:#fd6542;fill-opacity:1" d="M216 384h24.72v24.72H216zm48 0h24.72v24.72H264zm264 0h24.72v24.72H528z"/><path style="fill:#fd6542;fill-opacity:1" d="M552 384h24.72v24.72H552z"/><path style="fill:#fd6542;fill-opacity:1" d="M576 384h24.72v24.72H576z"/><path style="fill:#fd6542;fill-opacity:1" d="M600 384h24.72v24.72H600z"/><path style="fill:#fd6542;fill-opacity:1" d="M624 384h24.72v24.72H624z"/><path style="fill:#fd6542;fill-opacity:1" d="M648 384h24.72v24.72H648z"/><path d="M684.36 408.72H672V384h12.36c7.004 0 12.36 5.356 12.36 12.36s-5.356 12.36-12.36 12.36zm-563.64 24H96v-12.36c0-7.004 5.356-12.36 12.36-12.36s12.36 5.356 12.36 12.36zm35.64 0c-7.004 0-12.36-5.356-12.36-12.36V408h24.72v12.36c0 7.004-5.356 12.36-12.36 12.36zM216 408h24.72v24.72H216z" style="fill:#fd6542;fill-opacity:1"/><path style="fill:#fd6542;fill-opacity:1" d="M240 408h24.72v24.72H240z"/><path style="fill:#fd6542;fill-opacity:1" d="M264 408h24.72v24.72H264zm264.72 24.72H504v-12.36c0-7.004 5.356-12.36 12.36-12.36h12.36z"/><path d="M540.36 432.72H528V408h24.72v12.36c0 7.004-5.356 12.36-12.36 12.36z" style="fill:#fd6542;fill-opacity:1"/><circle cx="3" cy="3" r="3" style="fill:#fd6542;fill-opacity:1" transform="matrix(4.12 0 0 4.12 696 408)"/><path d="M72.72 456.72H48v-12.36c0-7.004 5.356-12.36 12.36-12.36h12.36z" style="fill:#fd6542;fill-opacity:1"/><path style="fill:#fd6542;fill-opacity:1" d="M72 432h24.72v24.72H72z"/><path style="fill:#fd6542;fill-opacity:1" d="M96 432h24.72v24.72H96zm120.72 24.72h-12.36c-7.004 0-12.36-5.356-12.36-12.36S197.356 432 204.36 432h12.36v24.72z"/><path style="fill:#fd6542;fill-opacity:1" d="M216 432h24.72v24.72H216z"/><path style="fill:#fd6542;fill-opacity:1" d="M240 432h24.72v24.72H240z"/><path d="M276.36 456.72H264V432h24.72v12.36c0 7.004-5.356 12.36-12.36 12.36zM504 432h24.72v24.72H504zm168.72 24.72h-12.36c-7.004 0-12.36-5.356-12.36-12.36S653.356 432 660.36 432h12.36v24.72z" style="fill:#fd6542;fill-opacity:1"/><path d="M696.72 456.72H672V432h12.36c7.004 0 12.36 5.356 12.36 12.36zM48 456h24.72v24.72H48z" style="fill:#fd6542;fill-opacity:1"/><path style="fill:#fd6542;fill-opacity:1" d="M72 456h24.72v24.72H72z"/><path style="fill:#fd6542;fill-opacity:1" d="M96 456h24.72v24.72H96z"/><path d="M132.36 480.72H120V456h12.36c7.004 0 12.36 5.356 12.36 12.36s-5.356 12.36-12.36 12.36zM216 456h24.72v24.72H216zm300.36 24.72c-7.004 0-12.36-5.356-12.36-12.36V456h24.72v12.36c0 7.004-5.356 12.36-12.36 12.36zm60.36 0h-12.36c-7.004 0-12.36-5.356-12.36-12.36S557.356 456 564.36 456h12.36v24.72z" style="fill:#fd6542;fill-opacity:1"/><path style="fill:#fd6542;fill-opacity:1" d="M576 456h24.72v24.72H576z"/><path style="fill:#fd6542;fill-opacity:1" d="M600 456h24.72v24.72H600z"/><path d="M648.72 480.72H624V456h12.36c7.004 0 12.36 5.356 12.36 12.36zM672 456h24.72v24.72H672z" style="fill:#fd6542;fill-opacity:1"/><circle cx="3" cy="3" r="3" style="fill:#fd6542;fill-opacity:1" transform="matrix(4.12 0 0 4.12 720 456)"/><path style="fill:#fd6542;fill-opacity:1" d="M48 480h24.72v24.72H48zm60.36 24.72c-7.004 0-12.36-5.356-12.36-12.36V480h24.72v12.36c0 7.004-5.356 12.36-12.36 12.36zm60.36 0H144v-12.36c0-7.004 5.356-12.36 12.36-12.36s12.36 5.356 12.36 12.36zm48 0h-12.36c-7.004 0-12.36-5.356-12.36-12.36S197.356 480 204.36 480h12.36v24.72z"/><path style="fill:#fd6542;fill-opacity:1" d="M216 480h24.72v24.72H216z"/><path style="fill:#fd6542;fill-opacity:1" d="M240 480h24.72v24.72H240z"/><path d="M288.72 504.72H264V480h12.36c7.004 0 12.36 5.356 12.36 12.36zm264 0H528v-12.36c0-7.004 5.356-12.36 12.36-12.36s12.36 5.356 12.36 12.36zm83.64 0c-7.004 0-12.36-5.356-12.36-12.36V480h24.72v12.36c0 7.004-5.356 12.36-12.36 12.36zm48 0c-7.004 0-12.36-5.356-12.36-12.36V480h24.72v12.36c0 7.004-5.356 12.36-12.36 12.36zM48 504h24.72v24.72H48zm96.72 24.72H120v-12.36c0-7.004 5.356-12.36 12.36-12.36h12.36z" style="fill:#fd6542;fill-opacity:1"/><path d="M156.36 528.72H144V504h24.72v12.36c0 7.004-5.356 12.36-12.36 12.36zM216 504h24.72v24.72H216z" style="fill:#fd6542;fill-opacity:1"/><path style="fill:#fd6542;fill-opacity:1" d="M240 504h24.72v24.72H240z"/><path d="M276.36 528.72H264V504h24.72v12.36c0 7.004-5.356 12.36-12.36 12.36zm60.36 0h-12.36c-7.004 0-12.36-5.356-12.36-12.36S317.356 504 324.36 504h12.36v24.72z" style="fill:#fd6542;fill-opacity:1"/><path style="fill:#fd6542;fill-opacity:1" d="M336 504h24.72v24.72H336z"/><path d="M372.36 528.72H360V504h12.36c7.004 0 12.36 5.356 12.36 12.36s-5.356 12.36-12.36 12.36z" style="fill:#fd6542;fill-opacity:1"/><circle cx="3" cy="3" r="3" style="fill:#fd6542;fill-opacity:1" transform="matrix(4.12 0 0 4.12 432 504)"/><path style="fill:#fd6542;fill-opacity:1" d="M528 504h24.72v24.72H528z"/><path d="M576.72 528.72H552V504h12.36c7.004 0 12.36 5.356 12.36 12.36zm48 0H600v-12.36c0-7.004 5.356-12.36 12.36-12.36s12.36 5.356 12.36 12.36zm96 0H696v-12.36c0-7.004 5.356-12.36 12.36-12.36s12.36 5.356 12.36 12.36zm-660.36 24c-7.004 0-12.36-5.356-12.36-12.36V528h24.72v12.36c0 7.004-5.356 12.36-12.36 12.36zm60.36 0h-12.36c-7.004 0-12.36-5.356-12.36-12.36S101.356 528 108.36 528h12.36v24.72z" style="fill:#fd6542;fill-opacity:1"/><path d="M132.36 552.72H120V528h24.72v12.36c0 7.004-5.356 12.36-12.36 12.36zm60.36 0h-12.36c-7.004 0-12.36-5.356-12.36-12.36S173.356 528 180.36 528h12.36v24.72z" style="fill:#fd6542;fill-opacity:1"/><path style="fill:#fd6542;fill-opacity:1" d="M192 528h24.72v24.72H192z"/><path d="M228.36 552.72H216V528h24.72v12.36c0 7.004-5.356 12.36-12.36 12.36z" style="fill:#fd6542;fill-opacity:1"/><circle cx="3" cy="3" r="3" style="fill:#fd6542;fill-opacity:1" transform="matrix(4.12 0 0 4.12 384 528)"/><circle cx="3" cy="3" r="3" style="fill:#fd6542;fill-opacity:1" transform="matrix(4.12 0 0 4.12 456 528)"/><path style="fill:#fd6542;fill-opacity:1" d="M528 528h24.72v24.72H528z"/><path style="fill:#fd6542;fill-opacity:1" d="M552 528h24.72v24.72H552z"/><path style="fill:#fd6542;fill-opacity:1" d="M576 528h24.72v24.72H576z"/><path style="fill:#fd6542;fill-opacity:1" d="M600 528h24.72v24.72H600z"/><path d="M648.72 552.72H624V528h12.36c7.004 0 12.36 5.356 12.36 12.36zm48 0H672v-12.36c0-7.004 5.356-12.36 12.36-12.36h12.36z" style="fill:#fd6542;fill-opacity:1"/><path style="fill:#fd6542;fill-opacity:1" d="M696 528h24.72v24.72H696z"/><path d="M744.72 552.72H720V528h12.36c7.004 0 12.36 5.356 12.36 12.36z" style="fill:#fd6542;fill-opacity:1"/><circle cx="3" cy="3" r="3" style="fill:#fd6542;fill-opacity:1" transform="matrix(4.12 0 0 4.12 240 552)"/><path d="M312.72 576.72H288v-12.36c0-7.004 5.356-12.36 12.36-12.36h12.36z" style="fill:#fd6542;fill-opacity:1"/><path d="M324.36 576.72H312V552h12.36c7.004 0 12.36 5.356 12.36 12.36s-5.356 12.36-12.36 12.36zm132.36 0H432v-12.36c0-7.004 5.356-12.36 12.36-12.36s12.36 5.356 12.36 12.36zM528 552h24.72v24.72H528zm96 0h24.72v24.72H624z" style="fill:#fd6542;fill-opacity:1"/><path style="fill:#fd6542;fill-opacity:1" d="M648 552h24.72v24.72H648z"/><path style="fill:#fd6542;fill-opacity:1" d="M672 552h24.72v24.72H672z"/><path style="fill:#fd6542;fill-opacity:1" d="M696 552h24.72v24.72H696z"/><path d="M732.36 576.72H720V552h24.72v12.36c0 7.004-5.356 12.36-12.36 12.36zm-432 24c-7.004 0-12.36-5.356-12.36-12.36V576h24.72v12.36c0 7.004-5.356 12.36-12.36 12.36z" style="fill:#fd6542;fill-opacity:1"/><circle cx="3" cy="3" r="3" style="fill:#fd6542;fill-opacity:1" transform="matrix(4.12 0 0 4.12 336 576)"/><path d="M432.72 600.72H408v-12.36c0-7.004 5.356-12.36 12.36-12.36h12.36z" style="fill:#fd6542;fill-opacity:1"/><path style="fill:#fd6542;fill-opacity:1" d="M432 576h24.72v24.72H432z"/><path style="fill:#fd6542;fill-opacity:1" d="M456 576h24.72v24.72H456z"/><path style="fill:#fd6542;fill-opacity:1" d="M480 576h24.72v24.72H480z"/><path style="fill:#fd6542;fill-opacity:1" d="M504 576h24.72v24.72H504z"/><path style="fill:#fd6542;fill-opacity:1" d="M528 576h24.72v24.72H528z"/><circle cx="3" cy="3" r="3" style="fill:#fd6542;fill-opacity:1" transform="matrix(4.12 0 0 4.12 576 576)"/><path style="fill:#fd6542;fill-opacity:1" d="M624 576h24.72v24.72H624z"/><path style="fill:#fd6542;fill-opacity:1" d="M648 576h24.72v24.72H648z"/><path d="M684.36 600.72H672V576h24.72v12.36c0 7.004-5.356 12.36-12.36 12.36zm-419.64 24H240v-12.36c0-7.004 5.356-12.36 12.36-12.36h12.36z" style="fill:#fd6542;fill-opacity:1"/><path d="M288.72 624.72H264V600h12.36c7.004 0 12.36 5.356 12.36 12.36zm120 0h-12.36c-7.004 0-12.36-5.356-12.36-12.36S389.356 600 396.36 600h12.36v24.72z" style="fill:#fd6542;fill-opacity:1"/><path d="M420.36 624.72H408V600h24.72v12.36c0 7.004-5.356 12.36-12.36 12.36zm84.36 0h-12.36c-7.004 0-12.36-5.356-12.36-12.36V600h24.72z" style="fill:#fd6542;fill-opacity:1"/><path style="fill:#fd6542;fill-opacity:1" d="M504 600h24.72v24.72H504z"/><path style="fill:#fd6542;fill-opacity:1" d="M528 600h24.72v24.72H528zm96 0h24.72v24.72H624zm96.72 24.72H696v-12.36c0-7.004 5.356-12.36 12.36-12.36s12.36 5.356 12.36 12.36zM240 624h24.72v24.72H240z"/><path style="fill:#fd6542;fill-opacity:1" d="M264 624h24.72v24.72H264z"/><path d="M300.36 648.72H288V624h12.36c7.004 0 12.36 5.356 12.36 12.36s-5.356 12.36-12.36 12.36z" style="fill:#fd6542;fill-opacity:1"/><circle cx="3" cy="3" r="3" style="fill:#fd6542;fill-opacity:1" transform="matrix(4.12 0 0 4.12 456 624)"/><path d="M552.72 648.72h-12.36c-7.004 0-12.36-5.356-12.36-12.36V624h24.72z" style="fill:#fd6542;fill-opacity:1"/><path style="fill:#fd6542;fill-opacity:1" d="M552 624h24.72v24.72H552z"/><path style="fill:#fd6542;fill-opacity:1" d="M576 624h24.72v24.72H576z"/><path style="fill:#fd6542;fill-opacity:1" d="M600 624h24.72v24.72H600z"/><path d="M636.36 648.72H624V624h24.72v12.36c0 7.004-5.356 12.36-12.36 12.36zm60.36 0H672v-12.36c0-7.004 5.356-12.36 12.36-12.36h12.36z" style="fill:#fd6542;fill-opacity:1"/><path style="fill:#fd6542;fill-opacity:1" d="M696 624h24.72v24.72H696zm-456 24h24.72v24.72H240zm144.72 24.72H360v-12.36c0-7.004 5.356-12.36 12.36-12.36h12.36z"/><path d="M396.36 672.72H384V648h12.36c7.004 0 12.36 5.356 12.36 12.36s-5.356 12.36-12.36 12.36z" style="fill:#fd6542;fill-opacity:1"/><circle cx="3" cy="3" r="3" style="fill:#fd6542;fill-opacity:1" transform="matrix(4.12 0 0 4.12 432 648)"/><path d="M528.72 672.72H504v-12.36c0-7.004 5.356-12.36 12.36-12.36s12.36 5.356 12.36 12.36zM552 648h24.72v24.72H552zm120.72 24.72H648v-12.36c0-7.004 5.356-12.36 12.36-12.36h12.36z" style="fill:#fd6542;fill-opacity:1"/><path style="fill:#fd6542;fill-opacity:1" d="M672 648h24.72v24.72H672z"/><path style="fill:#fd6542;fill-opacity:1" d="M696 648h24.72v24.72H696z"/><path d="M732.36 672.72H720V648h12.36c7.004 0 12.36 5.356 12.36 12.36s-5.356 12.36-12.36 12.36zm-467.64 24h-12.36c-7.004 0-12.36-5.356-12.36-12.36V672h24.72z" style="fill:#fd6542;fill-opacity:1"/><path style="fill:#fd6542;fill-opacity:1" d="M264 672h24.72v24.72H264z"/><path style="fill:#fd6542;fill-opacity:1" d="M288 672h24.72v24.72H288z"/><path d="M324.36 696.72H312V672h12.36c7.004 0 12.36 5.356 12.36 12.36s-5.356 12.36-12.36 12.36zM360 672h24.72v24.72H360zm72.72 24.72H408v-12.36c0-7.004 5.356-12.36 12.36-12.36s12.36 5.356 12.36 12.36zm96 0h-12.36c-7.004 0-12.36-5.356-12.36-12.36V672h24.72z" style="fill:#fd6542;fill-opacity:1"/><path style="fill:#fd6542;fill-opacity:1" d="M528 672h24.72v24.72H528z"/><path style="fill:#fd6542;fill-opacity:1" d="M552 672h24.72v24.72H552z"/><path style="fill:#fd6542;fill-opacity:1" d="M576 672h24.72v24.72H576z"/><path style="fill:#fd6542;fill-opacity:1" d="M600 672h24.72v24.72H600z"/><path style="fill:#fd6542;fill-opacity:1" d="M624 672h24.72v24.72H624z"/><path style="fill:#fd6542;fill-opacity:1" d="M648 672h24.72v24.72H648z"/><path style="fill:#fd6542;fill-opacity:1" d="M672 672h24.72v24.72H672z"/><path style="fill:#fd6542;fill-opacity:1" d="M696 672h24.72v24.72H696zm-407.28 48.72h-12.36c-7.004 0-12.36-5.356-12.36-12.36V696h24.72z"/><path d="M300.36 720.72H288V696h24.72v12.36c0 7.004-5.356 12.36-12.36 12.36zm72 0c-7.004 0-12.36-5.356-12.36-12.36V696h24.72v12.36c0 7.004-5.356 12.36-12.36 12.36zM408 696h24.72v24.72H408z" style="fill:#fd6542;fill-opacity:1"/><path d="M444.36 720.72H432V696h12.36c7.004 0 12.36 5.356 12.36 12.36s-5.356 12.36-12.36 12.36zm96 0c-7.004 0-12.36-5.356-12.36-12.36V696h24.72v12.36c0 7.004-5.356 12.36-12.36 12.36zM576 696h24.72v24.72H576zm84.36 24.72c-7.004 0-12.36-5.356-12.36-12.36V696h24.72v12.36c0 7.004-5.356 12.36-12.36 12.36zm48 0c-7.004 0-12.36-5.356-12.36-12.36V696h24.72v12.36c0 7.004-5.356 12.36-12.36 12.36z" style="fill:#fd6542;fill-opacity:1"/><circle cx="3" cy="3" r="3" style="fill:#fd6542;fill-opacity:1" transform="matrix(4.12 0 0 4.12 240 720)"/><path d="M336.72 744.72h-12.36c-7.004 0-12.36-5.356-12.36-12.36S317.356 720 324.36 720h12.36v24.72z" style="fill:#fd6542;fill-opacity:1"/><path d="M348.36 744.72H336V720h12.36c7.004 0 12.36 5.356 12.36 12.36s-5.356 12.36-12.36 12.36zm72 0c-7.004 0-12.36-5.356-12.36-12.36V720h24.72v12.36c0 7.004-5.356 12.36-12.36 12.36z" style="fill:#fd6542;fill-opacity:1"/><circle cx="3" cy="3" r="3" style="fill:#fd6542;fill-opacity:1" transform="matrix(4.12 0 0 4.12 456 720)"/><circle cx="3" cy="3" r="3" style="fill:#fd6542;fill-opacity:1" transform="matrix(4.12 0 0 4.12 504 720)"/><path d="M600.72 744.72h-12.36c-7.004 0-12.36-5.356-12.36-12.36V720h24.72z" style="fill:#fd6542;fill-opacity:1"/><path style="fill:#fd6542;fill-opacity:1" d="M600 720h24.72v24.72H600z"/><path d="M636.36 744.72H624V720h12.36c7.004 0 12.36 5.356 12.36 12.36s-5.356 12.36-12.36 12.36z" style="fill:#fd6542;fill-opacity:1"/><circle cx="3" cy="3" r="3" style="fill:#fd6542;fill-opacity:1" transform="matrix(4.12 0 0 4.12 672 720)"/><path d="M102 216h61.2c28.8 0 52.8-24 52.8-52.8V102c0-30-24-54-54-54h-61.2C72 48 48 72 48 100.8V162c0 30 24 54 54 54zm90-110.4v52.8c0 18-15.6 33.6-33.6 33.6h-52.8C86.4 192 72 177.6 72 158.4v-52.8c0-18 15.6-33.6 33.6-33.6h52.8c19.2 0 33.6 14.4 33.6 33.6zM630 216h61.2c28.8 0 52.8-24 52.8-52.8V102c0-30-24-54-54-54h-61.2C600 48 576 72 576 100.8V162c0 30 24 54 54 54zm90-110.4v52.8c0 18-15.6 33.6-33.6 33.6h-52.8c-19.2 0-33.6-14.4-33.6-33.6v-52.8c0-18 15.6-33.6 33.6-33.6h52.8c19.2 0 33.6 14.4 33.6 33.6zM102 744h61.2c28.8 0 52.8-24 52.8-52.8V630c0-30-24-54-54-54h-61.2C72 576 48 600 48 628.8V690c0 30 24 54 54 54zm90-110.4v52.8c0 18-15.6 33.6-33.6 33.6h-52.8C86.4 720 72 705.6 72 686.4v-52.8c0-18 15.6-33.6 33.6-33.6h52.8c19.2 0 33.6 14.4 33.6 33.6z" style="fill:#fd6542;fill-opacity:1"/><path d="M168 116.4v32.4c0 9.6-9.6 19.2-20.4 19.2h-31.2c-12 0-20.4-8.4-20.4-20.4v-31.2c0-10.8 9.6-20.4 20.4-20.4h32.4c10.8 0 19.2 8.4 19.2 20.4zm528 0v32.4c0 9.6-9.6 19.2-20.4 19.2h-31.2c-12 0-20.4-8.4-20.4-20.4v-31.2c0-10.8 9.6-20.4 20.4-20.4h32.4c10.8 0 19.2 8.4 19.2 20.4zm-528 528v32.4c0 9.6-9.6 19.2-20.4 19.2h-31.2c-12 0-20.4-8.4-20.4-20.4v-31.2c0-10.8 9.6-20.4 20.4-20.4h32.4c10.8 0 19.2 8.4 19.2 20.4z" style="fill:#fd6542;fill-opacity:1"/></g><path style="color:#000;fill:#fd6542;fill-opacity:1" d="M64.51 53.093c-.68-.673-.271-2.377-2.034-3.206a3.342 3.342 0 00-1.403-.31 3.277 3.277 0 00-.78.102l-6.36.007c-.128-.008-.254-.032-.383-.032a5.944 5.944 0 00-2.147.39 5.594 5.594 0 00-1.844 1.159l-.005.005-.005.005a5.976 5.976 0 00-1.27 1.763 6.976 6.976 0 00-.62 2.172l.133-1.063h-1.326l-.34 2.746v.007c-.063.547.05 1.466.69 2.124l.02.02.019.018c.321.383.324.59.276.563l-1.3 10.977h3.247c.667 0 1.535-.22 2.171-.832.487-.468.763-1.02.93-1.542l.007-.023 4.021-.003v.002h4.394l-.39 3.279h6.332l.378-3.175c.132.01.26.04.393.038a5.36 5.36 0 002.089-.426 6.421 6.421 0 001.698-1.062l.002-.003.003-.002a7.886 7.886 0 001.306-1.467 9.422 9.422 0 00.95-1.737 10.372 10.372 0 00.59-1.922c.14-.678.21-1.367.21-2.06 0-.752-.074-1.467-.26-2.155a5.511 5.511 0 00-.87-1.855 4.321 4.321 0 00-1.648-1.366l-.014-.007-.014-.006c-.628-.284-1.32-.388-2-.42-.845-.04-1.7.08-2.52.288h-.002l-.002.001c-.842-.01-1.723-.401-2.322-.993zm-14.556.557l-.007.024c-.003.007-.008.013-.01.02zm21.098 10.41l-.006.012c.002-.002.002-.005.003-.008l.003-.003z"/><path style="color:#000;fill:#fff;fill-opacity:1;stroke-width:20" d="M53.708 57.736l.189-1.49h-2.279l.095-.764c.044-.393.123-.725.236-.996a1.98 1.98 0 01.425-.659 1.576 1.576 0 01.582-.368 2.15 2.15 0 01.724-.114h.274c.08 0 .161-.006.24-.02a.38.38 0 00.176-.072.254.254 0 00.085-.16l.189-1.084a3.076 3.076 0 00-1.097-.193 3.78 3.78 0 00-1.376.249 3.43 3.43 0 00-1.13.71 3.814 3.814 0 00-.813 1.132 4.81 4.81 0 00-.425 1.51l-.105.831h-1.323l-.104.841c-.019.162.01.282.09.363a.641.641 0 00.317.17l.841.135-1.258 10.62h.813c.29 0 .514-.075.672-.227.157-.151.28-.366.369-.643l.463-1.896.927-7.875zm2.467 8.241l1.703-14.315h-2.003L54.18 65.979zm3.613-9.867l-1.154 9.869h1.995l1.163-9.867zm2.5-3.52a1.435 1.435 0 00-.718-.74 1.176 1.176 0 00-.496-.11 1.122 1.122 0 00-.483.11 1.377 1.377 0 00-.415.3 1.47 1.47 0 00-.287.446 1.359 1.359 0 00-.108.537c0 .183.036.364.108.532.069.162.165.31.283.439a1.341 1.341 0 00.407.3 1.11 1.11 0 00.487.11 1.143 1.143 0 00.492-.11 1.508 1.508 0 00.425-.3 1.46 1.46 0 00.303-.44c.075-.166.114-.348.113-.531a1.314 1.314 0 00-.107-.542zm3.287 8.687a8.782 8.782 0 01.596-1.45 7.107 7.107 0 01.747-1.161c.265-.33.539-.585.823-.769.283-.183.564-.275.841-.275.448 0 .793.182 1.037.546.245.364.366.91.365 1.64 0 .374-.033.748-.095 1.117a6.826 6.826 0 01-.274 1.088 5.636 5.636 0 01-.445.982 3.954 3.954 0 01-.595.798 2.627 2.627 0 01-.728.532 1.921 1.921 0 01-.852.194 2.553 2.553 0 01-.912-.174 1.842 1.842 0 01-.802-.61zm.34-4.488c0-.238-.058-.414-.174-.527-.117-.113-.286-.17-.506-.17h-1.022l-1.57 13.166h1.976l.491-4.121a2.818 2.818 0 00.95.725 2.854 2.854 0 001.235.262c.431 0 .859-.087 1.257-.256a4.259 4.259 0 001.126-.705 5.724 5.724 0 00.95-1.07 7.261 7.261 0 00.734-1.339 8.213 8.213 0 00.468-1.524c.11-.534.165-1.078.165-1.624 0-.607-.061-1.137-.184-1.592-.123-.455-.298-.835-.525-1.141a2.159 2.159 0 00-.827-.687 2.56 2.56 0 00-1.093-.229c-.34 0-.677.06-.997.179a3.716 3.716 0 00-.936.512 5.674 5.674 0 00-.86.798 7.061 7.061 0 00-.761 1.045l.103-1.703z"/></svg>