<svg viewBox="0 0 120 121" style="fill-rule:evenodd;clip-rule:evenodd;stroke-linejoin:round;stroke-miterlimit:2"><path fill="#fff" style="stroke-width:.173851" d="M-.5 0h121v121H-.5z"/><g transform="translate(-.5) scale(.17385)" style="fill:#6552a3;fill-opacity:1"><path d="M312.72 72.72H288V60.36c0-7.004 5.356-12.36 12.36-12.36h12.36z" style="fill:#6552a3;fill-opacity:1"/><path d="M336.72 72.72H312V48h12.36c7.004 0 12.36 5.356 12.36 12.36z" style="fill:#6552a3;fill-opacity:1"/><circle cx="3" cy="3" r="3" style="fill:#6552a3;fill-opacity:1" transform="matrix(4.12 0 0 4.12 360 48)"/><path d="M288.72 96.72H264V84.36c0-7.004 5.356-12.36 12.36-12.36h12.36z" style="fill:#6552a3;fill-opacity:1"/><path style="fill:#6552a3;fill-opacity:1" d="M288 72h24.72v24.72H288z"/><path style="fill:#6552a3;fill-opacity:1" d="M312 72h24.72v24.72H312z"/><path d="M348.36 96.72H336V72h12.36c7.004 0 12.36 5.356 12.36 12.36s-5.356 12.36-12.36 12.36zm60.36 0H384V84.36c0-7.004 5.356-12.36 12.36-12.36h12.36z" style="fill:#6552a3;fill-opacity:1"/><path d="M420.36 96.72H408V72h12.36c7.004 0 12.36 5.356 12.36 12.36s-5.356 12.36-12.36 12.36zm-155.64 24H240v-12.36c0-7.004 5.356-12.36 12.36-12.36h12.36z" style="fill:#6552a3;fill-opacity:1"/><path style="fill:#6552a3;fill-opacity:1" d="M264 96h24.72v24.72H264z"/><path style="fill:#6552a3;fill-opacity:1" d="M288 96h24.72v24.72H288zm96 0h24.72v24.72H384zm-144 24h24.72v24.72H240z"/><path style="fill:#6552a3;fill-opacity:1" d="M264 120h24.72v24.72H264z"/><path style="fill:#6552a3;fill-opacity:1" d="M288 120h24.72v24.72H288zm72.72 24.72H336v-12.36c0-7.004 5.356-12.36 12.36-12.36s12.36 5.356 12.36 12.36zM384 120h24.72v24.72H384z"/><circle cx="3" cy="3" r="3" style="fill:#6552a3;fill-opacity:1" transform="matrix(4.12 0 0 4.12 432 120)"/><path style="fill:#6552a3;fill-opacity:1" d="M240 144h24.72v24.72H240zm60.36 24.72c-7.004 0-12.36-5.356-12.36-12.36V144h24.72v12.36c0 7.004-5.356 12.36-12.36 12.36zm48 0c-7.004 0-12.36-5.356-12.36-12.36V144h24.72v12.36c0 7.004-5.356 12.36-12.36 12.36zm60.36 0h-12.36c-7.004 0-12.36-5.356-12.36-12.36V144h24.72z"/><path d="M432.72 168.72H408V144h12.36c7.004 0 12.36 5.356 12.36 12.36zM240 168h24.72v24.72H240z" style="fill:#6552a3;fill-opacity:1"/><circle cx="3" cy="3" r="3" style="fill:#6552a3;fill-opacity:1" transform="matrix(4.12 0 0 4.12 360 168)"/><path d="M420.36 192.72c-7.004 0-12.36-5.356-12.36-12.36V168h24.72v12.36c0 7.004-5.356 12.36-12.36 12.36zM240 192h24.72v24.72H240z" style="fill:#6552a3;fill-opacity:1"/><circle cx="3" cy="3" r="3" style="fill:#6552a3;fill-opacity:1" transform="matrix(4.12 0 0 4.12 288 192)"/><circle cx="3" cy="3" r="3" style="fill:#6552a3;fill-opacity:1" transform="matrix(4.12 0 0 4.12 336 192)"/><path d="M408.72 216.72H384v-12.36c0-7.004 5.356-12.36 12.36-12.36s12.36 5.356 12.36 12.36zm48 0H432v-12.36c0-7.004 5.356-12.36 12.36-12.36s12.36 5.356 12.36 12.36zm-204.36 24c-7.004 0-12.36-5.356-12.36-12.36V216h24.72v12.36c0 7.004-5.356 12.36-12.36 12.36z" style="fill:#6552a3;fill-opacity:1"/><circle cx="3" cy="3" r="3" style="fill:#6552a3;fill-opacity:1" transform="matrix(4.12 0 0 4.12 312 216)"/><path style="fill:#6552a3;fill-opacity:1" d="M384 216h24.72v24.72H384zm48 0h24.72v24.72H432z"/><circle cx="3" cy="3" r="3" style="fill:#6552a3;fill-opacity:1" transform="matrix(4.12 0 0 4.12 48 240)"/><path d="M120.72 264.72h-12.36c-7.004 0-12.36-5.356-12.36-12.36S101.356 240 108.36 240h12.36v24.72z" style="fill:#6552a3;fill-opacity:1"/><path style="fill:#6552a3;fill-opacity:1" d="M120 240h24.72v24.72H120z"/><path style="fill:#6552a3;fill-opacity:1" d="M144 240h24.72v24.72H144z"/><path style="fill:#6552a3;fill-opacity:1" d="M168 240h24.72v24.72H168z"/><path d="M204.36 264.72H192V240h12.36c7.004 0 12.36 5.356 12.36 12.36s-5.356 12.36-12.36 12.36zm84.36 0h-12.36c-7.004 0-12.36-5.356-12.36-12.36S269.356 240 276.36 240h12.36v24.72z" style="fill:#6552a3;fill-opacity:1"/><path d="M300.36 264.72H288V240h12.36c7.004 0 12.36 5.356 12.36 12.36s-5.356 12.36-12.36 12.36zm60.36 0h-12.36c-7.004 0-12.36-5.356-12.36-12.36S341.356 240 348.36 240h12.36v24.72z" style="fill:#6552a3;fill-opacity:1"/><path style="fill:#6552a3;fill-opacity:1" d="M360 240h24.72v24.72H360z"/><path style="fill:#6552a3;fill-opacity:1" d="M384 240h24.72v24.72H384z"/><path style="fill:#6552a3;fill-opacity:1" d="M408 240h24.72v24.72H408z"/><path style="fill:#6552a3;fill-opacity:1" d="M432 240h24.72v24.72H432zm72.72 24.72H480v-12.36c0-7.004 5.356-12.36 12.36-12.36h12.36z"/><path style="fill:#6552a3;fill-opacity:1" d="M504 240h24.72v24.72H504z"/><path style="fill:#6552a3;fill-opacity:1" d="M528 240h24.72v24.72H528z"/><path style="fill:#6552a3;fill-opacity:1" d="M552 240h24.72v24.72H552z"/><path d="M588.36 264.72H576V240h12.36c7.004 0 12.36 5.356 12.36 12.36s-5.356 12.36-12.36 12.36zm-491.64 24H72v-12.36c0-7.004 5.356-12.36 12.36-12.36s12.36 5.356 12.36 12.36zM120 264h24.72v24.72H120z" style="fill:#6552a3;fill-opacity:1"/><path style="fill:#6552a3;fill-opacity:1" d="M144 264h24.72v24.72H144z"/><path d="M180.36 288.72H168V264h24.72v12.36c0 7.004-5.356 12.36-12.36 12.36zm60.36 0H216v-12.36c0-7.004 5.356-12.36 12.36-12.36s12.36 5.356 12.36 12.36zm203.64 0c-7.004 0-12.36-5.356-12.36-12.36V264h24.72v12.36c0 7.004-5.356 12.36-12.36 12.36zm48 0c-7.004 0-12.36-5.356-12.36-12.36V264h24.72v12.36c0 7.004-5.356 12.36-12.36 12.36zM552 264h24.72v24.72H552zm72.72 24.72H600v-12.36c0-7.004 5.356-12.36 12.36-12.36h12.36z" style="fill:#6552a3;fill-opacity:1"/><path d="M648.72 288.72H624V264h12.36c7.004 0 12.36 5.356 12.36 12.36zM72 288h24.72v24.72H72z" style="fill:#6552a3;fill-opacity:1"/><path style="fill:#6552a3;fill-opacity:1" d="M96 288h24.72v24.72H96z"/><path d="M132.36 312.72H120V288h24.72v12.36c0 7.004-5.356 12.36-12.36 12.36zm84.36 0h-12.36c-7.004 0-12.36-5.356-12.36-12.36S197.356 288 204.36 288h12.36v24.72z" style="fill:#6552a3;fill-opacity:1"/><path style="fill:#6552a3;fill-opacity:1" d="M216 288h24.72v24.72H216z"/><circle cx="3" cy="3" r="3" style="fill:#6552a3;fill-opacity:1" transform="matrix(4.12 0 0 4.12 456 288)"/><path d="M552.72 312.72h-12.36c-7.004 0-12.36-5.356-12.36-12.36S533.356 288 540.36 288h12.36v24.72z" style="fill:#6552a3;fill-opacity:1"/><path d="M564.36 312.72H552V288h24.72v12.36c0 7.004-5.356 12.36-12.36 12.36zM600 288h24.72v24.72H600z" style="fill:#6552a3;fill-opacity:1"/><path style="fill:#6552a3;fill-opacity:1" d="M624 288h24.72v24.72H624zM72.72 336.72H48v-12.36c0-7.004 5.356-12.36 12.36-12.36h12.36z"/><path style="fill:#6552a3;fill-opacity:1" d="M72 312h24.72v24.72H72z"/><path d="M108.36 336.72H96V312h24.72v12.36c0 7.004-5.356 12.36-12.36 12.36zm132.36 0h-12.36c-7.004 0-12.36-5.356-12.36-12.36V312h24.72z" style="fill:#6552a3;fill-opacity:1"/><path d="M264.72 336.72H240V312h12.36c7.004 0 12.36 5.356 12.36 12.36zm192 0H432v-12.36c0-7.004 5.356-12.36 12.36-12.36s12.36 5.356 12.36 12.36zm48 0H480v-12.36c0-7.004 5.356-12.36 12.36-12.36s12.36 5.356 12.36 12.36zm96 0h-12.36c-7.004 0-12.36-5.356-12.36-12.36S581.356 312 588.36 312h12.36v24.72z" style="fill:#6552a3;fill-opacity:1"/><path style="fill:#6552a3;fill-opacity:1" d="M600 312h24.72v24.72H600z"/><path d="M636.36 336.72H624V312h24.72v12.36c0 7.004-5.356 12.36-12.36 12.36zM48 336h24.72v24.72H48z" style="fill:#6552a3;fill-opacity:1"/><path style="fill:#6552a3;fill-opacity:1" d="M72 336h24.72v24.72H72zm72.72 24.72H120v-12.36c0-7.004 5.356-12.36 12.36-12.36s12.36 5.356 12.36 12.36z"/><circle cx="3" cy="3" r="3" style="fill:#6552a3;fill-opacity:1" transform="matrix(4.12 0 0 4.12 192 336)"/><path d="M252.36 360.72c-7.004 0-12.36-5.356-12.36-12.36V336h24.72v12.36c0 7.004-5.356 12.36-12.36 12.36zm192 0c-7.004 0-12.36-5.356-12.36-12.36V336h24.72v12.36c0 7.004-5.356 12.36-12.36 12.36zm48 0c-7.004 0-12.36-5.356-12.36-12.36V336h24.72v12.36c0 7.004-5.356 12.36-12.36 12.36zM600 336h24.72v24.72H600zM48 360h24.72v24.72H48z" style="fill:#6552a3;fill-opacity:1"/><path d="M84.36 384.72H72V360h24.72v12.36c0 7.004-5.356 12.36-12.36 12.36zm60.36 0h-12.36c-7.004 0-12.36-5.356-12.36-12.36V360h24.72z" style="fill:#6552a3;fill-opacity:1"/><path d="M156.36 384.72H144V360h12.36c7.004 0 12.36 5.356 12.36 12.36s-5.356 12.36-12.36 12.36z" style="fill:#6552a3;fill-opacity:1"/><circle cx="3" cy="3" r="3" style="fill:#6552a3;fill-opacity:1" transform="matrix(4.12 0 0 4.12 528 360)"/><path d="M600.72 384.72H576v-12.36c0-7.004 5.356-12.36 12.36-12.36h12.36z" style="fill:#6552a3;fill-opacity:1"/><path style="fill:#6552a3;fill-opacity:1" d="M600 360h24.72v24.72H600z"/><path d="M648.72 384.72H624V360h12.36c7.004 0 12.36 5.356 12.36 12.36zM48 384h24.72v24.72H48zm144.72 24.72H168v-12.36c0-7.004 5.356-12.36 12.36-12.36h12.36z" style="fill:#6552a3;fill-opacity:1"/><path style="fill:#6552a3;fill-opacity:1" d="M192 384h24.72v24.72H192z"/><path style="fill:#6552a3;fill-opacity:1" d="M216 384h24.72v24.72H216z"/><path d="M264.72 408.72H240V384h12.36c7.004 0 12.36 5.356 12.36 12.36zm216 0H456v-12.36c0-7.004 5.356-12.36 12.36-12.36s12.36 5.356 12.36 12.36zm96 0H552v-12.36c0-7.004 5.356-12.36 12.36-12.36h12.36z" style="fill:#6552a3;fill-opacity:1"/><path style="fill:#6552a3;fill-opacity:1" d="M576 384h24.72v24.72H576z"/><path style="fill:#6552a3;fill-opacity:1" d="M600 384h24.72v24.72H600z"/><path style="fill:#6552a3;fill-opacity:1" d="M624 384h24.72v24.72H624zM48 408h24.72v24.72H48zm96.72 24.72H120v-12.36c0-7.004 5.356-12.36 12.36-12.36s12.36 5.356 12.36 12.36zm35.64 0c-7.004 0-12.36-5.356-12.36-12.36V408h24.72v12.36c0 7.004-5.356 12.36-12.36 12.36zM216 408h24.72v24.72H216z"/><path d="M252.36 432.72H240V408h24.72v12.36c0 7.004-5.356 12.36-12.36 12.36zM456 408h24.72v24.72H456z" style="fill:#6552a3;fill-opacity:1"/><path style="fill:#6552a3;fill-opacity:1" d="M480 408h24.72v24.72H480z"/><path style="fill:#6552a3;fill-opacity:1" d="M504 408h24.72v24.72H504z"/><path style="fill:#6552a3;fill-opacity:1" d="M528 408h24.72v24.72H528z"/><path style="fill:#6552a3;fill-opacity:1" d="M552 408h24.72v24.72H552z"/><path style="fill:#6552a3;fill-opacity:1" d="M576 408h24.72v24.72H576z"/><path style="fill:#6552a3;fill-opacity:1" d="M600 408h24.72v24.72H600z"/><path style="fill:#6552a3;fill-opacity:1" d="M624 408h24.72v24.72H624zM60.36 456.72c-7.004 0-12.36-5.356-12.36-12.36V432h24.72v12.36c0 7.004-5.356 12.36-12.36 12.36zm60.36 0h-12.36c-7.004 0-12.36-5.356-12.36-12.36S101.356 432 108.36 432h12.36v24.72z"/><path style="fill:#6552a3;fill-opacity:1" d="M120 432h24.72v24.72H120z"/><path d="M156.36 456.72H144V432h12.36c7.004 0 12.36 5.356 12.36 12.36s-5.356 12.36-12.36 12.36zm60.36 0h-12.36c-7.004 0-12.36-5.356-12.36-12.36S197.356 432 204.36 432h12.36v24.72z" style="fill:#6552a3;fill-opacity:1"/><path d="M228.36 456.72H216V432h24.72v12.36c0 7.004-5.356 12.36-12.36 12.36zm60.36 0h-12.36c-7.004 0-12.36-5.356-12.36-12.36S269.356 432 276.36 432h12.36v24.72z" style="fill:#6552a3;fill-opacity:1"/><path style="fill:#6552a3;fill-opacity:1" d="M288 432h24.72v24.72H288z"/><path d="M324.36 456.72H312V432h12.36c7.004 0 12.36 5.356 12.36 12.36s-5.356 12.36-12.36 12.36zm108.36 0H408v-12.36c0-7.004 5.356-12.36 12.36-12.36h12.36z" style="fill:#6552a3;fill-opacity:1"/><path style="fill:#6552a3;fill-opacity:1" d="M432 432h24.72v24.72H432z"/><path style="fill:#6552a3;fill-opacity:1" d="M456 432h24.72v24.72H456z"/><path style="fill:#6552a3;fill-opacity:1" d="M480 432h24.72v24.72H480z"/><path style="fill:#6552a3;fill-opacity:1" d="M504 432h24.72v24.72H504z"/><path style="fill:#6552a3;fill-opacity:1" d="M528 432h24.72v24.72H528zm72.72 24.72h-12.36c-7.004 0-12.36-5.356-12.36-12.36V432h24.72z"/><path style="fill:#6552a3;fill-opacity:1" d="M600 432h24.72v24.72H600z"/><path style="fill:#6552a3;fill-opacity:1" d="M624 432h24.72v24.72H624z"/><circle cx="3" cy="3" r="3" style="fill:#6552a3;fill-opacity:1" transform="matrix(4.12 0 0 4.12 240 456)"/><path d="M360.72 480.72h-12.36c-7.004 0-12.36-5.356-12.36-12.36S341.356 456 348.36 456h12.36v24.72z" style="fill:#6552a3;fill-opacity:1"/><path d="M384.72 480.72H360V456h12.36c7.004 0 12.36 5.356 12.36 12.36zM408 456h24.72v24.72H408z" style="fill:#6552a3;fill-opacity:1"/><path style="fill:#6552a3;fill-opacity:1" d="M432 456h24.72v24.72H432zm96 0h24.72v24.72H528zm96 0h24.72v24.72H624zm-335.28 48.72H264v-12.36c0-7.004 5.356-12.36 12.36-12.36s12.36 5.356 12.36 12.36zM360 480h24.72v24.72H360z"/><path style="fill:#6552a3;fill-opacity:1" d="M384 480h24.72v24.72H384z"/><path style="fill:#6552a3;fill-opacity:1" d="M408 480h24.72v24.72H408z"/><path style="fill:#6552a3;fill-opacity:1" d="M432 480h24.72v24.72H432z"/><circle cx="3" cy="3" r="3" style="fill:#6552a3;fill-opacity:1" transform="matrix(4.12 0 0 4.12 480 480)"/><path style="fill:#6552a3;fill-opacity:1" d="M528 480h24.72v24.72H528zm108.36 24.72c-7.004 0-12.36-5.356-12.36-12.36V480h24.72v12.36c0 7.004-5.356 12.36-12.36 12.36zm-371.64 24H240v-12.36c0-7.004 5.356-12.36 12.36-12.36h12.36z"/><path style="fill:#6552a3;fill-opacity:1" d="M264 504h24.72v24.72H264z"/><path d="M300.36 528.72H288V504h12.36c7.004 0 12.36 5.356 12.36 12.36s-5.356 12.36-12.36 12.36zm60.36 0H336v-12.36c0-7.004 5.356-12.36 12.36-12.36h12.36z" style="fill:#6552a3;fill-opacity:1"/><path d="M372.36 528.72H360V504h24.72v12.36c0 7.004-5.356 12.36-12.36 12.36zM408 504h24.72v24.72H408z" style="fill:#6552a3;fill-opacity:1"/><path style="fill:#6552a3;fill-opacity:1" d="M432 504h24.72v24.72H432zm96 0h24.72v24.72H528z"/><path d="M564.36 528.72H552V504h12.36c7.004 0 12.36 5.356 12.36 12.36s-5.356 12.36-12.36 12.36z" style="fill:#6552a3;fill-opacity:1"/><circle cx="3" cy="3" r="3" style="fill:#6552a3;fill-opacity:1" transform="matrix(4.12 0 0 4.12 600 504)"/><path style="fill:#6552a3;fill-opacity:1" d="M240 528h24.72v24.72H240zm108.36 24.72c-7.004 0-12.36-5.356-12.36-12.36V528h24.72v12.36c0 7.004-5.356 12.36-12.36 12.36zm60.36 0h-12.36c-7.004 0-12.36-5.356-12.36-12.36S389.356 528 396.36 528h12.36v24.72z"/><path style="fill:#6552a3;fill-opacity:1" d="M408 528h24.72v24.72H408z"/><path style="fill:#6552a3;fill-opacity:1" d="M432 528h24.72v24.72H432z"/><path style="fill:#6552a3;fill-opacity:1" d="M456 528h24.72v24.72H456z"/><path style="fill:#6552a3;fill-opacity:1" d="M480 528h24.72v24.72H480z"/><path style="fill:#6552a3;fill-opacity:1" d="M504 528h24.72v24.72H504z"/><path d="M540.36 552.72H528V528h24.72v12.36c0 7.004-5.356 12.36-12.36 12.36zm108.36 0H624v-12.36c0-7.004 5.356-12.36 12.36-12.36s12.36 5.356 12.36 12.36zM240 552h24.72v24.72H240z" style="fill:#6552a3;fill-opacity:1"/><path style="fill:#6552a3;fill-opacity:1" d="M264 552h24.72v24.72H264z"/><path d="M300.36 576.72H288V552h12.36c7.004 0 12.36 5.356 12.36 12.36s-5.356 12.36-12.36 12.36zm168 0c-7.004 0-12.36-5.356-12.36-12.36V552h24.72v12.36c0 7.004-5.356 12.36-12.36 12.36zm108.36 0H552v-12.36c0-7.004 5.356-12.36 12.36-12.36s12.36 5.356 12.36 12.36zM624 552h24.72v24.72H624zm-359.28 48.72h-12.36c-7.004 0-12.36-5.356-12.36-12.36V576h24.72z" style="fill:#6552a3;fill-opacity:1"/><path d="M276.36 600.72H264V576h24.72v12.36c0 7.004-5.356 12.36-12.36 12.36zm60.36 0H312v-12.36c0-7.004 5.356-12.36 12.36-12.36h12.36z" style="fill:#6552a3;fill-opacity:1"/><path d="M348.36 600.72H336V576h12.36c7.004 0 12.36 5.356 12.36 12.36s-5.356 12.36-12.36 12.36zm204.36 0h-12.36c-7.004 0-12.36-5.356-12.36-12.36S533.356 576 540.36 576h12.36v24.72z" style="fill:#6552a3;fill-opacity:1"/><path style="fill:#6552a3;fill-opacity:1" d="M552 576h24.72v24.72H552zm72 0h24.72v24.72H624zm-312 24h24.72v24.72H312z"/><circle cx="3" cy="3" r="3" style="fill:#6552a3;fill-opacity:1" transform="matrix(4.12 0 0 4.12 384 600)"/><path d="M456.72 624.72H432v-12.36c0-7.004 5.356-12.36 12.36-12.36s12.36 5.356 12.36 12.36z" style="fill:#6552a3;fill-opacity:1"/><circle cx="3" cy="3" r="3" style="fill:#6552a3;fill-opacity:1" transform="matrix(4.12 0 0 4.12 480 600)"/><path style="fill:#6552a3;fill-opacity:1" d="M552 600h24.72v24.72H552zm72.72 24.72h-12.36c-7.004 0-12.36-5.356-12.36-12.36S605.356 600 612.36 600h12.36v24.72z"/><path style="fill:#6552a3;fill-opacity:1" d="M624 600h24.72v24.72H624zm-359.28 48.72h-12.36c-7.004 0-12.36-5.356-12.36-12.36S245.356 624 252.36 624h12.36v24.72z"/><path style="fill:#6552a3;fill-opacity:1" d="M264 624h24.72v24.72H264z"/><path style="fill:#6552a3;fill-opacity:1" d="M288 624h24.72v24.72H288z"/><path d="M324.36 648.72H312V624h24.72v12.36c0 7.004-5.356 12.36-12.36 12.36zm108.36 0h-12.36c-7.004 0-12.36-5.356-12.36-12.36S413.356 624 420.36 624h12.36v24.72z" style="fill:#6552a3;fill-opacity:1"/><path style="fill:#6552a3;fill-opacity:1" d="M432 624h24.72v24.72H432z"/><path d="M468.36 648.72H456V624h12.36c7.004 0 12.36 5.356 12.36 12.36s-5.356 12.36-12.36 12.36z" style="fill:#6552a3;fill-opacity:1"/><circle cx="3" cy="3" r="3" style="fill:#6552a3;fill-opacity:1" transform="matrix(4.12 0 0 4.12 504 624)"/><path d="M564.36 648.72c-7.004 0-12.36-5.356-12.36-12.36V624h24.72v12.36c0 7.004-5.356 12.36-12.36 12.36zm72 0c-7.004 0-12.36-5.356-12.36-12.36V624h24.72v12.36c0 7.004-5.356 12.36-12.36 12.36zM102 216h61.2c28.8 0 52.8-24 52.8-52.8V102c0-30-24-54-54-54h-61.2C72 48 48 72 48 100.8V162c0 30 24 54 54 54zm90-110.4v52.8c0 18-15.6 33.6-33.6 33.6h-52.8C86.4 192 72 177.6 72 158.4v-52.8c0-18 15.6-33.6 33.6-33.6h52.8c19.2 0 33.6 14.4 33.6 33.6zM534 216h61.2c28.8 0 52.8-24 52.8-52.8V102c0-30-24-54-54-54h-61.2C504 48 480 72 480 100.8V162c0 30 24 54 54 54zm90-110.4v52.8c0 18-15.6 33.6-33.6 33.6h-52.8c-19.2 0-33.6-14.4-33.6-33.6v-52.8c0-18 15.6-33.6 33.6-33.6h52.8c19.2 0 33.6 14.4 33.6 33.6zM102 648h61.2c28.8 0 52.8-24 52.8-52.8V534c0-30-24-54-54-54h-61.2C72 480 48 504 48 532.8V594c0 30 24 54 54 54zm90-110.4v52.8c0 18-15.6 33.6-33.6 33.6h-52.8C86.4 624 72 609.6 72 590.4v-52.8c0-18 15.6-33.6 33.6-33.6h52.8c19.2 0 33.6 14.4 33.6 33.6z" style="fill:#6552a3;fill-opacity:1"/><path d="M168 116.4v32.4c0 9.6-9.6 19.2-20.4 19.2h-31.2c-12 0-20.4-8.4-20.4-20.4v-31.2c0-10.8 9.6-20.4 20.4-20.4h32.4c10.8 0 19.2 8.4 19.2 20.4zm432 0v32.4c0 9.6-9.6 19.2-20.4 19.2h-31.2c-12 0-20.4-8.4-20.4-20.4v-31.2c0-10.8 9.6-20.4 20.4-20.4h32.4c10.8 0 19.2 8.4 19.2 20.4zm-432 432v32.4c0 9.6-9.6 19.2-20.4 19.2h-31.2c-12 0-20.4-8.4-20.4-20.4v-31.2c0-10.8 9.6-20.4 20.4-20.4h32.4c10.8 0 19.2 8.4 19.2 20.4z" style="fill:#6552a3;fill-opacity:1"/></g><path d="M51.262 54.079c1.246.706 1.505 5.188 3.169 7.318-.592-5.448 6.597-8.11 10.024-3.863 1.505 1.882 1.653 5.138.148 7.008-1.602 1.993-3.501 2.476-6.744 1.944 1.948 3.194 6.633 2.08 7.903 2.439-.32.384-.172.557-1.467.656-.542.05-1.418.025-1.973-.012-1.109-.074-2.096-.446-3.008-.891-.678-.322-1.887-1.041-2.404-1.573l-1.209-1.374-.135-.137a12.221 12.221 0 01-.407-.433c-.925-1.052-.518-.953-1.233-2.204-.518-.916-.198-.198-.666-1.424l-1.64-4.259c-.999-1.672-1.171-1.424-1.825-1.461-5.067 13.149 8.311 20.256 16.436 14.957 6.683-4.358 5.918-13.57 3.354-15.44-.05.409-.9 5.807-2.281 6.154l-.937-.087c.037-1.04.296-1.56.37-2.551.123-1.807.049-4.16-.333-6.017-.259-1.276-.728-1.251-.506-1.276-1.48-1.659-5.499-2.327-8.249-1.708-2.564.569-5.302 2.278-6.387 4.234z" style="fill:#7661a9"/><path d="M58.599 57.645c4.5-2.167 7.015 5.102 2.922 6.959-4.464 2.03-7.164-4.928-2.922-6.959zm-4.168 3.752c.185 1.461.382 2.328 1.172 3.306.863 1.052 1.196.941 2.256 1.783 3.243.532 5.142.049 6.744-1.944 1.505-1.87 1.357-5.126-.148-7.008-3.427-4.247-10.616-1.585-10.024 3.863z" style="fill:#faf9fa"/><path d="M58.599 57.645c-4.242 2.031-1.542 8.989 2.922 6.959 4.093-1.857 1.578-9.126-2.922-6.959z" style="fill:#7e65a9"/><path d="M49.795 55.813c.654.037.826-.211 1.825 1.461l1.64 4.259c.468 1.226.148.508.666 1.424.715 1.251.308 1.152 1.233 2.204.086.099.32.347.407.433l.135.137 1.209 1.374c.517.532 1.726 1.251 2.404 1.572.912.446 1.899.818 3.008.892.555.037 1.431.062 1.973.012 1.295-.099 1.147-.272 1.467-.656-1.27-.359-5.955.755-7.903-2.439-1.06-.842-1.393-.731-2.256-1.783-.79-.978-.987-1.845-1.172-3.306-1.664-2.13-1.923-6.612-3.169-7.318-.998.743-.715 1.065-1.467 1.734z" style="fill:#5d4b94"/><path d="M69.585 55.33c-.124-.78-.876-1.585-1.381-2.13a9.67 9.67 0 00-1.036-.966c-.949-.78-.222-.532-1.27-.681-.222.025.247 0 .506 1.276.382 1.857.456 4.21.333 6.017-.074.991-.333 1.511-.37 2.551l.937.087c1.381-.347 2.231-5.746 2.281-6.154z" style="fill:#6552a3"/></svg>